<?xml version="1.0" encoding="iso-8859-1"?>
<!-- Generator: Adobe Illustrator 19.0.0, SVG Export Plug-In . SVG Version: 6.00 Build 0)  -->
<svg version="1.1" id="Capa_1" xmlns="http://www.w3.org/2000/svg" xmlns:xlink="http://www.w3.org/1999/xlink" x="0px" y="0px"
	 viewBox="0 0 512.007 512.007" style="enable-background:new 0 0 512.007 512.007;" xml:space="preserve">
<circle style="fill:#4F0A0A;" cx="256.003" cy="256.003" r="256.003"/>
<path style="fill:#260505;" d="M245.901,114.471c0,0-25.629-4.553-25.966,30.35c-0.337,34.903,17.199,68.625,17.199,68.625
	c-14.163,47.886-44.851,104.54-44.851,104.54c-63.735,26.64-72.504,42.828-76.887,47.886c-2.87,3.312-7.861,18.265,0.098,26.453
	l-0.003,0.003L234.233,511.07c7.177,0.604,14.433,0.931,21.767,0.931c106.526,0,197.844-65.071,236.403-157.628L258.441,120.409
	l-0.039,0.039C252.254,115.027,245.901,114.471,245.901,114.471z"/>
<path style="fill:#FFFFFF;" d="M400.687,310.23c0,0-0.337-15.513-24.617-23.774s-77.899,0-77.899,0
	c-19.4-17.039-45.694-58.846-45.694-58.846s8.507-19.159,15.344-56.316c9.947-54.058-21.92-56.822-21.92-56.822
	s-25.629-4.553-25.966,30.35c-0.337,34.903,17.199,68.625,17.199,68.625c-14.163,47.886-44.851,104.54-44.851,104.54
	c-63.735,26.64-72.504,42.828-76.887,47.886c-4.384,5.059-13.724,37.294,25.73,31.055s74.762-80.121,74.762-80.121
	c20.233-10.117,81.271-22.763,81.271-22.763s19.559,28.664,63.735,34.813C405.071,335.006,400.687,310.23,400.687,310.23z
	 M137.229,387.424c-9.495,4.464-18.472-1.445-19.732-6.726c-1.62-6.789,4.988-17.973,17.616-26.097
	c25.331-16.3,49.869-25.745,49.869-25.745S167.486,373.2,137.229,387.424z M226.953,133.44c2.78-10.117,13.106-13.097,17.937-10.623
	c6.211,3.182,10.415,15.473,8.38,30.35c-4.081,29.845-12.853,54.631-12.853,54.631S218.092,165.679,226.953,133.44z M219.935,306.52
	c14.5-22.932,30.013-69.468,30.013-69.468c8.43,16.187,40.13,53.439,40.13,53.439C271.53,291.322,219.935,306.52,219.935,306.52z
	 M365.11,320.852c-33.435-0.005-60.188-28.014-60.188-28.014s21.913-3.118,51.252-2.168c15.008,0.486,24.684,5.111,25.966,11.972
	C383.137,307.978,381.634,320.855,365.11,320.852z"/>
<g>
</g>
<g>
</g>
<g>
</g>
<g>
</g>
<g>
</g>
<g>
</g>
<g>
</g>
<g>
</g>
<g>
</g>
<g>
</g>
<g>
</g>
<g>
</g>
<g>
</g>
<g>
</g>
<g>
</g>
</svg>
