<?xml version="1.0" encoding="iso-8859-1"?>
<!-- Generator: Adobe Illustrator 19.0.0, SVG Export Plug-In . SVG Version: 6.00 Build 0)  -->
<svg version="1.1" id="Capa_1" xmlns="http://www.w3.org/2000/svg" xmlns:xlink="http://www.w3.org/1999/xlink" x="0px" y="0px"
	 viewBox="0 0 512.007 512.007" style="enable-background:new 0 0 512.007 512.007;" xml:space="preserve">
<circle style="fill:#3C2B64;" cx="256.003" cy="256.003" r="256.003"/>
<path style="fill:#221838;" d="M370.65,196.312c-20.897,0-38.177,7.405-51.844,22.209c-3.996,4.329-7.39,9.158-10.218,14.456
	l-93.115-93.115h-46.496L84.154,357.639l153.713,153.713c5.991,0.419,12.035,0.648,18.132,0.648
	c125.976,0,230.697-90.994,252.027-210.841l-86.085-86.085l-0.03,0.03C408.818,202.59,391.741,196.312,370.65,196.312z"/>
<g>
	<path style="fill:#A87EB7;" d="M302.673,357.639h-47.834l-19.015-49.468h-87.051l-17.975,49.468H84.154l84.823-217.777h46.496
		L302.673,357.639z M221.713,271.479l-30.007-80.813l-29.414,80.813H221.713z"/>
	<path style="fill:#A87EB7;" d="M401.847,307.429l41.594,6.982c-5.348,15.252-13.792,26.864-25.328,34.835
		c-11.539,7.974-25.974,11.959-43.303,11.959c-27.433,0-47.736-8.962-60.906-26.888c-10.399-14.358-15.598-32.482-15.598-54.37
		c0-26.145,6.834-46.619,20.5-61.426c13.667-14.804,30.948-22.209,51.844-22.209c23.472,0,41.989,7.75,55.558,23.248
		c13.567,15.5,20.055,39.243,19.46,71.231H341.089c0.297,12.381,3.663,22.012,10.101,28.893
		c6.437,6.884,14.458,10.324,24.065,10.324c6.536,0,12.033-1.782,16.489-5.348C396.201,321.093,399.567,315.352,401.847,307.429z
		 M404.224,265.24c-0.297-12.081-3.417-21.266-9.359-27.556c-5.942-6.288-13.172-9.433-21.688-9.433
		c-9.113,0-16.638,3.319-22.58,9.952c-5.942,6.636-8.865,15.649-8.764,27.036h62.391V265.24z"/>
</g>
<g>
</g>
<g>
</g>
<g>
</g>
<g>
</g>
<g>
</g>
<g>
</g>
<g>
</g>
<g>
</g>
<g>
</g>
<g>
</g>
<g>
</g>
<g>
</g>
<g>
</g>
<g>
</g>
<g>
</g>
</svg>
