<?xml version="1.0" encoding="iso-8859-1"?>
<!-- Generator: Adobe Illustrator 19.0.0, SVG Export Plug-In . SVG Version: 6.00 Build 0)  -->
<svg version="1.1" id="Capa_1" xmlns="http://www.w3.org/2000/svg" xmlns:xlink="http://www.w3.org/1999/xlink" x="0px" y="0px"
	 viewBox="0 0 512 512" style="enable-background:new 0 0 512 512;" xml:space="preserve">
<circle style="fill:#BF2717;" cx="256" cy="256" r="256"/>
<path style="fill:#7A190F;" d="M289.422,63.053c-31.269,0.145-56.734,21.595-64.175,49.62c-7.357,27.705-21.592,53.263-41.38,74.004
	l-0.002,0.002c-18.877,19.785-42.608,33.698-69.062,40.623c-28.333,7.417-49.99,33.242-49.844,64.852
	c0.074,15.925,5.734,30.513,15.103,41.936l-0.236,0.236l177.656,177.656c140.138-0.797,253.59-114.183,254.496-254.295
	L331.426,77.134l-0.325,0.325C319.652,68.385,305.167,62.98,289.422,63.053z"/>
<path style="fill:#FFFFFF;" d="M394.936,300.613c-19.533-18.77-33.847-42.443-41.27-68.495l-0.003-0.011
	c-7.857-27.576-7.762-56.407,0.152-83.966c1.708-5.947,2.609-12.234,2.58-18.734c-0.171-36.817-30.155-66.523-66.971-66.353
	c-31.269,0.145-56.734,21.595-64.175,49.62c-7.357,27.706-21.592,53.264-41.38,74.004l-0.002,0.002
	c-18.877,19.785-42.608,33.698-69.062,40.623c-28.332,7.417-49.99,33.242-49.844,64.852c0.171,36.817,30.155,66.524,66.971,66.353
	c6.282-0.029,12.357-0.926,18.112-2.579c26.756-7.68,55.194-8.008,82.088-0.824l0.012,0.003
	c26.351,7.039,49.954,20.862,69.077,40.31c12.165,12.371,29.119,20.012,47.839,19.924c36.817-0.171,66.524-30.155,66.353-66.971
	C415.325,329.595,407.483,312.669,394.936,300.613z M255.616,320.961c-34.45,0-63.197-28.747-63.197-63.197
	s28.747-63.197,63.197-63.197s63.197,28.747,63.197,63.197S290.067,320.961,255.616,320.961z"/>
<g>
</g>
<g>
</g>
<g>
</g>
<g>
</g>
<g>
</g>
<g>
</g>
<g>
</g>
<g>
</g>
<g>
</g>
<g>
</g>
<g>
</g>
<g>
</g>
<g>
</g>
<g>
</g>
<g>
</g>
</svg>
