<?xml version="1.0" encoding="iso-8859-1"?>
<!-- Generator: Adobe Illustrator 19.0.0, SVG Export Plug-In . SVG Version: 6.00 Build 0)  -->
<svg version="1.1" id="Capa_1" xmlns="http://www.w3.org/2000/svg" xmlns:xlink="http://www.w3.org/1999/xlink" x="0px" y="0px"
	 viewBox="0 0 512.007 512.007" style="enable-background:new 0 0 512.007 512.007;" xml:space="preserve">
<circle style="fill:#BF2717;" cx="256.003" cy="256.003" r="256.003"/>
<path style="fill:#7A190F;" d="M417.007,148.121l-0.027,0.027c-10.504-9.904-24.195-16.597-39.653-18.282
	c-27.037-2.947-105.293,24.024-147.466,39.543l-32.63-32.63l-0.012,0.012c-19.907-20.402-51.293-27-78.515-14.146
	c-34.315,16.203-48.997,57.155-32.793,91.47c12.483,26.435,85.356,85.271,118.167,110.899c-8.412,6.518-14.945,12.527-18.542,17.579
	c-18.44,25.899-16.355,60.206,2.982,83.6l-0.225,0.225l84.99,84.99C406.605,502.515,512,391.574,512,255.999
	c0-4.434-0.113-8.843-0.336-13.223L417.007,148.121z"/>
<path style="fill:#FFFFFF;" d="M377.327,129.865c-30.516-3.325-126.289,31.462-161.775,44.878
	c-1.433-8.055-3.203-14.701-5.377-19.307c-16.203-34.315-57.155-48.996-91.47-32.793s-48.997,57.155-32.793,91.47
	c12.483,26.435,85.356,85.271,118.167,110.899c-8.412,6.518-14.945,12.527-18.542,17.579c-22.01,30.912-14.793,73.815,16.119,95.825
	c30.912,22.011,73.815,14.794,95.826-16.119c17.9-25.14,34.392-126.653,39.927-163.69c10.065,4.307,18.732,7.181,25.031,7.868
	c37.724,4.111,71.639-23.137,75.75-60.861C442.3,167.891,415.052,133.976,377.327,129.865z M160.899,213.355
	c-18.301,8.641-40.142,0.811-48.784-17.49s-0.811-40.142,17.49-48.784s40.142-0.811,48.784,17.49
	C187.03,182.872,179.199,204.714,160.899,213.355z M268.749,408.364c-11.739,16.487-34.62,20.336-51.106,8.597
	c-16.487-11.739-20.336-34.62-8.597-51.106c11.739-16.487,34.62-20.336,51.107-8.597
	C276.639,368.996,280.488,391.877,268.749,408.364z M220.836,312.955c0.713-31.039,1.131-85.136-3.104-122.804
	c23.924,15.537,70.716,45.072,106.773,62.545C300.941,265.068,254.261,290.294,220.836,312.955z M411.657,202.141
	c-2.193,20.12-20.281,34.652-40.4,32.459c-20.12-2.193-34.653-20.281-32.459-40.4c2.193-20.12,20.281-34.652,40.4-32.459
	C399.317,163.934,413.85,182.022,411.657,202.141z"/>
<g>
</g>
<g>
</g>
<g>
</g>
<g>
</g>
<g>
</g>
<g>
</g>
<g>
</g>
<g>
</g>
<g>
</g>
<g>
</g>
<g>
</g>
<g>
</g>
<g>
</g>
<g>
</g>
<g>
</g>
</svg>
