<?xml version="1.0" encoding="iso-8859-1"?>
<!-- Generator: Adobe Illustrator 19.0.0, SVG Export Plug-In . SVG Version: 6.00 Build 0)  -->
<svg version="1.1" id="Capa_1" xmlns="http://www.w3.org/2000/svg" xmlns:xlink="http://www.w3.org/1999/xlink" x="0px" y="0px"
	 viewBox="0 0 512 512" style="enable-background:new 0 0 512 512;" xml:space="preserve">
<circle style="fill:#225257;" cx="256" cy="256" r="256"/>
<path style="fill:#11292B;" d="M509.306,293.158l-83.726-83.726h-38.373v55.17l-55.17-55.17h-38.373v31.355l-86.525-86.525h-42.743
	L86.42,354.46l157.239,157.239c2.04,0.097,4.085,0.172,6.136,0.223c2.063,0.049,4.13,0.079,6.205,0.079
	C384.763,512,491.306,416.93,509.306,293.158z"/>
<g>
	<path style="fill:#4AB6BF;" d="M287.3,354.46h-43.972l-17.48-45.474h-80.025L129.3,354.46H86.42l77.976-200.197h42.743
		L287.3,354.46z M212.874,275.255l-27.585-74.289l-27.039,74.289H212.874z"/>
	<path style="fill:#4AB6BF;" d="M389.938,354.46v-21.713c-5.281,7.739-12.222,13.84-20.826,18.299
		c-8.604,4.459-17.685,6.691-27.244,6.691c-9.743,0-18.483-2.141-26.22-6.419c-7.739-4.278-13.338-10.287-16.797-18.026
		c-3.461-7.737-5.19-18.436-5.19-32.092v-91.768h38.373v66.642c0,20.394,0.704,32.89,2.117,37.485
		c1.41,4.598,3.982,8.241,7.715,10.925c3.732,2.687,8.467,4.028,14.202,4.028c6.555,0,12.427-1.796,17.617-5.394
		c5.189-3.596,8.739-8.057,10.652-13.383c3.566-9.936,2.867-38.113,2.867-100.304h38.373V354.46L389.938,354.46L389.938,354.46z"/>
</g>
<g>
</g>
<g>
</g>
<g>
</g>
<g>
</g>
<g>
</g>
<g>
</g>
<g>
</g>
<g>
</g>
<g>
</g>
<g>
</g>
<g>
</g>
<g>
</g>
<g>
</g>
<g>
</g>
<g>
</g>
</svg>
