<svg enable-background="new 0 0 24 24" height="512" viewBox="0 0 24 24" width="512" xmlns="http://www.w3.org/2000/svg"><g fill="#212121"><path d="m13.808 18.166c.018-2.741-4.497-1.653-5.696-1.887l-.878 4.221c1.431-.266 6.574.973 6.574-2.334z"/><path d="m6.685 11.61c0-.775-.548-1.887-2.523-1.887v.001h-3.178l-.984 4.22c1.589-.264 6.685.944 6.685-2.334z"/><path d="m7.783 5.389c-.001-2.741-4.502-1.654-5.702-1.887l-.984 4.221c1.269-.232 6.685.912 6.686-2.334z"/><path d="m15.125 11.61c0-.775-.548-1.887-2.518-1.887v.001h-3.178l-.877 4.221c1.619-.275 6.573.956 6.573-2.335z"/><path d="m24 9.053c.018-2.741-4.497-1.653-5.696-1.887l-.877 4.222h3.287c2.522 0 3.286-1.113 3.286-2.335z"/><path d="m22.688 15.608c0-2.748-4.487-1.651-5.696-1.887l-.877 4.222c1.727-.293 6.573.999 6.573-2.335z"/><path d="m16.217 5.387c.005-.78-.544-1.887-2.517-1.887v.001h-3.179l-.877 4.221c1.345-.251 6.573.934 6.573-2.335z"/></g></svg>