<?xml version="1.0" encoding="iso-8859-1"?>
<!-- Generator: Adobe Illustrator 19.0.0, SVG Export Plug-In . SVG Version: 6.00 Build 0)  -->
<svg version="1.1" id="Capa_1" xmlns="http://www.w3.org/2000/svg" xmlns:xlink="http://www.w3.org/1999/xlink" x="0px" y="0px"
	 viewBox="0 0 512.007 512.007" style="enable-background:new 0 0 512.007 512.007;" xml:space="preserve">
<circle style="fill:#59480C;" cx="256.003" cy="256.003" r="256.003"/>
<path style="fill:#382D08;" d="M367.906,206.302c-2.807,1.784-5.794,4.539-8.959,8.257l-9.814-9.814h-40.662v3.953l-48.827-48.827
	l-0.009,0.009c-2.399-2.373-4.972-4.509-7.732-6.391c-7.011-4.776-14.956-7.919-23.837-9.425c-8.88-1.504-22.356-2.26-40.427-2.26
	H96.345v228.391l141.133,141.133c6.118,0.438,12.293,0.672,18.523,0.672c125.835,0,230.461-90.791,251.954-210.438l-92.299-92.299
	c-9.245-5.504-18.851-8.257-28.821-8.257C379.77,201.005,373.46,202.773,367.906,206.302z"/>
<g>
	<path style="fill:#E8BC1E;" d="M96.345,141.804h91.294c18.071,0,31.547,0.754,40.427,2.26c8.881,1.506,16.826,4.649,23.837,9.425
		c7.011,4.779,12.853,11.139,17.527,19.085c4.674,7.945,7.011,16.852,7.011,26.718c0,10.699-2.882,20.513-8.646,29.444
		c-5.764,8.933-13.581,15.632-23.447,20.097c13.917,4.051,24.615,10.959,32.093,20.72c7.478,9.764,11.217,21.242,11.217,34.43
		c0,10.387-2.414,20.487-7.244,30.302c-4.83,9.815-11.426,17.658-19.786,23.525c-8.361,5.869-18.671,9.479-30.924,10.827
		c-7.688,0.832-26.226,1.351-55.617,1.558H96.345V141.804z M142.459,179.818v52.814h30.224c17.968,0,29.133-0.258,33.495-0.779
		c7.892-0.935,14.099-3.661,18.617-8.179c4.517-4.518,6.777-10.462,6.777-17.839c0-7.062-1.948-12.799-5.842-17.215
		c-3.894-4.414-9.686-7.088-17.37-8.023c-4.572-0.519-17.709-0.779-39.415-0.779L142.459,179.818L142.459,179.818z M142.459,270.645
		v61.07h42.688c16.617,0,27.159-0.467,31.625-1.402c6.855-1.246,12.438-4.285,16.748-9.114c4.308-4.829,6.465-11.295,6.465-19.396
		c0-6.855-1.663-12.671-4.986-17.449c-3.325-4.776-8.129-8.257-14.411-10.439c-6.285-2.181-19.917-3.272-40.895-3.272h-37.235
		V270.645z"/>
	<path style="fill:#E8BC1E;" d="M352.249,370.196h-43.778V204.745h40.663v23.524c6.957-11.112,13.215-18.435,18.772-21.966
		c5.554-3.529,11.864-5.297,18.929-5.297c9.97,0,19.576,2.753,28.821,8.257l-13.553,38.169c-7.376-4.777-14.231-7.166-20.564-7.166
		c-6.129,0-11.323,1.689-15.579,5.063c-4.26,3.377-7.61,9.479-10.049,18.306c-2.442,8.83-3.661,27.317-3.661,55.463L352.249,370.196
		L352.249,370.196z"/>
</g>
<g>
</g>
<g>
</g>
<g>
</g>
<g>
</g>
<g>
</g>
<g>
</g>
<g>
</g>
<g>
</g>
<g>
</g>
<g>
</g>
<g>
</g>
<g>
</g>
<g>
</g>
<g>
</g>
<g>
</g>
</svg>
