<?xml version="1.0" encoding="iso-8859-1"?>
<!-- Generator: Adobe Illustrator 19.0.0, SVG Export Plug-In . SVG Version: 6.00 Build 0)  -->
<svg version="1.1" id="Capa_1" xmlns="http://www.w3.org/2000/svg" xmlns:xlink="http://www.w3.org/1999/xlink" x="0px" y="0px"
	 viewBox="0 0 512.007 512.007" style="enable-background:new 0 0 512.007 512.007;" xml:space="preserve">
<circle style="fill:#3D0706;" cx="256.003" cy="256.003" r="256.003"/>
<path style="fill:#290504;" d="M333.343,127.183c-26.168-15.757-52.19-23.748-77.343-23.748s-51.174,7.991-77.343,23.748
	c-20.597,12.403-41.355,29.641-61.695,51.235c-34.433,36.555-55.552,72.546-56.435,74.059c-1.268,2.177-1.268,4.867,0,7.044
	c0.881,1.513,22.002,37.504,56.435,74.059c5.309,5.636,10.647,10.968,16.002,16.002l159.781,159.781
	c112.045-16.107,200.636-104.762,216.65-216.836L376.285,159.418l-0.227,0.227C361.87,146.624,347.568,135.75,333.343,127.183z"/>
<g>
	<path style="fill:#FF2662;" d="M254.407,218.711l-32.337-55.762c-26.224,9.565-47.262,29.901-57.776,55.654L254.407,218.711z"/>
	<path style="fill:#FF2662;" d="M288.273,274.324l65.032,0.079c1.121-5.964,1.714-12.114,1.714-18.403
		c0-22.92-7.79-44.018-20.862-60.798L288.273,274.324z"/>
	<path style="fill:#FF2662;" d="M287.465,237.285l32.819-56.594c-17.299-14.78-39.748-23.709-64.284-23.709
		c-4.923,0-9.759,0.365-14.489,1.058L287.465,237.285z"/>
	<path style="fill:#FF2662;" d="M223.797,237.954l-65.155-0.079c-1.087,5.877-1.661,11.933-1.661,18.124
		c0,22.998,7.842,44.162,20.994,60.97L223.797,237.954z"/>
	<path style="fill:#FF2662;" d="M256.69,293.566l32.357,55.796c26.539-9.393,47.876-29.779,58.546-55.686L256.69,293.566z"/>
	<path style="fill:#FF2662;" d="M224.118,275.832l-32.247,55.609c17.278,14.701,39.665,23.578,64.129,23.578
		c4.581,0,9.089-0.318,13.505-0.921L224.118,275.832z"/>
</g>
<path style="fill:#FFFFFF;" d="M256,408.565c-25.153,0-51.174-7.991-77.343-23.748c-20.597-12.403-41.355-29.641-61.695-51.235
	c-34.433-36.555-55.552-72.546-56.435-74.059c-1.268-2.177-1.268-4.867,0-7.044c0.881-1.513,22.002-37.504,56.435-74.059
	c20.341-21.595,41.098-38.832,61.695-51.235c26.168-15.757,52.191-23.748,77.343-23.748s51.174,7.991,77.343,23.748
	c20.597,12.403,41.355,29.641,61.695,51.235c34.433,36.555,55.552,72.546,56.435,74.059c1.268,2.177,1.268,4.867,0,7.044
	c-0.881,1.513-22.002,37.504-56.435,74.059c-20.341,21.595-41.098,38.832-61.695,51.235
	C307.175,400.575,281.153,408.565,256,408.565z M74.761,256c6.17,9.921,25.268,39.24,52.575,68.188
	c30.288,32.109,77.197,70.385,128.664,70.385s98.376-38.276,128.664-70.385C411.971,295.24,431.07,265.921,437.24,256
	c-6.17-9.921-25.268-39.24-52.575-68.188c-30.288-32.109-77.197-70.385-128.664-70.385s-98.376,38.276-128.664,70.385
	C100.029,216.76,80.93,246.08,74.761,256z"/>
<g>
</g>
<g>
</g>
<g>
</g>
<g>
</g>
<g>
</g>
<g>
</g>
<g>
</g>
<g>
</g>
<g>
</g>
<g>
</g>
<g>
</g>
<g>
</g>
<g>
</g>
<g>
</g>
<g>
</g>
</svg>
