<?xml version="1.0" encoding="iso-8859-1"?>
<!-- Generator: Adobe Illustrator 19.0.0, SVG Export Plug-In . SVG Version: 6.00 Build 0)  -->
<svg version="1.1" id="Capa_1" xmlns="http://www.w3.org/2000/svg" xmlns:xlink="http://www.w3.org/1999/xlink" x="0px" y="0px"
	 viewBox="0 0 511.993 511.993" style="enable-background:new 0 0 511.993 511.993;" xml:space="preserve">
<circle style="fill:#3C2B64;" cx="255.997" cy="255.997" r="255.997"/>
<path style="fill:#201736;" d="M407.033,216.65l-0.01,0.01c-2.596-1.945-5.554-3.701-8.911-5.25
	c-5.03-2.322-10.492-3.825-16.366-4.551l-53.965-53.965h-39.526v61.376l-47.613-47.613l-0.399,0.399
	c-14.938-11.776-33.606-17.678-56.023-17.678c-28.885,0-52.186,9.494-69.91,28.484s-26.585,45.646-26.585,79.967
	c0,32.447,8.813,58.023,26.445,76.732c1.285,1.363,2.598,2.671,3.935,3.935l171.332,171.332
	c106.038-13.833,191.673-92.552,215.763-195.01l-90.866-90.866c-1.941-2.657-4.354-5.068-7.236-7.236L407.033,216.65z"/>
<g>
	<path style="fill:#A87EB7;" d="M226.98,283.288l40.37,12.8c-6.189,22.506-16.481,39.222-30.875,50.146
		c-14.397,10.926-32.659,16.388-54.789,16.388c-27.383,0-49.889-9.354-67.519-28.063c-17.63-18.708-26.445-44.284-26.445-76.732
		c0-34.321,8.862-60.977,26.585-79.967s41.025-28.484,69.91-28.484c25.225,0,45.715,7.455,61.47,22.366
		c9.376,8.815,16.409,21.475,21.099,37.978l-41.214,9.847c-2.439-10.69-7.526-19.13-15.262-25.319
		c-7.737-6.189-17.139-9.284-28.203-9.284c-15.286,0-27.688,5.486-37.205,16.458c-9.519,10.972-14.277,28.744-14.277,53.311
		c0,26.072,4.687,44.639,14.066,55.703c9.376,11.066,21.568,16.599,36.573,16.599c11.064,0,20.583-3.517,28.554-10.55
		C217.79,309.451,223.511,298.388,226.98,283.288z"/>
	<path style="fill:#A87EB7;" d="M327.781,152.894v75.817c12.752-14.91,27.991-22.366,45.715-22.366
		c9.096,0,17.302,1.688,24.616,5.064c7.315,3.376,12.822,7.69,16.528,12.94c3.704,5.254,6.236,11.066,7.596,17.443
		c1.358,6.378,2.039,16.271,2.039,29.68v87.633h-39.526v-78.911c0-15.66-0.752-25.601-2.251-29.821
		c-1.501-4.22-4.15-7.571-7.948-10.058c-3.798-2.484-8.559-3.727-14.277-3.727c-6.565,0-12.427,1.596-17.583,4.783
		c-5.158,3.189-8.932,7.996-11.323,14.418c-2.391,6.424-3.587,15.919-3.587,28.484v74.833h-39.526V152.894H327.781z"/>
</g>
<g>
</g>
<g>
</g>
<g>
</g>
<g>
</g>
<g>
</g>
<g>
</g>
<g>
</g>
<g>
</g>
<g>
</g>
<g>
</g>
<g>
</g>
<g>
</g>
<g>
</g>
<g>
</g>
<g>
</g>
</svg>
