<?xml version="1.0" encoding="iso-8859-1"?>
<!-- Generator: Adobe Illustrator 19.0.0, SVG Export Plug-In . SVG Version: 6.00 Build 0)  -->
<svg version="1.1" id="Capa_1" xmlns="http://www.w3.org/2000/svg" xmlns:xlink="http://www.w3.org/1999/xlink" x="0px" y="0px"
	 viewBox="0 0 512 512" style="enable-background:new 0 0 512 512;" xml:space="preserve">
<circle style="fill:#263364;" cx="256" cy="256" r="256"/>
<path style="fill:#19244F;" d="M256,512c141.385,0,256-114.615,256-256c0-8.909-0.458-17.71-1.346-26.385l-94.925-94.925
	c-12.883-4.032-26.043-6.049-39.485-6.049c-13.105,0-23.942,2.327-32.512,6.973c-8.569,4.649-14.45,10.669-17.642,18.063
	c-3.192,7.392-4.789,18.595-4.789,33.604v13.442h-26.211v2.183l-44.903-44.903c-0.865-0.908-1.743-1.797-2.646-2.646
	c-18.819-17.81-43.295-26.716-73.425-26.716c-34.502,0-62.336,11.342-83.506,34.024c-21.171,22.683-31.756,54.522-31.756,95.52
	c0,38.757,10.528,69.308,31.587,91.655c1.535,1.629,3.104,3.191,4.701,4.701l157.417,157.417C253.707,511.971,254.85,512,256,512z"
	/>
<g>
	<path style="fill:#C9E1F6;" d="M225.194,288.596l48.222,15.289c-7.392,26.883-19.686,46.851-36.88,59.899
		c-17.196,13.05-39.009,19.574-65.443,19.574c-32.709,0-59.593-11.173-80.65-33.52c-21.061-22.347-31.587-52.897-31.587-91.655
		c0-40.996,10.585-72.836,31.756-95.519c21.17-22.683,49.004-34.024,83.506-34.024c30.13,0,54.606,8.906,73.425,26.716
		c11.2,10.53,19.601,25.652,25.203,45.366l-49.23,11.761c-2.914-12.769-8.99-22.851-18.23-30.243
		c-9.241-7.392-20.471-11.09-33.688-11.09c-18.26,0-33.074,6.553-44.442,19.658c-11.37,13.105-17.055,34.334-17.055,63.679
		c0,31.142,5.6,53.32,16.802,66.536c11.2,13.218,25.761,19.826,43.684,19.826c13.217,0,24.587-4.2,34.109-12.601
		C214.216,319.847,221.049,306.632,225.194,288.596z"/>
	<path style="fill:#C9E1F6;" d="M295.09,200.722h26.211V187.28c0-15.008,1.596-26.211,4.789-33.604
		c3.192-7.392,9.072-13.413,17.642-18.063c8.569-4.646,19.406-6.973,32.512-6.973c13.442,0,26.602,2.016,39.485,6.049l-6.385,32.932
		c-7.506-1.791-14.73-2.689-21.674-2.689c-6.834,0-11.736,1.596-14.702,4.788c-2.97,3.193-4.452,9.325-4.452,18.399v12.601h35.285
		v37.132h-35.285v141.305h-47.213V237.854h-26.211L295.09,200.722L295.09,200.722z"/>
</g>
<g>
</g>
<g>
</g>
<g>
</g>
<g>
</g>
<g>
</g>
<g>
</g>
<g>
</g>
<g>
</g>
<g>
</g>
<g>
</g>
<g>
</g>
<g>
</g>
<g>
</g>
<g>
</g>
<g>
</g>
</svg>
