<?xml version="1.0" encoding="iso-8859-1"?>
<!-- Generator: Adobe Illustrator 19.0.0, SVG Export Plug-In . SVG Version: 6.00 Build 0)  -->
<svg version="1.1" id="Capa_1" xmlns="http://www.w3.org/2000/svg" xmlns:xlink="http://www.w3.org/1999/xlink" x="0px" y="0px"
	 viewBox="0 0 512.007 512.007" style="enable-background:new 0 0 512.007 512.007;" xml:space="preserve">
<circle style="fill:#10004D;" cx="256.003" cy="256.003" r="256.003"/>
<path style="fill:#0A0030;" d="M427.269,162.291L256,60.723L84.731,162.291l78.356,46.467l-78.356,46.467l78,46.257L84.73,347.751
	l164.145,164.145c2.367,0.065,4.741,0.103,7.124,0.103c141.385,0,256-114.615,256-256c0-3.067-0.074-6.116-0.18-9.158
	L427.269,162.291z"/>
<g>
	<polygon style="fill:#FFFFFF;" points="427.269,347.738 410.599,337.852 239.355,439.434 256,449.305 	"/>
	<polygon style="fill:#FFFFFF;" points="388.546,324.891 371.877,315.005 200.632,416.587 217.277,426.459 	"/>
	<polygon style="fill:#FFFFFF;" points="272.645,256.056 255.976,246.17 84.731,347.752 101.377,357.623 	"/>
	<polygon style="fill:#FFFFFF;" points="308.27,276.821 291.601,266.936 120.356,368.518 137.002,378.389 	"/>
	<polygon style="fill:#FFFFFF;" points="161.178,393.072 177.824,402.944 349.092,301.377 332.423,291.491 	"/>
</g>
<polygon style="fill:#B087FF;" points="256,356.793 84.731,255.226 256,153.658 427.269,255.226 "/>
<polygon style="fill:#10004D;" points="256,263.858 84.731,162.291 256,60.723 427.269,162.291 "/>
<path id="SVGCleanerId_0" style="fill:#FFFFFF;" d="M256,73.329l150.012,88.962L256,251.252l-150.012-88.962L256,73.329 M256,60.723
	L84.731,162.291l171.268,101.567l171.268-101.567L256,60.723L256,60.723z"/>
<rect id="SVGCleanerId_1" x="250.581" y="69.1" style="fill:#FFFFFF;" width="10.844" height="186.124"/>
<rect id="SVGCleanerId_2" x="99.82" y="156.745" style="fill:#FFFFFF;" width="311.331" height="10.844"/>
<g>
	<polygon style="fill:#FFFFFF;" points="427.269,347.738 410.599,337.852 239.355,439.434 256,449.305 	"/>
	<polygon style="fill:#FFFFFF;" points="388.546,324.891 371.877,315.005 200.632,416.587 217.277,426.459 	"/>
	<polygon style="fill:#FFFFFF;" points="272.645,256.056 255.976,246.17 84.731,347.752 101.377,357.623 	"/>
	<polygon style="fill:#FFFFFF;" points="308.27,276.821 291.601,266.936 120.356,368.518 137.002,378.389 	"/>
	<polygon style="fill:#FFFFFF;" points="161.178,393.072 177.824,402.944 349.092,301.377 332.423,291.491 	"/>
</g>
<polygon style="fill:#B087FF;" points="256,356.793 84.731,255.226 256,153.658 427.269,255.226 "/>
<polygon style="fill:#10004D;" points="256,263.858 84.731,162.291 256,60.723 427.269,162.291 "/>
<g>
	<path id="SVGCleanerId_0_1_" style="fill:#FFFFFF;" d="M256,73.329l150.012,88.962L256,251.252l-150.012-88.962L256,73.329
		 M256,60.723L84.731,162.291l171.268,101.567l171.268-101.567L256,60.723L256,60.723z"/>
</g>
<g>
	<rect id="SVGCleanerId_1_1_" x="250.581" y="69.1" style="fill:#FFFFFF;" width="10.844" height="186.124"/>
</g>
<g>
	<rect id="SVGCleanerId_2_1_" x="99.82" y="156.745" style="fill:#FFFFFF;" width="311.331" height="10.844"/>
</g>
<g>
</g>
<g>
</g>
<g>
</g>
<g>
</g>
<g>
</g>
<g>
</g>
<g>
</g>
<g>
</g>
<g>
</g>
<g>
</g>
<g>
</g>
<g>
</g>
<g>
</g>
<g>
</g>
<g>
</g>
</svg>
