<?xml version="1.0" encoding="iso-8859-1"?>
<!-- Generator: Adobe Illustrator 19.0.0, SVG Export Plug-In . SVG Version: 6.00 Build 0)  -->
<svg version="1.1" id="Capa_1" xmlns="http://www.w3.org/2000/svg" xmlns:xlink="http://www.w3.org/1999/xlink" x="0px" y="0px"
	 viewBox="0 0 512 512" style="enable-background:new 0 0 512 512;" xml:space="preserve">
<circle style="fill:#C6C5CA;" cx="256" cy="256" r="256"/>
<path style="fill:#8A8A91;" d="M314.126,121.034c-47.398,0-89.083,24.437-113.161,61.396c-9.937-3.061-20.491-4.712-31.432-4.712
	c-58.887,0-106.625,47.738-106.625,106.625c0,29.028,11.606,55.341,30.423,74.568l-0.01,0.01l152.875,152.875
	c3.255,0.123,6.52,0.205,9.805,0.205c139.075,0,252.244-110.901,255.905-249.092L409.719,160.722l-0.002,0.002
	C385.281,136.207,351.476,121.034,314.126,121.034z"/>
<circle style="fill:#BF2717;" cx="314.122" cy="256" r="134.971"/>
<path style="fill:#FFFFFF;" d="M314.126,364.828c-60.007,0-108.827-48.82-108.827-108.828s48.82-108.828,108.827-108.828
	S422.952,195.993,422.952,256S374.133,364.828,314.126,364.828z M314.126,164.888c-50.239,0-91.112,40.873-91.112,91.112
	s40.873,91.112,91.112,91.112s91.112-40.873,91.112-91.112S364.365,164.888,314.126,164.888z"/>
<circle style="fill:#BF2717;" cx="169.531" cy="284.347" r="106.624"/>
<path style="fill:#FFFFFF;" d="M169.533,366.757c-45.444,0-82.415-36.972-82.415-82.416c0-45.443,36.971-82.415,82.415-82.415
	c22.014,0,42.71,8.573,58.276,24.141c13.34,13.34,38.977,42.114,40.062,43.333l-13.23,11.781
	c-0.263-0.295-26.382-29.611-39.358-42.588c-12.22-12.221-28.468-18.951-45.75-18.951c-35.676,0-64.7,29.024-64.7,64.7
	c0,35.677,29.024,64.701,64.7,64.701c23.747,0,45.548-12.977,56.897-33.867l15.567,8.456
	C227.546,350.233,199.778,366.757,169.533,366.757z"/>
<path style="fill:#BF2717;" d="M243.556,326.843l-24.029-14.157l-20.293,14.157c11.108,17.977,26.318,33.15,44.32,44.218
	L243.556,326.843L243.556,326.843z"/>
<path style="fill:#FFFFFF;" d="M314.126,364.828c-32.482,0-63.021-14.351-83.785-39.373c-2.091-2.52-35.496-40.819-48.191-55.364
	l13.346-11.648c1.87,2.142,45.817,52.495,48.477,55.7c17.387,20.954,42.957,32.97,70.153,32.97
	c50.239,0,91.112-40.873,91.112-91.112h17.714C422.952,316.007,374.133,364.828,314.126,364.828z"/>
<g>
</g>
<g>
</g>
<g>
</g>
<g>
</g>
<g>
</g>
<g>
</g>
<g>
</g>
<g>
</g>
<g>
</g>
<g>
</g>
<g>
</g>
<g>
</g>
<g>
</g>
<g>
</g>
<g>
</g>
</svg>
