<?xml version="1.0" encoding="iso-8859-1"?>
<!-- Generator: Adobe Illustrator 19.0.0, SVG Export Plug-In . SVG Version: 6.00 Build 0)  -->
<svg version="1.1" id="Capa_1" xmlns="http://www.w3.org/2000/svg" xmlns:xlink="http://www.w3.org/1999/xlink" x="0px" y="0px"
	 viewBox="0 0 512.007 512.007" style="enable-background:new 0 0 512.007 512.007;" xml:space="preserve">
<circle style="fill:#364D21;" cx="256.003" cy="256.003" r="256.003"/>
<path style="fill:#1D2B10;" d="M384.207,251.74L348.2,215.732h-33.168l-9.735,37.021l-37.021-37.021h-27.979L210.8,186.235
	c-7.507-7.914-16.523-13.422-27.049-16.523c-7.834-2.283-19.217-3.427-34.149-3.427H83.387v179.43L249.59,511.918
	c2.13,0.052,4.266,0.081,6.408,0.081c127.776,0,233.677-93.616,252.882-215.998l-80.269-80.269h-33.903L384.207,251.74z"/>
<g>
	<path style="fill:#8DC652;" d="M83.388,166.285h66.216c14.932,0,26.315,1.144,34.149,3.427c10.525,3.102,19.54,8.61,27.049,16.523
		c7.506,7.916,13.219,17.606,17.136,29.069c3.917,11.465,5.875,25.601,5.875,42.41c0,14.769-1.836,27.498-5.508,38.187
		c-4.489,13.056-10.893,23.623-19.216,31.7c-6.285,6.119-14.77,10.893-25.458,14.32c-7.997,2.531-18.686,3.795-32.067,3.795H83.388
		V166.285z M119.616,196.64v118.845h27.05c10.117,0,17.421-0.57,21.909-1.713c5.875-1.469,10.749-3.957,14.626-7.466
		c3.874-3.508,7.037-9.281,9.485-17.319c2.448-8.036,3.672-18.99,3.672-32.862c0-13.87-1.224-24.519-3.672-31.944
		c-2.448-7.424-5.875-13.219-10.281-17.38c-4.407-4.161-9.997-6.976-16.769-8.445c-5.061-1.142-14.974-1.713-29.741-1.713
		L119.616,196.64L119.616,196.64z"/>
	<path style="fill:#8DC652;" d="M275.987,345.716l-41.125-129.982h33.414l24.356,85.187l22.399-85.187H348.2l21.665,85.187
		l24.845-85.187h33.903l-41.736,129.982h-33.046l-22.399-83.596l-22.031,83.596H275.987z"/>
</g>
<g>
</g>
<g>
</g>
<g>
</g>
<g>
</g>
<g>
</g>
<g>
</g>
<g>
</g>
<g>
</g>
<g>
</g>
<g>
</g>
<g>
</g>
<g>
</g>
<g>
</g>
<g>
</g>
<g>
</g>
</svg>
