<?xml version="1.0" encoding="iso-8859-1"?>
<!-- Generator: Adobe Illustrator 19.0.0, SVG Export Plug-In . SVG Version: 6.00 Build 0)  -->
<svg version="1.1" id="Capa_1" xmlns="http://www.w3.org/2000/svg" xmlns:xlink="http://www.w3.org/1999/xlink" x="0px" y="0px"
	 viewBox="0 0 512.001 512.001" style="enable-background:new 0 0 512.001 512.001;" xml:space="preserve">
<circle style="fill:#592B49;" cx="255.997" cy="255.997" r="255.997"/>
<path style="fill:#291221;" d="M511.444,239.305l-87.958-87.958h-39.471v74.17c-12.175-13.859-26.599-20.789-43.267-20.789
	c-4.369,0-8.552,0.391-12.557,1.151l-54.532-54.532h-48.183l-31.022,50.734l-50.734-50.734H95.117l63.774,98.473L88.515,357.282
	L242.904,511.67c4.339,0.219,8.705,0.331,13.097,0.331c141.385,0,255.999-114.616,255.999-256
	C512,250.389,511.799,244.826,511.444,239.305z"/>
<g>
	<path style="fill:#DA2286;" d="M88.515,357.282l70.377-107.462l-63.774-98.473h48.603l41.3,66.162l40.456-66.162h48.183
		l-64.057,100.017l70.377,105.917h-50.149l-45.654-71.221l-45.795,71.221L88.515,357.282L88.515,357.282z"/>
	<path style="fill:#DA2286;" d="M423.486,357.282h-36.664v-21.914c-6.088,8.522-13.274,14.867-21.562,19.033
		c-8.288,4.166-16.646,6.252-25.074,6.252c-17.137,0-31.817-6.905-44.039-20.72c-12.221-13.813-18.331-33.081-18.331-57.804
		c0-25.286,5.947-44.506,17.839-57.664c11.893-13.156,26.923-19.737,45.093-19.737c16.667,0,31.09,6.932,43.267,20.789v-74.17
		h39.472V357.282z M318.131,279.459c0,15.922,2.2,27.441,6.603,34.556c6.367,10.304,15.263,15.453,26.689,15.453
		c9.083,0,16.809-3.863,23.178-11.589c6.367-7.726,9.553-19.267,9.553-34.627c0-17.138-3.091-29.475-9.271-37.015
		c-6.181-7.537-14.095-11.308-23.74-11.308c-9.366,0-17.207,3.723-23.529,11.168C321.292,253.542,318.131,264.664,318.131,279.459z"
		/>
</g>
<g>
</g>
<g>
</g>
<g>
</g>
<g>
</g>
<g>
</g>
<g>
</g>
<g>
</g>
<g>
</g>
<g>
</g>
<g>
</g>
<g>
</g>
<g>
</g>
<g>
</g>
<g>
</g>
<g>
</g>
</svg>
