<?xml version="1.0" encoding="iso-8859-1"?>
<!-- Generator: Adobe Illustrator 19.0.0, SVG Export Plug-In . SVG Version: 6.00 Build 0)  -->
<svg version="1.1" id="Capa_1" xmlns="http://www.w3.org/2000/svg" xmlns:xlink="http://www.w3.org/1999/xlink" x="0px" y="0px"
	 viewBox="0 0 512.007 512.007" style="enable-background:new 0 0 512.007 512.007;" xml:space="preserve">
<circle style="fill:#C6C5CA;" cx="256.003" cy="256.003" r="256.003"/>
<path style="fill:#8A8A91;" d="M249.326,185.957l10.882,10.882l-10.405,0.005l18.732,32.408l-27.406-27.406l-1.218,2.103
	l-7.967-7.967l-76.849-0.103l-34.649,59.828l34.489,59.921l182.983,182.983c95.816-32.341,166.219-119.853,173.451-224.744
	L356.855,119.352l-69.137,0.034L249.326,185.957z"/>
<g>
	<polygon style="fill:#4D3D32;" points="343.495,261.181 281.116,261.154 249.903,315.163 312.283,315.19 	"/>
	<polygon style="fill:#4D3D32;" points="318.564,326.079 249.427,326.05 287.822,392.618 356.96,392.648 391.554,332.789 
		353.158,266.22 	"/>
	<polygon style="fill:#4D3D32;" points="249.803,196.844 281.019,250.851 343.398,250.82 312.182,196.813 	"/>
	<polygon style="fill:#4D3D32;" points="318.463,185.923 353.061,245.781 391.452,179.209 356.855,119.352 287.717,119.385 
		249.326,185.957 	"/>
	<polygon style="fill:#4D3D32;" points="241.129,201.847 272.246,255.91 240.984,309.891 209.866,255.827 	"/>
	<polygon style="fill:#4D3D32;" points="197.296,255.81 231.784,315.731 154.935,315.627 120.447,255.708 155.096,195.88 
		231.944,195.983 	"/>
</g>
<g>
</g>
<g>
</g>
<g>
</g>
<g>
</g>
<g>
</g>
<g>
</g>
<g>
</g>
<g>
</g>
<g>
</g>
<g>
</g>
<g>
</g>
<g>
</g>
<g>
</g>
<g>
</g>
<g>
</g>
</svg>
