<?xml version="1.0" encoding="iso-8859-1"?>
<!-- Generator: Adobe Illustrator 19.0.0, SVG Export Plug-In . SVG Version: 6.00 Build 0)  -->
<svg version="1.1" id="Capa_1" xmlns="http://www.w3.org/2000/svg" xmlns:xlink="http://www.w3.org/1999/xlink" x="0px" y="0px"
	 viewBox="0 0 512.007 512.007" style="enable-background:new 0 0 512.007 512.007;" xml:space="preserve">
<circle style="fill:#C6C5CA;" cx="256.003" cy="256.003" r="256.003"/>
<g>
	<path style="fill:#8A8A91;" d="M243.88,64.832c-1.519,1.519-73.043,73.043-109.276,109.276c-10.87,10.87-18.566,18.566-20.24,20.24
		l9.453,9.453c-8.025-2.59-17.179-0.703-23.553,5.671c-9.97,9.97-9.97,26.136,0,36.107
		C266.487,411.81,270.488,415.715,271.18,416.656c5.935,7.107,6.823,10.514,7.054,15.025l65.047,65.047
		c86.318-31.304,151.007-107.705,165.603-200.734L277.723,64.832C268.393,55.501,253.21,55.501,243.88,64.832z"/>
	<path style="fill:#8A8A91;" d="M224.772,445.64l64.245,64.245c17.179-2.212,33.823-6.129,49.76-11.572l-75.694-75.694l-7.646-7.646
		l-19.75-19.75l-10.916,10.916C213.882,417.03,213.882,434.75,224.772,445.64z"/>
</g>
<g>
	<path style="fill:#4D3D32;" d="M224.772,445.64c10.89,10.89,28.611,10.89,39.501,0c3.809-3.809,5.092-9.468,3.299-14.549
		c-1.052-2.979-2.547-5.837-4.488-8.473l-27.397-27.397l-10.916,10.916C213.882,417.03,213.882,434.75,224.772,445.64z"/>
	<path style="fill:#4D3D32;" d="M133.084,209.471c-0.002-0.002-0.004-0.004-0.007-0.007c-9.065-9.06-23.752-9.056-32.814,0.007
		l-0.002,0.002c-9.971,9.971-9.969,26.133,0.002,36.104C266.486,411.808,270.487,415.713,271.18,416.654
		c5.935,7.107,6.823,10.514,7.054,15.025c5.535-5.535,95.985-95.985,135.339-135.339c9.969-9.969,9.972-26.135,0.003-36.104
		c-19.687-19.687-60.054-60.054-141.596-141.596c0,0,144.266,144.266,0,0L137.516,253.104
		C146.42,239.638,144.943,221.329,133.084,209.471z"/>
	<path style="fill:#4D3D32;" d="M277.723,64.832c-9.33-9.33-24.513-9.33-33.843,0c-1.975,1.975-122.264,122.264-129.516,129.516
		c0,0,8.437-3.279,17.455,1.467c2.993,1.817,5.818,3.987,8.376,6.545c6.155,6.155,10.186,13.783,11.989,21.854L277.723,98.676
		C287.054,89.344,287.054,74.163,277.723,64.832z"/>
</g>
<g>
</g>
<g>
</g>
<g>
</g>
<g>
</g>
<g>
</g>
<g>
</g>
<g>
</g>
<g>
</g>
<g>
</g>
<g>
</g>
<g>
</g>
<g>
</g>
<g>
</g>
<g>
</g>
<g>
</g>
</svg>
