<?xml version="1.0" encoding="iso-8859-1"?>
<!-- Generator: Adobe Illustrator 19.0.0, SVG Export Plug-In . SVG Version: 6.00 Build 0)  -->
<svg version="1.1" id="Capa_1" xmlns="http://www.w3.org/2000/svg" xmlns:xlink="http://www.w3.org/1999/xlink" x="0px" y="0px"
	 viewBox="0 0 511.999 511.999" style="enable-background:new 0 0 511.999 511.999;" xml:space="preserve">
<circle style="fill:#270B61;" cx="255.999" cy="255.997" r="255.997"/>
<path style="fill:#17043E;" d="M107.742,346.627L107.742,346.627l29.347,29.347h-18.034c-3.115,0-5.642,2.525-5.642,5.642
	c0,1.559,0.632,2.969,1.653,3.99l0,0l125.945,125.945c4.961,0.286,9.957,0.448,14.991,0.448
	c124.184,0,227.702-88.428,251.056-205.748L359.723,158.917l-32.135-32.135l-32.135-32.135L127.909,262.191L107.742,346.627z"/>
<path style="fill:#FFFFFF;" d="M311.461,389.712c-6.459,0-16.378-1.563-23.837-9.787c-3.208-3.537-5.565-7.857-7.068-12.945
	c-2.529,1.344-4.861,2.534-6.912,3.55c-29.76,14.739-64.927,16.726-95.404,16.726h-59.185c-3.115,0-5.642-2.525-5.642-5.642
	c0-3.116,2.526-5.642,5.642-5.642h59.185c29.17,0,62.721-1.848,90.397-15.554c3.475-1.721,6.817-3.464,10.02-5.221
	c-0.424-8.425,0.753-18.267,3.541-29.478c8.477-34.104,27.318-35.572,32.88-35.217c10.331,0.668,18.972,8.562,20.096,18.361
	c2.336,20.357-23.429,39.967-44.422,52.397c0.966,4.587,2.711,8.308,5.228,11.085c6.433,7.091,16.357,6.252,19.242,5.827
	c11.035-1.627,33.203-22.217,44.582-34.813c1.84-2.04,4.886-2.452,7.2-0.984c2.321,1.469,3.247,4.397,2.192,6.933
	c-5.278,12.708-6.703,25.339-4.167,26.765c5.335,2.999,19.943-6.229,29.456-16.474c2.117-2.282,5.689-2.417,7.972-0.296
	c2.284,2.119,2.417,5.689,0.295,7.972c-1.069,1.151-26.395,28.12-43.255,18.63c-6.45-3.627-7.588-11.494-6.679-19.531
	c-10.839,10.013-25.196,21.374-35.954,22.959C315.722,389.503,313.821,389.712,311.461,389.712z M313.604,301.739
	c-8.672,0-16.28,9.895-20.458,26.703c-1.857,7.475-2.927,14.216-3.214,20.15c22.316-13.999,35.205-28.215,34.031-38.442
	c-0.503-4.387-4.727-8.071-9.616-8.387C314.098,301.746,313.852,301.739,313.604,301.739z"/>
<polygon style="fill:#B48BFF;" points="192.179,326.46 107.742,346.627 127.909,262.191 295.454,94.647 359.723,158.917 "/>
<g>
</g>
<g>
</g>
<g>
</g>
<g>
</g>
<g>
</g>
<g>
</g>
<g>
</g>
<g>
</g>
<g>
</g>
<g>
</g>
<g>
</g>
<g>
</g>
<g>
</g>
<g>
</g>
<g>
</g>
</svg>
