<?xml version="1.0" encoding="iso-8859-1"?>
<!-- Generator: Adobe Illustrator 19.0.0, SVG Export Plug-In . SVG Version: 6.00 Build 0)  -->
<svg version="1.1" id="Capa_1" xmlns="http://www.w3.org/2000/svg" xmlns:xlink="http://www.w3.org/1999/xlink" x="0px" y="0px"
	 viewBox="0 0 512 512" style="enable-background:new 0 0 512 512;" xml:space="preserve">
<circle style="fill:#57565C;" cx="256" cy="256" r="256"/>
<path style="fill:#3E3E42;" d="M363.915,201.867l-58.297-58.297h-42.406v19.256l-19.256-19.256H92.291v221.236l146.611,146.611
	C244.555,511.791,250.253,512,256,512c117.753,0,216.922-79.509,246.789-187.766L396.298,217.743l-0.042,0.042
	C387.043,209.193,376.263,203.888,363.915,201.867z"/>
<g>
	<path style="fill:#ACACB2;" d="M92.291,364.807V143.571h151.665v37.425H136.96v52.366h92.358v37.426H136.96v94.018H92.291z"/>
	<path style="fill:#ACACB2;" d="M263.213,364.807V143.571h42.405v79.681c13.078-14.889,28.572-22.334,46.481-22.334
		c19.517,0,35.665,7.069,48.442,21.203c12.775,14.136,19.166,34.433,19.166,60.892c0,27.367-6.515,48.442-19.543,63.232
		c-13.031,14.789-28.85,22.184-47.462,22.184c-9.156,0-18.185-2.29-27.089-6.867c-8.905-4.577-16.578-11.342-23.014-20.297v23.542
		H263.213z M305.317,281.202c0,16.6,2.615,28.877,7.847,36.823c7.343,11.269,17.104,16.902,29.277,16.902
		c9.357,0,17.33-3.999,23.92-11.997c6.588-7.998,9.885-20.6,9.885-37.803c0-18.309-3.32-31.515-9.96-39.614
		c-6.64-8.097-15.144-12.149-25.504-12.149c-10.163,0-18.615,3.95-25.353,11.846C308.687,253.109,305.317,265.106,305.317,281.202z"
		/>
</g>
<g>
</g>
<g>
</g>
<g>
</g>
<g>
</g>
<g>
</g>
<g>
</g>
<g>
</g>
<g>
</g>
<g>
</g>
<g>
</g>
<g>
</g>
<g>
</g>
<g>
</g>
<g>
</g>
<g>
</g>
</svg>
