<svg id="Capa_1" enable-background="new 0 0 24 24" height="512" viewBox="0 0 24 24" width="512" xmlns="http://www.w3.org/2000/svg"><g id="guide" display="none" fill="#39cef7"><path d="m21.5 21h-19c-1.381 0-2.5-1.119-2.5-2.5v-13c0-1.381 1.119-2.5 2.5-2.5h19c1.381 0 2.5 1.119 2.5 2.5v13c0 1.381-1.119 2.5-2.5 2.5z" display="inline" opacity=".25"/><path d="m18.5 24h-13c-1.381 0-2.5-1.119-2.5-2.5v-19c0-1.381 1.119-2.5 2.5-2.5h13c1.381 0 2.5 1.119 2.5 2.5v19c0 1.381-1.119 2.5-2.5 2.5z" display="inline" opacity=".25"/></g><path d="m12 0-9.75 24h19.5z" fill="#4caf50"/><path d="m17.063 16.925c-.187-.372-.64-.524-1.006-.333l-2.557 1.287v-.752c.144 0 .287-.04.415-.126l1.44-.96c.345-.229.438-.696.209-1.039-.232-.347-.699-.437-1.04-.209l-1.024.683v-1.978h-3v3.767l-1.387-1.399c-.292-.294-.767-.297-1.061-.006s-.296.768-.005 1.061c1.855 1.776 1.916 2.158 2.453 2.172v4.907h3v-4.53c.114 0 .23-.023.336-.079l2.895-1.457-.001-.002c.371-.186.519-.637.333-1.007z" fill="#fafafa"/></svg>