<?xml version="1.0" encoding="iso-8859-1"?>
<!-- Generator: Adobe Illustrator 19.0.0, SVG Export Plug-In . SVG Version: 6.00 Build 0)  -->
<svg version="1.1" id="Capa_1" xmlns="http://www.w3.org/2000/svg" xmlns:xlink="http://www.w3.org/1999/xlink" x="0px" y="0px"
	 viewBox="0 0 512 512" style="enable-background:new 0 0 512 512;" xml:space="preserve">
<circle style="fill:#5E3C16;" cx="256" cy="256" r="256"/>
<path style="fill:#452C10;" d="M377.708,213.239c-10.28-6.883-25.987-10.326-47.124-10.326c-7.242,0-13.855,0.494-19.858,1.464
	l-56.732-56.732H107.822v213.221L258.92,511.963c112.884-1.263,208.213-75.576,240.942-177.898L380.833,215.037l-0.277,0.277
	C379.633,214.595,378.69,213.897,377.708,213.239z"/>
<g>
	<path style="fill:#DF871E;" d="M107.821,360.865V147.644h146.171v36.07H150.872v50.47h89.012v36.07h-89.012v90.612L107.821,360.865
		L107.821,360.865z"/>
	<path style="fill:#DF871E;" d="M259.897,316.796l41.015-6.255c1.746,7.952,5.284,13.988,10.618,18.108
		c5.332,4.122,12.799,6.181,22.399,6.181c10.567,0,18.519-1.938,23.852-5.818c3.586-2.713,5.382-6.35,5.382-10.908
		c0-3.103-0.971-5.673-2.909-7.709c-2.037-1.938-6.595-3.731-13.672-5.382c-32.969-7.272-53.865-13.913-62.686-19.926
		c-12.217-8.338-18.326-19.926-18.326-34.761c0-13.381,5.284-24.628,15.854-33.744c10.567-9.113,26.955-13.672,49.16-13.672
		c21.137,0,36.845,3.443,47.124,10.326c10.277,6.886,17.356,17.067,21.235,30.543l-38.543,7.126
		c-1.65-6.012-4.777-10.618-9.381-13.817c-4.607-3.2-11.177-4.8-19.707-4.8c-10.763,0-18.472,1.504-23.126,4.509
		c-3.105,2.134-4.653,4.898-4.653,8.291c0,2.909,1.357,5.381,4.072,7.417c3.684,2.716,16.411,6.545,38.179,11.49
		c21.767,4.945,36.966,11.006,45.597,18.181c8.531,7.272,12.799,17.405,12.799,30.398c0,14.158-5.916,26.326-17.744,36.507
		c-11.831,10.181-29.332,15.272-52.506,15.272c-21.041,0-37.695-4.266-49.96-12.799
		C271.701,343.025,263.679,331.438,259.897,316.796z"/>
</g>
<g>
</g>
<g>
</g>
<g>
</g>
<g>
</g>
<g>
</g>
<g>
</g>
<g>
</g>
<g>
</g>
<g>
</g>
<g>
</g>
<g>
</g>
<g>
</g>
<g>
</g>
<g>
</g>
<g>
</g>
</svg>
