<svg enable-background="new 0 0 24 24" height="512" viewBox="0 0 24 24" width="512" xmlns="http://www.w3.org/2000/svg"><g fill="#00b460"><path id="Shape_35_" d="m4.886 15.261c1.532-1.314 3.46-1.08 4.357.216.042.059.065.073.111.002 1.154-1.696 4.024-1.357 4.357.471.044.252.065.509.065.769.008 4.29.078 4.048-.136 4.048-2.304-.015-2.219.065-2.219-.125.016-3.475.013-3.426-.076-3.814-.231-.97-1.819-1.067-1.995.448-.112.99.124 3.491-.132 3.491-2.336-.015-2.244.064-2.244-.123.008-3.561.013-3.45-.046-3.748-.204-1.041-2.015-1.134-2.03.43-.031 3.635.077 3.443-.152 3.439-2.299-.015-2.21.063-2.21-.121.008-6.645-.066-6.159.125-6.154 2.685.017 2.225-.27 2.225.771z"/><path id="Shape_34_" d="m17.656 18.04c-.134 0-.145.014-.127.146.077.532.188.981.81 1.171 1.288.395 1.601-.503 1.842-.503 2.229.007 2.183-.064 2.117.125-.739 2.15-3.504 2.328-5.022 1.76-2.285-.853-2.61-3.398-1.605-4.96 1.522-2.374 6.819-2.149 6.747 2.179 0 .091-.055.082-.113.082-.106 0-4.819 0-4.649 0zm2.561-1.328c-.406-1.493-2.341-1.232-2.611-.023-.018.084.005.096.079.093 2.708 0 2.561.037 2.532-.07z"/><path id="Shape_33_" d="m23.706 4.806c-.45-.534-1.515-.666-2.173-.362-.682.313.3-.245-4.355 3.025-.757.648-.716 1.324-.286 1.758.653.655 1.808.66 2.357.33.842-.504 4.423-3.189 4.528-3.266.162-.221.441-.876-.071-1.485z"/><path id="Shape_32_" d="m7.105 9.127c.426-.429.476-1.1-.286-1.758-4.604-3.235-3.677-2.714-4.353-3.025-.658-.305-1.72-.173-2.17.362-.515.609-.236 1.264-.072 1.483.104.076 3.663 2.752 4.526 3.268.547.329 1.701.325 2.355-.33z"/><path id="Shape_26_" d="m12.027 8.39c.843 0 1.549-.378 1.75-1.078.069-.258.028-.282.058-2.825 0-.02.002-.043.002-.064.001-.97-.794-1.423-1.793-1.423-.993 0-1.799.525-1.808 1.487.007 2.685-.025 2.598.028 2.845.17.728.895 1.058 1.763 1.058z"/><path id="Shape_25_" d="m17.236 10.291c-1.339-.657-3.11-1.069-5.421-1.069-3.872 0-6.469 1.203-7.788 2.954h.021l-.005.007 15.585-.002c-.57-.725-1.35-1.38-2.392-1.89z"/></g></svg>