<svg enable-background="new 0 0 24 24" height="512" viewBox="0 0 24 24" width="512" xmlns="http://www.w3.org/2000/svg"><g stroke-width=".094"><path d="m12.005.081c.103.059 5.832 5.866 5.932 5.968-.681.673-4.658 4.67-4.956 4.982-.335-.813-.656-1.63-.976-2.447 0-5.03-.013-5.839 0-8.503z" fill="#dd4b39" stroke="#dd4b39"/><path d="m6.049 6.03h5.956c.005.855 0 1.704 0 2.554-.33.803-.651 1.611-.967 2.424-.111-.061-3.962-3.942-4.989-4.978z" fill="#ef851c" stroke="#ef851c"/><path d="m17.937 6.049.019-.014c-.005 1.989-.005 3.983 0 5.972h-2.562c-.8-.336-1.609-.644-2.413-.976.275-.287 4.096-4.132 4.956-4.982z" fill="#7e3794" stroke="#7e3794"/><path d="m5.078 7.034c.335-.322.646-.668.99-.985 5.264 5.302 4.869 4.904 4.97 4.959-.069.051-1.858.753-2.432 1.004-.851-.009-1.702-.005-2.552-.005-1.981-.005-3.961.009-5.942-.005 1.651-1.662 3.31-3.315 4.966-4.968z" fill="#ffbb1b" stroke="#ffbb1b"/><path d="m6.054 12.007c.851 0 1.702-.005 2.552.005.804.332 1.609.644 2.413.971-.213.217-4.649 4.706-4.97 4.978 0-1.985-.004-3.969.005-5.954z" fill="#1a8763" stroke="#1a8763"/><path d="m15.394 12.007h2.562c1.976.005 3.957-.005 5.932.005-1.004 1.023-5.709 5.743-5.942 5.972-.118-.12-4.839-4.892-4.984-4.978.132-.082 1.485-.6 2.432-.999z" fill="#427fed" stroke="#427fed"/><path d="m11.019 12.983c.339.812.646 1.634.986 2.447-.005.85 0 1.704-.005 2.554 0 .101.004 5.596-.009 5.94-.121-.058.092.097-5.942-5.963.322-.272 4.763-4.767 4.97-4.978z" fill="#65b045" stroke="#65b045"/><path d="m12.963 13.006c.146.086 4.869 4.861 4.984 4.978-1.985-.005-3.966.005-5.946 0 .005-.85 0-1.704.005-2.554.31-.808.645-1.611.957-2.424z" fill="#43459d" stroke="#43459d"/></g></svg>