<?xml version="1.0" encoding="iso-8859-1"?>
<!-- Generator: Adobe Illustrator 19.0.0, SVG Export Plug-In . SVG Version: 6.00 Build 0)  -->
<svg version="1.1" id="Capa_1" xmlns="http://www.w3.org/2000/svg" xmlns:xlink="http://www.w3.org/1999/xlink" x="0px" y="0px"
	 viewBox="0 0 512 512" style="enable-background:new 0 0 512 512;" xml:space="preserve">
<circle style="fill:#421600;" cx="255.997" cy="256" r="255.997"/>
<path style="fill:#290E00;" d="M512,256.003c0-5.66-0.204-11.272-0.566-16.841l-97.235-97.235c-0.427-0.725-1.025-1.362-1.809-1.809
	c-2.395-1.364-5.441-0.528-6.805,1.867l-44.357,77.891l-75.422-75.422h-49.271c-6.462,30.384-20.773,54.193-42.106,72.162
	l-69.962-69.962c-0.751-0.91-1.578-1.724-2.459-2.459l-0.089-0.089l-0.006,0.006c-6.298-5.176-15.483-5.837-22.556-1.01
	c-8.59,5.861-10.803,17.575-4.941,26.165l162.76,238.555c0.454,0.672,0.989,1.189,1.569,1.569l86.581,86.581
	C442.663,459.724,512,365.967,512,256.003z"/>
<path style="fill:#FDF7D0;" d="M412.392,140.119c-2.395-1.364-5.441-0.528-6.805,1.867L261.501,395.002
	c-142.861-259.646-135.189-245.8-135.978-246.958c-5.861-8.59-17.575-10.802-26.165-4.942c-8.59,5.86-10.803,17.575-4.941,26.165
	l162.76,238.556c2.35,3.478,6.858,2.894,8.587-0.143l148.493-260.755C415.622,144.529,414.786,141.483,412.392,140.119z"/>
<path style="fill:#FF8400;" d="M255.248,258.279c-8.156-2.625-13.952-10.512-13.369-19.667c0.618-9.698,8.642-17.584,18.348-18.046
	c11.108-0.529,20.28,8.32,20.28,19.312c0,8.61-5.632,15.898-13.409,18.4v79.919l64.094-118.901l-0.001-0.001
	c-23.109-18.224-38.583-42.87-45.382-74.841h-49.271c-6.788,31.916-22.231,56.584-45.383,74.842l0,0l64.094,118.901V258.279z"/>
<g>
</g>
<g>
</g>
<g>
</g>
<g>
</g>
<g>
</g>
<g>
</g>
<g>
</g>
<g>
</g>
<g>
</g>
<g>
</g>
<g>
</g>
<g>
</g>
<g>
</g>
<g>
</g>
<g>
</g>
</svg>
