<?xml version="1.0" encoding="iso-8859-1"?>
<!-- Generator: Adobe Illustrator 19.0.0, SVG Export Plug-In . SVG Version: 6.00 Build 0)  -->
<svg version="1.1" id="Capa_1" xmlns="http://www.w3.org/2000/svg" xmlns:xlink="http://www.w3.org/1999/xlink" x="0px" y="0px"
	 viewBox="0 0 512 512" style="enable-background:new 0 0 512 512;" xml:space="preserve">
<circle style="fill:#5E3C16;" cx="256" cy="256" r="256"/>
<path style="fill:#472E11;" d="M511.222,235.949L407.631,132.358H360.41v43.693l24.199,24.199H360.41v39.592L252.925,132.358h-52.6
	l-95.956,246.361l132.576,132.577C243.237,511.757,249.59,512,256,512c141.385,0,256-114.615,256-256
	C512,249.251,511.735,242.566,511.222,235.949z"/>
<g>
	<path style="fill:#DF871E;" d="M351.57,378.719h-54.112l-21.51-55.961h-98.477l-20.334,55.961h-52.768l95.956-246.361h52.599
		L351.57,378.719z M259.983,281.249l-33.946-91.419l-33.274,91.419H259.983z"/>
	<path style="fill:#DF871E;" d="M360.41,176.051v-43.693h47.221v43.693H360.41z M360.41,378.719V200.25h47.221v178.468H360.41z"/>
</g>
<g>
</g>
<g>
</g>
<g>
</g>
<g>
</g>
<g>
</g>
<g>
</g>
<g>
</g>
<g>
</g>
<g>
</g>
<g>
</g>
<g>
</g>
<g>
</g>
<g>
</g>
<g>
</g>
<g>
</g>
</svg>
