<?xml version="1.0" encoding="iso-8859-1"?>
<!-- Generator: Adobe Illustrator 19.0.0, SVG Export Plug-In . SVG Version: 6.00 Build 0)  -->
<svg version="1.1" id="Capa_1" xmlns="http://www.w3.org/2000/svg" xmlns:xlink="http://www.w3.org/1999/xlink" x="0px" y="0px"
	 viewBox="0 0 512 512" style="enable-background:new 0 0 512 512;" xml:space="preserve">
<circle style="fill:#651378;" cx="256" cy="255.997" r="255.997"/>
<path style="fill:#490E57;" d="M357.114,202.124c-14.611-10.653-34.292-15.981-59.044-15.981c-15.205,0-28.827,2.366-40.871,7.091
	l-79.82-79.82h-56.652v280.579l117.374,117.374c5.916,0.409,11.882,0.632,17.902,0.633c111.494,0,206.322-71.282,241.443-170.754
	L361.915,205.715l-0.139,0.139C360.27,204.546,358.721,203.296,357.114,202.124z"/>
<g>
	<path style="fill:#B622D8;" d="M120.728,393.993V113.413h56.652v280.579L120.728,393.993L120.728,393.993z"/>
	<path style="fill:#B622D8;" d="M388.599,250.833l-53.016,9.57c-1.789-10.59-5.837-18.566-12.153-23.924
		c-6.315-5.359-14.516-8.039-24.594-8.039c-13.397,0-24.085,4.627-32.057,13.876c-7.975,9.252-11.962,24.721-11.962,46.412
		c0,24.116,4.049,41.149,12.153,51.101c8.101,9.953,18.978,14.929,32.632,14.929c10.207,0,18.565-2.901,25.073-8.709
		c6.507-5.805,11.1-15.79,13.78-29.953l52.824,8.996c-5.487,24.244-16.014,42.555-31.579,54.929
		c-15.569,12.377-36.43,18.565-62.585,18.565c-29.732,0-53.432-9.378-71.101-28.135c-17.675-18.756-26.507-44.72-26.507-77.896
		c0-33.556,8.867-59.681,26.603-78.374c17.734-18.691,41.723-28.038,71.963-28.038c24.752,0,44.433,5.329,59.044,15.981
		C371.723,212.778,382.217,229.013,388.599,250.833z"/>
</g>
<g>
</g>
<g>
</g>
<g>
</g>
<g>
</g>
<g>
</g>
<g>
</g>
<g>
</g>
<g>
</g>
<g>
</g>
<g>
</g>
<g>
</g>
<g>
</g>
<g>
</g>
<g>
</g>
<g>
</g>
</svg>
