<?xml version="1.0" encoding="iso-8859-1"?>
<!-- Generator: Adobe Illustrator 19.0.0, SVG Export Plug-In . SVG Version: 6.00 Build 0)  -->
<svg version="1.1" id="Capa_1" xmlns="http://www.w3.org/2000/svg" xmlns:xlink="http://www.w3.org/1999/xlink" x="0px" y="0px"
	 viewBox="0 0 512 512" style="enable-background:new 0 0 512 512;" xml:space="preserve">
<circle style="fill:#4F3030;" cx="256" cy="256" r="256"/>
<path style="fill:#241616;" d="M233.603,511.014C240.986,511.654,248.451,512,256,512c141.385,0,256-114.615,256-256
	c0-8.375-0.415-16.653-1.202-24.822l-116.42-116.42h-53.721v100.944c-16.571-18.861-36.201-28.294-58.885-28.294
	c-10.75,0-20.691,1.697-29.827,5.081l-77.732-77.732h-56.591v280.274L233.603,511.014z"/>
<g>
	<path style="fill:#DF3A5C;" d="M117.622,395.032V114.758h56.591v280.274H117.622z"/>
	<path style="fill:#DF3A5C;" d="M394.378,395.032h-49.9v-29.824c-16.764,23.464-40.861,34.412-63.472,34.412
		c-23.325,0-43.304-9.398-59.937-28.2c-16.631-18.799-24.948-45.023-24.948-78.672c0-34.412,8.092-60.571,24.279-78.479
		c16.184-17.905,36.643-26.861,61.37-26.861c22.684,0,42.314,9.433,58.885,28.294V114.758h53.722V395.032z M250.991,289.116
		c0,21.669,2.994,37.346,8.985,47.031c8.665,14.023,20.775,21.031,36.325,21.031c12.36,0,22.876-5.257,31.544-15.773
		c8.668-10.515,13.001-26.222,13.001-47.127c0-23.324-4.206-40.115-12.617-50.377c-8.411-10.258-19.183-15.391-32.309-15.391
		c-12.747,0-23.422,5.067-32.025,15.2C255.293,253.844,250.991,268.98,250.991,289.116z"/>
</g>
<g>
</g>
<g>
</g>
<g>
</g>
<g>
</g>
<g>
</g>
<g>
</g>
<g>
</g>
<g>
</g>
<g>
</g>
<g>
</g>
<g>
</g>
<g>
</g>
<g>
</g>
<g>
</g>
<g>
</g>
</svg>
