<svg enable-background="new 0 0 24 24" height="512" viewBox="0 0 24 24" width="512" xmlns="http://www.w3.org/2000/svg"><path d="m7.218 19.5c2.171 0 4.206-.999 5.583-2.744.039-.051.05-.12.024-.18-.59-1.357-.958-2.683-1.212-2.193-.86 1.706-2.544 2.764-4.395 2.764-2.731 0-4.953-2.308-4.953-5.148s2.222-5.148 4.953-5.148c7.236 0 4.596 12.534 11.9 12.562 2.784 0 4.882-1.917 4.882-4.458 0-2.548-1.357-3.505-3.702-4.3h.004c-1.765-.583-3.005-.822-3.005-2.192 0-.98.727-1.689 1.729-1.689.768 0 1.341.332 1.854 1.079.048.069.139.095.213.054l1.508-.8c.04-.021.072-.058.084-.105s.008-.094-.014-.137c-.808-1.491-1.972-2.216-3.561-2.216-2.416 0-3.98 1.52-3.98 3.87 0 4.881 6.628 3.525 6.628 6.378 0 1.342-1.165 2.307-2.756 2.25-1.666-.058-2.17-.975-2.805-2.478-2.215-5.247-3.24-10.169-8.979-10.169-3.979 0-7.218 3.365-7.218 7.502 0 4.134 3.238 7.498 7.218 7.498z" fill="#ff7043"/></svg>