<?xml version="1.0" encoding="iso-8859-1"?>
<!-- Generator: Adobe Illustrator 19.0.0, SVG Export Plug-In . SVG Version: 6.00 Build 0)  -->
<svg version="1.1" id="Capa_1" xmlns="http://www.w3.org/2000/svg" xmlns:xlink="http://www.w3.org/1999/xlink" x="0px" y="0px"
	 viewBox="0 0 512 512" style="enable-background:new 0 0 512 512;" xml:space="preserve">
<circle style="fill:#423966;" cx="256" cy="255.997" r="255.997"/>
<path style="fill:#2C2547;" d="M339.155,145.196h-27.717v27.717l-27.717-27.717h-27.717v27.535h-0.173l-55.262-55.261h-27.717
	v27.717l-27.718-27.717h-27.717c0,13.471,0,266.548,0,277.059l116.513,116.513c7.277,0.622,14.636,0.958,22.075,0.958
	c122.181,0,224.354-85.6,249.86-200.095L394.59,200.631v-0.087h-0.087L339.155,145.196z"/>
<g>
	<rect x="172.853" y="117.47" style="fill:#A48DFF;" width="27.719" height="27.719"/>
	<path style="fill:#A48DFF;" d="M339.155,311.377h-27.717V283.66h-27.717v0.046l-0.046-0.046h0.046v-27.717h-27.717v0.058
		l-0.115-0.115h0.115v-27.622h27.717v27.622h27.717v-27.622h27.717v-27.717h-27.717v27.622h-27.717v-27.622h-27.717v27.622h-27.717
		v-27.622H200.57v0.043l-0.138-0.138h0.138v-27.536h27.717v27.536h27.717v-27.536h27.717v-27.717h-27.717v27.535h-27.717v-27.535
		H200.57v27.535h-27.717v-27.535h-27.699l-0.02-0.02V117.47h-27.717c0,13.471,0,266.548,0,277.059c11.594,0,265.542,0,277.175,0
		v-27.717h-27.717v0.012l-0.012-0.012h0.012v-27.718h-27.717v0.023l-0.023-0.023h0.023v-27.717h27.717v27.717h27.717v-27.717
		h-27.717V283.66h-27.717v27.717H339.155z M228.286,228.262v0.033l-0.033-0.033H228.286z M311.404,311.377h0.035v0.035
		L311.404,311.377z"/>
	<rect x="311.438" y="145.199" style="fill:#A48DFF;" width="27.719" height="27.719"/>
	<rect x="311.438" y="255.937" style="fill:#A48DFF;" width="27.719" height="27.719"/>
	<rect x="366.876" y="255.937" style="fill:#A48DFF;" width="27.719" height="27.719"/>
	<rect x="366.876" y="200.549" style="fill:#A48DFF;" width="27.719" height="27.719"/>
</g>
<g>
</g>
<g>
</g>
<g>
</g>
<g>
</g>
<g>
</g>
<g>
</g>
<g>
</g>
<g>
</g>
<g>
</g>
<g>
</g>
<g>
</g>
<g>
</g>
<g>
</g>
<g>
</g>
<g>
</g>
</svg>
