<?xml version="1.0" encoding="iso-8859-1"?>
<!-- Generator: Adobe Illustrator 19.0.0, SVG Export Plug-In . SVG Version: 6.00 Build 0)  -->
<svg version="1.1" id="Capa_1" xmlns="http://www.w3.org/2000/svg" xmlns:xlink="http://www.w3.org/1999/xlink" x="0px" y="0px"
	 viewBox="0 0 512 512" style="enable-background:new 0 0 512 512;" xml:space="preserve">
<circle style="fill:#444D1A;" cx="256" cy="255.997" r="255.997"/>
<path style="fill:#272B0E;" d="M387.925,264.296l-53.201-53.201h-7.979l-53.201-53.201h-58.469l-14.506,55.155l-55.155-55.155
	H87.078v193.051l160.917,160.918c2.661,0.082,5.328,0.137,8.009,0.137c128.061,0,234.157-94.031,253.017-216.814l-84.091-84.09
	h-37.004L387.925,264.296z"/>
<g>
	<path style="fill:#C3DA49;" d="M87.077,350.945V157.894h58.337l35.028,131.686l34.633-131.686h58.469v193.051H237.33V198.98
		l-38.321,151.965h-37.53L123.291,198.98v151.965L87.077,350.945L87.077,350.945z"/>
	<path style="fill:#C3DA49;" d="M390.558,350.945v-20.938c-5.092,7.463-11.786,13.345-20.081,17.646
		c-8.296,4.301-17.054,6.452-26.272,6.452c-9.394,0-17.823-2.063-25.284-6.19c-7.463-4.125-12.862-9.92-16.197-17.383
		c-3.337-7.461-5.003-17.777-5.003-30.946v-88.492h37.004v64.263c0,19.666,0.679,31.715,2.041,36.147
		c1.361,4.434,3.84,7.947,7.44,10.535c3.599,2.59,8.165,3.885,13.695,3.885c6.32,0,11.984-1.732,16.988-5.202
		c5.003-3.467,8.427-7.77,10.271-12.905c1.843-5.135,2.765-17.712,2.765-37.727v-58.995h37.005v139.85h-34.373V350.945z"/>
</g>
<g>
</g>
<g>
</g>
<g>
</g>
<g>
</g>
<g>
</g>
<g>
</g>
<g>
</g>
<g>
</g>
<g>
</g>
<g>
</g>
<g>
</g>
<g>
</g>
<g>
</g>
<g>
</g>
<g>
</g>
</svg>
