<?xml version="1.0" encoding="iso-8859-1"?>
<!-- Generator: Adobe Illustrator 19.0.0, SVG Export Plug-In . SVG Version: 6.00 Build 0)  -->
<svg version="1.1" id="Capa_1" xmlns="http://www.w3.org/2000/svg" xmlns:xlink="http://www.w3.org/1999/xlink" x="0px" y="0px"
	 viewBox="0 0 512.007 512.007" style="enable-background:new 0 0 512.007 512.007;" xml:space="preserve">
<circle style="fill:#1E484D;" cx="256.003" cy="256.003" r="256.003"/>
<path style="fill:#143033;" d="M511.164,235.283l-86.397-86.397h-40.402V224.8c-12.461-14.184-27.223-21.279-44.283-21.278
	c-18.067,0-33.092,6.377-45.094,19.085l-52.709-52.709l-0.238,0.238c-3.295-4.102-7.038-7.599-11.245-10.466
	c-6.47-4.408-13.802-7.308-21.998-8.698c-8.196-1.389-20.631-2.084-37.309-2.084H87.234v210.777l151.761,151.761
	c5.622,0.369,11.289,0.576,17.005,0.576c141.385,0,256-114.615,256-256C512,249.025,511.711,242.118,511.164,235.283z"/>
<g>
	<path style="fill:#4AB6BF;" d="M87.234,148.886h84.253c16.678,0,29.114,0.696,37.309,2.084c8.196,1.391,15.528,4.291,21.998,8.698
		c6.471,4.41,11.862,10.28,16.176,17.613c4.313,7.333,6.471,15.553,6.471,24.658c0,9.873-2.66,18.932-7.98,27.174
		c-5.32,8.245-12.533,14.428-21.639,18.548c12.843,3.738,22.717,10.114,29.618,19.123c6.901,9.011,10.352,19.603,10.352,31.775
		c0,9.586-2.229,18.907-6.686,27.965c-4.457,9.058-10.546,16.296-18.26,21.711c-7.718,5.417-17.232,8.748-28.541,9.992
		c-7.094,0.769-24.204,1.247-51.328,1.438H87.234V148.886z M129.792,183.968v48.74h27.892c16.582,0,26.887-0.239,30.913-0.719
		c7.283-0.863,13.011-3.379,17.181-7.548c4.17-4.17,6.255-9.655,6.255-16.463c0-6.517-1.797-11.812-5.392-15.888
		c-3.595-4.073-8.939-6.542-16.031-7.405c-4.218-0.479-16.344-0.719-36.375-0.719L129.792,183.968L129.792,183.968z M129.792,267.79
		v56.361h39.396c15.334,0,25.065-0.432,29.187-1.294c6.326-1.15,11.476-3.954,15.456-8.411c3.977-4.457,5.967-10.424,5.967-17.901
		c0-6.326-1.534-11.693-4.6-16.103c-3.07-4.408-7.502-7.62-13.299-9.633c-5.801-2.013-18.382-3.02-37.742-3.02H129.792z"/>
	<path style="fill:#4AB6BF;" d="M424.767,359.664h-37.526v-22.429c-6.232,8.723-13.586,15.217-22.069,19.482
		c-8.484,4.264-17.038,6.398-25.665,6.398c-17.541,0-32.566-7.067-45.074-21.207c-12.509-14.137-18.764-33.859-18.764-59.165
		c0-25.88,6.086-45.553,18.259-59.021c12.171-13.466,27.556-20.201,46.153-20.201c17.06,0,31.823,7.094,44.283,21.278v-75.914
		h40.402V359.664z M316.933,280.01c0,16.296,2.251,28.086,6.758,35.37c6.517,10.545,15.623,15.815,27.318,15.815
		c9.296,0,17.203-3.954,23.723-11.861c6.517-7.908,9.776-19.72,9.776-35.441c0-17.541-3.163-30.169-9.489-37.885
		c-6.326-7.715-14.428-11.574-24.298-11.574c-9.586,0-17.613,3.81-24.083,11.431C320.168,253.484,316.933,264.867,316.933,280.01z"
		/>
</g>
<g>
</g>
<g>
</g>
<g>
</g>
<g>
</g>
<g>
</g>
<g>
</g>
<g>
</g>
<g>
</g>
<g>
</g>
<g>
</g>
<g>
</g>
<g>
</g>
<g>
</g>
<g>
</g>
<g>
</g>
</svg>
