<?xml version="1.0" encoding="iso-8859-1"?>
<!-- Generator: Adobe Illustrator 19.0.0, SVG Export Plug-In . SVG Version: 6.00 Build 0)  -->
<svg version="1.1" id="Capa_1" xmlns="http://www.w3.org/2000/svg" xmlns:xlink="http://www.w3.org/1999/xlink" x="0px" y="0px"
	 viewBox="0 0 512.007 512.007" style="enable-background:new 0 0 512.007 512.007;" xml:space="preserve">
<circle style="fill:#2A2B46;" cx="256.003" cy="256.003" r="256.003"/>
<path style="fill:#1C1C2E;" d="M378.109,185.822l-2.539,3.533l-54.687-54.687c-3.281-4.153-6.851-8.18-10.746-12.076
	c-25.901-25.901-60.338-40.166-96.966-40.165c-36.633,0-71.074,14.266-96.978,40.17s-40.171,60.345-40.17,96.978
	c0,35.021,13.046,68.034,36.827,93.504l-0.065,0.065l193.84,193.84c46.011-9.23,87.561-30.789,121.058-61.093l18.21-18.21
	c29.289-32.375,50.401-72.278,60.116-116.456L391.733,196.951l-0.06,0.06C387.394,192.994,382.856,189.232,378.109,185.822z"/>
<g>
	<path style="fill:#CBE8F2;" d="M304.576,128.17c11.874,11.874,21.195,25.699,27.705,41.09c6.738,15.932,10.156,32.86,10.156,50.314
		s-3.417,34.382-10.156,50.314c-6.51,15.392-15.832,29.217-27.705,41.09c-11.874,11.874-25.699,21.195-41.091,27.705
		c-15.932,6.738-32.86,10.156-50.314,10.156s-34.382-3.417-50.314-10.156c-15.392-6.51-29.217-15.832-41.09-27.705
		s-21.195-25.699-27.705-41.09c-6.738-15.932-10.156-32.86-10.156-50.314c0-17.454,3.417-34.382,10.156-50.314
		c6.511-15.393,15.832-29.217,27.705-41.09c11.874-11.874,25.699-21.195,41.09-27.705c15.932-6.738,32.86-10.156,50.314-10.156
		c17.454,0,34.382,3.417,50.314,10.156C278.877,106.976,292.703,116.296,304.576,128.17 M309.481,123.266
		c-24.648-24.648-58.698-39.893-96.31-39.893c-75.223,0-136.202,60.98-136.202,136.202c0,37.611,15.245,71.662,39.893,96.31
		c24.648,24.648,58.698,39.893,96.31,39.893c75.223,0,136.202-60.98,136.202-136.202
		C349.373,181.964,334.129,147.914,309.481,123.266L309.481,123.266z"/>
	
		<rect x="288.743" y="184.295" transform="matrix(-0.7071 -0.7071 0.7071 -0.7071 417.2786 548.3727)" style="fill:#CBE8F2;" width="66.937" height="6.941"/>
	
		<rect x="246.499" y="199.47" transform="matrix(-0.7071 -0.7071 0.7071 -0.7071 374.1807 560.8715)" style="fill:#CBE8F2;" width="113.503" height="6.941"/>
	
		<rect x="219.868" y="218.313" transform="matrix(-0.7071 -0.7071 0.7071 -0.7071 334.7657 582.2308)" style="fill:#CBE8F2;" width="136.198" height="6.941"/>
	
		<rect x="195.01" y="234.925" transform="matrix(-0.7071 -0.7071 0.7071 -0.7071 293.1472 598.2161)" style="fill:#CBE8F2;" width="150.917" height="6.941"/>
	
		<rect x="179.778" y="253.625" transform="matrix(-0.7071 -0.7071 0.7071 -0.7071 253.569 619.2219)" style="fill:#CBE8F2;" width="150.503" height="6.941"/>
	
		<rect x="167.7" y="271.864" transform="matrix(-0.7071 -0.7071 0.7071 -0.7071 213.5818 639.1373)" style="fill:#CBE8F2;" width="142.922" height="6.941"/>
	
		<rect x="156.21" y="288.454" transform="matrix(-0.7071 -0.7071 0.7071 -0.7071 171.9116 655.0569)" style="fill:#CBE8F2;" width="130.825" height="6.941"/>
	
		<rect x="136.107" y="299.903" transform="matrix(-0.7071 -0.7071 0.7071 -0.7071 125.1135 658.5698)" style="fill:#CBE8F2;" width="125.689" height="6.941"/>
	
		<rect x="156.433" y="324.796" transform="matrix(-0.7071 -0.7071 0.7071 -0.7071 91.7369 694.5314)" style="fill:#CBE8F2;" width="66.556" height="6.941"/>
</g>
<g>
	<path style="fill:#00C6FD;" d="M204.411,390.563c-1.11-1.11-2.211-2.251-3.272-3.388l9.685-9.029
		c0.955,1.025,1.948,2.053,2.95,3.054c4.612,4.612,9.629,8.876,14.911,12.675l-7.731,10.75
		C215.092,400.41,209.527,395.679,204.411,390.563z M185.11,366.207c-4.639-7.483-8.56-15.449-11.655-23.679l12.394-4.66
		c2.791,7.423,6.328,14.611,10.513,21.36L185.11,366.207z M243.811,417.852l5.469-12.059c7.155,3.244,14.693,5.811,22.411,7.631
		l0.23,0.054l-3.212,12.847l1.597-6.387l-1.321,6.448l-0.216-0.046C260.179,424.322,251.781,421.467,243.811,417.852z
		 M166.635,317.027c-1.427-8.687-1.993-17.553-1.687-26.352l13.233,0.462c-0.277,7.927,0.235,15.916,1.519,23.742L166.635,317.027z
		 M294.957,429.852l0.466-13.233c7.927,0.28,15.915-0.23,23.742-1.513l2.143,13.067
		C312.623,429.597,303.757,430.162,294.957,429.852z M168.434,264.581c0.013-0.061,0.028-0.121,0.042-0.181
		c2.014-8.56,4.86-16.928,8.46-24.872l12.061,5.466c-3.252,7.178-5.824,14.745-7.643,22.489l-0.064,0.25l-5.143-1.423
		L168.434,264.581z M346.812,421.358l-4.656-12.396c7.423-2.788,14.611-6.323,21.363-10.507l6.975,11.256
		C363.009,414.348,355.041,418.266,346.812,421.358z M190.157,216.667c4.222-5.873,8.96-11.448,14.083-16.571
		c1.098-1.098,2.231-2.192,3.365-3.249l9.031,9.684c-1.022,0.953-2.043,1.939-3.033,2.929c-4.619,4.619-8.89,9.644-12.694,14.936
		L190.157,216.667z M391.464,393.687l-9.028-9.687c1.037-0.967,2.073-1.967,3.078-2.971c4.605-4.605,8.864-9.613,12.658-14.887
		l10.749,7.734c-4.21,5.851-8.935,11.408-14.044,16.515C393.763,391.506,392.615,392.614,391.464,393.687z M235.548,192.065
		l-6.982-11.252c7.482-4.642,15.447-8.565,23.676-11.66l4.662,12.394C249.483,184.339,242.298,187.878,235.548,192.065z
		 M410.095,345.55c3.264-7.195,5.844-14.78,7.668-22.545l0.034-0.14l12.885,3.055l-0.03,0.127
		c-2.017,8.588-4.877,16.996-8.497,24.974L410.095,345.55z M279.89,175.392l-2.149-13.066c8.684-1.429,17.55-1.998,26.351-1.694
		l-0.458,13.234C295.703,173.592,287.714,174.104,279.89,175.392z M420.938,299.286c0.273-7.926-0.243-15.914-1.532-23.74
		l13.066-2.153c1.431,8.687,2.004,17.552,1.7,26.351L420.938,299.286z M327.237,177.02l3.004-12.896l0.096,0.023
		c8.579,2.015,16.954,4.86,24.906,8.461l-5.462,12.063c-7.17-3.247-14.727-5.814-22.459-7.63L327.237,177.02z M413.245,252.561
		c-2.794-7.42-6.335-14.605-10.524-21.354l11.251-6.983c4.644,7.482,8.569,15.446,11.666,23.672L413.245,252.561z M370.381,196.576
		l7.727-10.754c5.881,4.225,11.465,8.971,16.598,14.103c1.094,1.094,2.18,2.218,3.226,3.34l-9.683,9.032
		c-0.941-1.01-1.919-2.022-2.906-3.009C380.716,204.661,375.682,200.384,370.381,196.576z"/>
	<path style="fill:#00C6FD;" d="M178.273,295.243c0-32.397,12.616-62.854,35.524-85.762s53.365-35.524,85.762-35.524
		c17.106,0,31.306,3.285,45.805,8.936c-6.627-22.687-17.711-42.787-35.226-60.301c-25.901-25.901-60.338-40.166-96.966-40.165
		c-36.633,0-71.074,14.266-96.978,40.17s-40.171,60.345-40.17,96.978c0,36.632,14.266,71.073,40.169,96.977
		c0.001,0.001,0,0,0.002,0.002c20.771,20.771,46.439,34.066,78.039,38.884C183.92,336.758,178.273,317.225,178.273,295.243z"/>
</g>
<g>
</g>
<g>
</g>
<g>
</g>
<g>
</g>
<g>
</g>
<g>
</g>
<g>
</g>
<g>
</g>
<g>
</g>
<g>
</g>
<g>
</g>
<g>
</g>
<g>
</g>
<g>
</g>
<g>
</g>
</svg>
