<?xml version="1.0" encoding="iso-8859-1"?>
<!-- Generator: Adobe Illustrator 19.0.0, SVG Export Plug-In . SVG Version: 6.00 Build 0)  -->
<svg version="1.1" id="Capa_1" xmlns="http://www.w3.org/2000/svg" xmlns:xlink="http://www.w3.org/1999/xlink" x="0px" y="0px"
	 viewBox="0 0 511.993 511.993" style="enable-background:new 0 0 511.993 511.993;" xml:space="preserve">
<circle style="fill:#002B3D;" cx="255.997" cy="255.997" r="255.997"/>
<path style="fill:#001D29;" d="M376.247,99.308c-0.808-1.035-1.739-1.984-2.804-2.804l-0.001-0.001l-4.469-3.441l0,0
	c-25.995-16.578-61.896-10.383-92.187-4.636c-43.564,8.208-98.726,29.303-135.651,47.678l-0.002,0.001
	c-7.85,3.908-11.046,13.44-7.138,21.29c1.594,3.201,4.13,5.612,7.1,7.1l49.18,49.18c-8.564,7.588-17.394,15.605-26.758,24.187
	c-3.835,3.514-4.53,9.303-1.636,13.625l0.001,0.001c0.78,1.165,1.761,2.121,2.866,2.866l43.506,43.506
	c-7.746,7.18-15.108,14.394-22.175,21.615c-1.313,1.193-1.354,2.647-0.758,3.76l-0.01,0.01l0.032,0.032
	c0.305,0.55,0.762,1.012,1.311,1.311l29.706,29.706c-1.993-1.132-4.09-2.476-6.3-4.051c-3.641-2.595-6.984-1.447-13.31,0.176
	l54.194,98.965l57.28,57.28c49.408-10.242,93.638-34.796,127.971-68.837c53.717-53.205,81.334-127.284,74.865-203.703
	L376.247,99.308z"/>
<path style="fill:#CBE8F2;" d="M368.972,93.061c-25.996-16.578-61.896-10.383-92.187-4.636
	c-43.564,8.208-98.726,29.303-135.651,47.678l-0.002,0.001c-7.85,3.908-11.046,13.44-7.138,21.291
	c3.908,7.85,13.44,11.046,21.291,7.138l0.07-0.035c42.746-21.274,130.403-54.677,183.625-51.442
	c-79.684,39.83-117.358,71.549-175.463,124.805c-3.835,3.515-4.529,9.303-1.635,13.625c2.894,4.323,8.512,5.888,13.222,3.68
	c64.844-30.407,112.841-47.956,152.115-40.371c-62.925,32.345-105.663,68.43-141.14,104.679c-3.235,2.941,1.176,7.498,4.116,4.509
	c45.341-39.816,104.896-72.246,155.545-101.211c4.435-2.536,6.643-4.978,5.833-10.022c-0.81-5.044-12.887-13.539-21.267-14.273
	c-30.923-2.713-58.661-4.116-115.411,21.024c40.963-29.918,103.217-66.978,156.489-96.296c4.728-2.602,7.826-7.411,8.241-12.792
	c0.415-5.381-1.907-10.614-6.183-13.907L368.972,93.061z"/>
<path style="fill:#00CAFF;" d="M305.722,322.974c-12.066-4.135-25.505-4.641-35.744,3.751
	c-18.351,15.04-24.699,48.615-59.919,23.515c-3.641-2.595-6.984-1.447-13.31,0.176l54.193,98.965l66.582-121.589
	C313.66,326.051,309.762,324.359,305.722,322.974z"/>
<g>
</g>
<g>
</g>
<g>
</g>
<g>
</g>
<g>
</g>
<g>
</g>
<g>
</g>
<g>
</g>
<g>
</g>
<g>
</g>
<g>
</g>
<g>
</g>
<g>
</g>
<g>
</g>
<g>
</g>
</svg>
