<?xml version="1.0" encoding="iso-8859-1"?>
<!-- Generator: Adobe Illustrator 19.0.0, SVG Export Plug-In . SVG Version: 6.00 Build 0)  -->
<svg version="1.1" id="Capa_1" xmlns="http://www.w3.org/2000/svg" xmlns:xlink="http://www.w3.org/1999/xlink" x="0px" y="0px"
	 viewBox="0 0 512.007 512.007" style="enable-background:new 0 0 512.007 512.007;" xml:space="preserve">
<circle style="fill:#263364;" cx="256.003" cy="256.003" r="256.003"/>
<path style="fill:#141D40;" d="M436.611,190.651L222.787,66.825c-11.239-6.509-25.627-2.675-32.135,8.564L66.825,289.214
	c-4.9,8.462-3.936,18.706,1.636,26.031l-0.152,0.152l196.439,196.439c134.429-4.515,242.574-112.66,247.089-247.089l-70.833-70.833
	l-0.012,0.012C439.688,192.693,438.229,191.588,436.611,190.651z"/>
<path style="fill:#FFFFFF;" d="M436.611,190.651L222.786,66.825c-11.239-6.509-25.626-2.674-32.135,8.565L66.825,289.215
	c-6.509,11.239-2.674,25.626,8.565,32.135l213.825,123.827c11.239,6.509,25.626,2.674,32.135-8.565l123.827-213.825
	C451.685,211.547,447.85,197.16,436.611,190.651z M256.451,367.771c-62.198,0-112.62-50.422-112.62-112.62
	s50.422-112.62,112.62-112.62s112.62,50.422,112.62,112.62S318.649,367.771,256.451,367.771z"/>
<g>
	<path style="fill:#349DC0;" d="M255.215,226.214l-25.093-43.271c-20.35,7.422-36.676,23.203-44.833,43.186L255.215,226.214z"/>
	<path style="fill:#349DC0;" d="M281.494,269.37l50.464,0.061c0.87-4.628,1.33-9.4,1.33-14.28c0-17.785-6.045-34.157-16.189-47.179
		L281.494,269.37z"/>
	<path style="fill:#349DC0;" d="M280.867,240.628l25.467-43.917c-13.424-11.47-30.843-18.398-49.885-18.398
		c-3.82,0-7.574,0.283-11.244,0.821L280.867,240.628z"/>
	<path style="fill:#349DC0;" d="M231.461,241.147l-50.56-0.061c-0.844,4.56-1.289,9.26-1.289,14.065
		c0,17.845,6.085,34.269,16.292,47.312L231.461,241.147z"/>
	<path style="fill:#349DC0;" d="M256.986,284.302l25.108,43.298c20.594-7.29,37.152-23.108,45.43-43.212L256.986,284.302z"/>
	<path style="fill:#349DC0;" d="M231.71,270.54l-25.024,43.152c13.408,11.409,30.78,18.297,49.763,18.297
		c3.555,0,7.053-0.246,10.48-0.714L231.71,270.54z"/>
</g>
<g>
</g>
<g>
</g>
<g>
</g>
<g>
</g>
<g>
</g>
<g>
</g>
<g>
</g>
<g>
</g>
<g>
</g>
<g>
</g>
<g>
</g>
<g>
</g>
<g>
</g>
<g>
</g>
<g>
</g>
</svg>
