<?xml version="1.0" encoding="iso-8859-1"?>
<!-- Generator: Adobe Illustrator 19.0.0, SVG Export Plug-In . SVG Version: 6.00 Build 0)  -->
<svg version="1.1" id="Capa_1" xmlns="http://www.w3.org/2000/svg" xmlns:xlink="http://www.w3.org/1999/xlink" x="0px" y="0px"
	 viewBox="0 0 512 512" style="enable-background:new 0 0 512 512;" xml:space="preserve">
<circle style="fill:#2A4997;" cx="256" cy="256" r="256"/>
<path style="fill:#263364;" d="M342.024,200.579c-20.439,0-36.104,3.74-47.02,11.198l-49.369-48.712l0,0
	c-7.682-8.162-16.786-13.633-27.325-16.394c-15.173-4.068-51.41-3.312-124.527-3.312v220.746l147.461,147.461
	C246.129,511.844,251.046,512,256,512c118.463,0,218.117-80.472,247.32-189.728L398.909,217.861l-0.005,0.005
	C385.685,204.515,365.934,200.579,342.024,200.579z"/>
<g>
	<path style="fill:#76C8DA;" d="M93.783,364.106V143.36c73.118,0,109.354-0.754,124.527,3.312
		c12.648,3.313,23.238,10.517,31.771,21.608c16.531,21.494,15.798,57.681,5.421,77.171c-9.387,17.624-25.225,28.599-41.86,32.224
		c-19.585,3.879-48.582,3.162-75.289,3.162v83.269L93.783,364.106L93.783,364.106z M138.354,180.704v62.64
		c45.164,0,62.774,1.462,73.556-14.305c7.158-10.469,7.006-27.038-2.032-37.042C198.581,179.506,186.238,180.704,138.354,180.704z"
		/>
	<path style="fill:#76C8DA;" d="M268.844,318.481l42.463-6.476c3.952,18.007,16.096,25.147,34.18,25.147
		c13.798,0,30.266-3.461,30.266-17.317c0-9.314-7.79-11.366-17.166-13.551c-34.131-7.529-55.765-14.404-64.898-20.629
		c-12.649-8.632-18.972-20.629-18.972-35.988c0-13.853,5.47-25.497,16.412-34.934c10.94-9.435,27.906-14.154,50.895-14.154
		c34.939,0,61.006,8.391,70.771,42.312l-39.903,7.379c-1.708-6.222-4.945-10.992-9.712-14.305
		c-10.901-7.572-35.916-5.742-44.345-0.301c-6.014,4.134-6.697,11.692-0.602,16.262c12.251,9.032,64.603,12.323,86.732,30.718
		c8.833,7.529,13.251,18.02,13.251,31.47c0,14.658-6.124,27.254-18.37,37.795c-12.249,10.54-30.368,15.811-54.358,15.811
		c-21.785,0-39.025-4.416-51.723-13.251C281.064,345.636,272.759,333.64,268.844,318.481z"/>
</g>
<g>
</g>
<g>
</g>
<g>
</g>
<g>
</g>
<g>
</g>
<g>
</g>
<g>
</g>
<g>
</g>
<g>
</g>
<g>
</g>
<g>
</g>
<g>
</g>
<g>
</g>
<g>
</g>
<g>
</g>
</svg>
