<?xml version="1.0" encoding="iso-8859-1"?>
<!-- Generator: Adobe Illustrator 19.0.0, SVG Export Plug-In . SVG Version: 6.00 Build 0)  -->
<svg version="1.1" id="Capa_1" xmlns="http://www.w3.org/2000/svg" xmlns:xlink="http://www.w3.org/1999/xlink" x="0px" y="0px"
	 viewBox="0 0 512 512" style="enable-background:new 0 0 512 512;" xml:space="preserve">
<circle style="fill:#002A3B;" cx="256" cy="256" r="256"/>
<path style="fill:#001D29;" d="M305.836,67.279c-2.048-0.545-4.101-1.044-6.156-1.518l-11.324,11.324l-15.48-15.48
	c-2.405-0.196-4.812-0.356-7.215-0.459l-16.936,16.936l-15.48-15.48l0,0c-3.052,0.404-6.091,0.884-9.112,1.438l-30.157,30.157
	l-15.48-15.48c-5.709,2.704-11.274,5.708-16.674,9l-60.007,60.007c-3.55,5.627-6.9,11.525-10,17.674l15.48,15.48l-32.847,32.847
	c-0.712,3.166-1.358,6.364-1.922,9.596l0,0l15.48,15.48l-18.443,18.443c-0.002,2.5,0.042,5.012,0.138,7.536l15.48,15.48
	l-12.407,12.407c0.39,2.128,0.811,4.259,1.276,6.398l15.48,15.48l-8.645,8.645c0.655,1.87,1.34,3.743,2.057,5.617l15.48,15.48
	l-5.943,5.943c0.855,1.676,1.737,3.353,2.644,5.029l15.48,15.48l-3.826,3.826c1.013,1.52,2.052,3.04,3.112,4.561l15.48,15.48
	l-2.08,2.079l0.001,0.001c1.183,1.379,2.388,2.733,3.614,4.06l0.224-0.223L237.96,511.356C243.92,511.774,249.933,512,256,512
	c139.414,0,252.79-111.443,255.926-250.103L398.069,148.041c-1.47-1.582-2.962-3.149-4.498-4.685
	c-12.913-12.913-27.516-23.519-43.299-31.642L305.836,67.279z"/>
<g>
	<path style="fill:#CBE8F2;" d="M356.338,434.079c10.741-5.739,20.225-12.552,28-20.327c9.701-9.701,18.433-21.091,26.039-33.713
		L356.338,434.079z"/>
	<path style="fill:#CBE8F2;" d="M308.583,450.874l100.486-100.486l-3.837-3.837L299.199,452.585
		C302.36,452.082,305.49,451.511,308.583,450.874z"/>
	<path style="fill:#CBE8F2;" d="M296.993,418.486c-0.392-0.392-0.76-0.8-1.114-1.216l-37.967,37.967
		c2.533,0.072,5.063,0.1,7.586,0.087l34.423-34.423C298.89,420.199,297.906,419.398,296.993,418.486z"/>
	<path style="fill:#CBE8F2;" d="M270.201,404.315l-47.168,47.168c2.173,0.413,4.352,0.794,6.535,1.139l48.149-48.149
		L270.201,404.315z"/>
	<path style="fill:#CBE8F2;" d="M229.125,406.756l-36.491,36.491c1.897,0.679,3.806,1.329,5.724,1.95l35.501-35.501
		C232.197,408.965,230.604,407.989,229.125,406.756z"/>
	<path style="fill:#CBE8F2;" d="M213.196,384.051l-47.186,47.186c1.653,0.918,3.323,1.805,5.006,2.667l44.654-44.654
		L213.196,384.051z"/>
	<path style="fill:#CBE8F2;" d="M147.218,419.069l58.092-58.092l-0.144-7.529l-62.261,62.261
		C144.325,416.855,145.762,417.976,147.218,419.069z"/>
	<path style="fill:#CBE8F2;" d="M123.29,396.69c1.183,1.379,2.388,2.733,3.614,4.06l81.686-81.686l1.439-9.112L123.29,396.69z"/>
	<path style="fill:#CBE8F2;" d="M106.777,374.568c1.014,1.52,2.052,3.04,3.112,4.561l117.364-117.364l9.351-17.025L106.777,374.568z
		"/>
	<path style="fill:#CBE8F2;" d="M92.478,350.233c0.855,1.676,1.737,3.353,2.645,5.029l238.626-238.626l-3.837-3.837L92.478,350.233z
		"/>
	<path style="fill:#CBE8F2;" d="M80.885,323.191c0.655,1.87,1.339,3.743,2.056,5.617L322.343,89.406l-2.255-5.419L80.885,323.191z"
		/>
	<path style="fill:#CBE8F2;" d="M72.774,292.667c0.389,2.128,0.811,4.259,1.275,6.398L305.836,67.279
		c-2.048-0.545-4.101-1.045-6.156-1.518L72.774,292.667z"/>
	<path style="fill:#CBE8F2;" d="M69.564,257.244c-0.002,2.5,0.042,5.012,0.138,7.536L272.877,61.604
		c-2.406-0.196-4.812-0.356-7.215-0.459L69.564,257.244z"/>
	<path style="fill:#CBE8F2;" d="M74.449,213.725c-0.712,3.166-1.358,6.364-1.923,9.596L233.245,62.602
		c-3.052,0.404-6.091,0.885-9.112,1.439L74.449,213.725z"/>
	<path style="fill:#CBE8F2;" d="M101.815,147.724c-3.55,5.627-6.9,11.525-10,17.674l86.681-86.681
		c-5.709,2.704-11.274,5.708-16.673,9L101.815,147.724z"/>
</g>
<path style="fill:#00C7FF;" d="M148.845,388.082c-32.684-32.684-50.684-76.14-50.685-122.363c0-46.223,18.001-89.679,50.685-122.363
	s76.14-50.684,122.363-50.685c46.223,0.001,89.679,18.001,122.363,50.685s50.685,76.14,50.685,122.363
	c-0.001,46.223-18.001,89.679-50.685,122.363s-76.14,50.685-122.363,50.685S181.53,420.767,148.845,388.082z M369.833,167.094
	c-54.382-54.382-142.868-54.382-197.25,0s-54.382,142.868,0,197.25s142.868,54.382,197.25,0S424.216,221.476,369.833,167.094z"/>
<g>
	<rect x="209.664" y="258.265" style="fill:#FFFFFF;" width="123.097" height="14.917"/>
	<rect x="263.749" y="204.17" style="fill:#FFFFFF;" width="14.917" height="123.097"/>
</g>
<g>
</g>
<g>
</g>
<g>
</g>
<g>
</g>
<g>
</g>
<g>
</g>
<g>
</g>
<g>
</g>
<g>
</g>
<g>
</g>
<g>
</g>
<g>
</g>
<g>
</g>
<g>
</g>
<g>
</g>
</svg>
