<?xml version="1.0" encoding="iso-8859-1"?>
<!-- Generator: Adobe Illustrator 19.0.0, SVG Export Plug-In . SVG Version: 6.00 Build 0)  -->
<svg version="1.1" id="Capa_1" xmlns="http://www.w3.org/2000/svg" xmlns:xlink="http://www.w3.org/1999/xlink" x="0px" y="0px"
	 viewBox="0 0 512.007 512.007" style="enable-background:new 0 0 512.007 512.007;" xml:space="preserve">
<circle style="fill:#263364;" cx="256.003" cy="256.003" r="256.003"/>
<path style="fill:#141D40;" d="M509.469,291.994L277.556,59.778C265.7,47.915,246.402,47.91,234.54,59.766L59.777,234.443
	C47.915,246.3,47.91,265.598,59.766,277.46l231.77,232.073C404.33,493.867,493.603,404.724,509.469,291.994z"/>
<g>
	<path style="fill:#76C8DA;" d="M148.119,328.22V181.414c48.627,0,72.725-0.502,82.816,2.203c8.412,2.203,15.455,6.994,21.129,14.37
		c10.994,14.294,10.507,38.361,3.605,51.322c-6.243,11.721-16.777,19.02-27.839,21.43c-13.024,2.58-32.309,2.103-50.07,2.103v55.378
		H148.119z M177.76,206.249v41.658c30.036,0,41.748,0.973,48.918-9.514c4.761-6.962,4.659-17.981-1.352-24.634
		C217.814,205.452,209.605,206.249,177.76,206.249z"/>
	<path style="fill:#76C8DA;" d="M264.542,297.878l28.24-4.306c2.628,11.977,10.705,16.724,22.731,16.724
		c9.177,0,20.128-2.302,20.128-11.516c0-6.194-5.181-7.559-11.416-9.013c-22.699-5.007-37.086-9.579-43.16-13.72
		c-8.412-5.741-12.618-13.72-12.618-23.933c0-9.213,3.638-16.956,10.916-23.232c7.276-6.274,18.559-9.413,33.847-9.413
		c23.235,0,40.572,5.58,47.066,28.139l-26.537,4.907c-1.136-4.139-3.289-7.31-6.459-9.514c-7.249-5.036-23.886-3.818-29.492-0.2
		c-4,2.75-4.454,7.776-0.4,10.815c8.147,6.007,42.964,8.196,57.681,20.428c5.874,5.007,8.813,11.983,8.813,20.929
		c0,9.748-4.073,18.125-12.217,25.135c-8.146,7.01-20.196,10.514-36.151,10.514c-14.488,0-25.953-2.937-34.398-8.813
		C272.669,315.937,267.146,307.958,264.542,297.878z"/>
</g>
<path style="fill:#FFFFFF;" d="M255.957,461.123c-7.792,0-15.583-2.966-21.513-8.9L59.767,277.46
	c-11.856-11.862-11.851-31.159,0.011-43.017L234.54,59.767c11.862-11.856,31.16-11.851,43.016,0.012L452.233,234.54
	c5.744,5.746,8.906,13.385,8.904,21.51c-0.002,8.125-3.168,15.762-8.914,21.506L277.461,452.234
	C271.531,458.159,263.744,461.123,255.957,461.123z M256.043,64.674c-4.253,0-8.506,1.618-11.746,4.855L69.535,244.206
	c-6.479,6.476-6.482,17.017-0.006,23.497l174.677,174.763c6.475,6.477,17.016,6.482,23.496,0.005l174.762-174.677
	c3.139-3.137,4.868-7.309,4.869-11.747c0.001-4.438-1.726-8.611-4.863-11.751l0,0L267.794,69.535
	C264.555,66.295,260.298,64.674,256.043,64.674z"/>
<g>
</g>
<g>
</g>
<g>
</g>
<g>
</g>
<g>
</g>
<g>
</g>
<g>
</g>
<g>
</g>
<g>
</g>
<g>
</g>
<g>
</g>
<g>
</g>
<g>
</g>
<g>
</g>
<g>
</g>
</svg>
