<?xml version="1.0" encoding="iso-8859-1"?>
<!-- Generator: Adobe Illustrator 19.0.0, SVG Export Plug-In . SVG Version: 6.00 Build 0)  -->
<svg version="1.1" id="Capa_1" xmlns="http://www.w3.org/2000/svg" xmlns:xlink="http://www.w3.org/1999/xlink" x="0px" y="0px"
	 viewBox="0 0 512 512" style="enable-background:new 0 0 512 512;" xml:space="preserve">
<circle style="fill:#2E4FA2;" cx="255.997" cy="255.997" r="255.997"/>
<path style="fill:#1E356E;" d="M510.935,232.724L398.648,120.435h-51.97v70.948l-47.566-47.566l-0.009,0.009
	c-9.273-9.58-20.206-16.023-32.803-19.321c-10.111-2.711-31.811-4.069-65.1-4.069h-87.848v271.128l119.371,119.371
	C240.392,511.627,248.152,512,256,512c141.385,0,256-114.615,256-256C512,248.151,511.627,240.392,510.935,232.724z"/>
<g>
	<path style="fill:#76C8DA;" d="M113.353,391.565V120.435h87.848c33.289,0,54.989,1.358,65.1,4.069
		c15.536,4.068,28.543,12.917,39.023,26.539c10.478,13.625,15.72,31.227,15.72,52.801c0,16.645-3.023,30.639-9.062,41.982
		c-6.043,11.345-13.718,20.251-23.026,26.724c-9.31,6.473-18.771,10.759-28.388,12.853c-13.071,2.589-31.995,3.884-56.779,3.884
		h-35.694v102.274h-54.742V391.565z M168.096,166.303v76.936h29.961c21.574,0,36-1.416,43.277-4.253
		c7.274-2.835,12.975-7.274,17.107-13.317c4.129-6.04,6.195-13.067,6.195-21.083c0-9.863-2.898-18.001-8.692-24.413
		c-5.798-6.41-13.132-10.418-22.009-12.021c-6.535-1.231-19.667-1.849-39.392-1.849L168.096,166.303L168.096,166.303z"/>
	<path style="fill:#76C8DA;" d="M346.678,391.565V120.435h51.97v271.128h-51.97V391.565z"/>
</g>
<g>
</g>
<g>
</g>
<g>
</g>
<g>
</g>
<g>
</g>
<g>
</g>
<g>
</g>
<g>
</g>
<g>
</g>
<g>
</g>
<g>
</g>
<g>
</g>
<g>
</g>
<g>
</g>
<g>
</g>
</svg>
