<?xml version="1.0" encoding="iso-8859-1"?>
<!-- Generator: Adobe Illustrator 19.0.0, SVG Export Plug-In . SVG Version: 6.00 Build 0)  -->
<svg version="1.1" id="Capa_1" xmlns="http://www.w3.org/2000/svg" xmlns:xlink="http://www.w3.org/1999/xlink" x="0px" y="0px"
	 viewBox="0 0 511.998 511.998" style="enable-background:new 0 0 511.998 511.998;" xml:space="preserve">
<circle style="fill:#490052;" cx="255.999" cy="255.997" r="255.997"/>
<path style="fill:#2C0031;" d="M424.414,240.671l-89.38-48.72c-9.496-5.173-20.951-0.419-24.616,8.943l-31.614-31.614
	c-2.75-2.75-6.549-4.45-10.744-4.45l0,0c-5.424,0-10.173,2.852-12.861,7.128l-35.943-35.943l0,0
	c-2.749-2.749-6.548-4.45-10.744-4.45c-5.106,0-9.613,2.527-12.368,6.389l-37.389-37.389l-0.045,0.045
	c-2.639-2.209-6.034-3.542-9.745-3.542l0,0c-8.392,0-15.195,6.803-15.195,15.195v287.472c0,4.195,1.7,7.994,4.449,10.743l0,0
	l100.955,100.955c5.565,0.361,11.173,0.565,16.828,0.565c119.528,0,219.915-81.919,248.099-192.675l-76.878-76.878l-0.071,0.071
	C426.319,241.839,425.412,241.215,424.414,240.671z"/>
<g>
	<path style="fill:#FF74FF;" d="M164.158,399.736c0,8.392-6.803,15.195-15.195,15.195l0,0c-8.392,0-15.195-6.803-15.195-15.195
		V112.264c0-8.392,6.803-15.195,15.195-15.195l0,0c8.392,0,15.195,6.803,15.195,15.195V399.736z"/>
	<path style="fill:#FF74FF;" d="M223.706,365.239c0,8.392-6.803,15.195-15.195,15.195l0,0c-8.392,0-15.195-6.803-15.195-15.195
		V146.761c0-8.392,6.803-15.195,15.195-15.195l0,0c8.392,0,15.195,6.803,15.195,15.195V365.239z"/>
	<path style="fill:#FF74FF;" d="M283.253,331.974c0,8.392-6.803,15.195-15.195,15.195l0,0c-8.392,0-15.195-6.803-15.195-15.195
		V180.025c0-8.392,6.803-15.195,15.195-15.195l0,0c8.392,0,15.195,6.803,15.195,15.195V331.974z"/>
</g>
<path style="fill:#FAC9FB;" d="M309.222,304.718v-97.436c0-13.348,14.341-21.578,25.812-15.329l89.38,48.719
	c12.119,6.604,12.12,24.053-0.001,30.658l-89.378,48.718C323.442,326.367,309.222,317.978,309.222,304.718z M317.846,207.282v97.436
	c0,6.766,7.268,10.915,13.06,7.755l89.38-48.718c6.132-3.342,6.133-12.169,0.001-15.512l-89.38-48.719
	C325.056,196.332,317.846,200.558,317.846,207.282z"/>
<g>
</g>
<g>
</g>
<g>
</g>
<g>
</g>
<g>
</g>
<g>
</g>
<g>
</g>
<g>
</g>
<g>
</g>
<g>
</g>
<g>
</g>
<g>
</g>
<g>
</g>
<g>
</g>
<g>
</g>
</svg>
