<?xml version="1.0" encoding="iso-8859-1"?>
<!-- Generator: Adobe Illustrator 19.0.0, SVG Export Plug-In . SVG Version: 6.00 Build 0)  -->
<svg version="1.1" id="Capa_1" xmlns="http://www.w3.org/2000/svg" xmlns:xlink="http://www.w3.org/1999/xlink" x="0px" y="0px"
	 viewBox="0 0 512.007 512.007" style="enable-background:new 0 0 512.007 512.007;" xml:space="preserve">
<circle style="fill:#3E2D66;" cx="256.003" cy="256.003" r="256.003"/>
<path style="fill:#251B3D;" d="M368.012,202.049c-3.047,1.937-6.29,4.927-9.725,8.964l-10.654-10.654h-38.692l-46.729-46.729l0,0
	c-8.523-8.875-18.586-14.837-30.195-17.878c-9.247-2.479-29.09-3.721-59.532-3.721H92.15v247.94l129.766,129.766
	c11.151,1.484,22.526,2.264,34.084,2.264c128.29,0,234.533-94.367,253.115-217.473l-89.265-89.265
	c-10.036-5.974-20.465-8.964-31.289-8.964C380.893,196.299,374.043,198.217,368.012,202.049z"/>
<g>
	<path style="fill:#8C5BA4;" d="M92.15,379.97V132.03h80.335c30.443,0,50.286,1.242,59.532,3.721
		c14.207,3.721,26.101,11.812,35.686,24.269c9.582,12.461,14.376,28.556,14.376,48.286c0,15.221-2.763,28.02-8.287,38.392
		c-5.526,10.374-12.544,18.519-21.056,24.438c-8.515,5.919-17.166,9.838-25.961,11.755c-11.953,2.367-29.259,3.551-51.921,3.551
		h-32.642v93.527L92.15,379.97L92.15,379.97z M142.211,173.973v70.356h27.399c19.729,0,32.921-1.294,39.575-3.89
		c6.652-2.593,11.865-6.652,15.645-12.178c3.776-5.523,5.666-11.95,5.666-19.28c0-9.02-2.651-16.461-7.949-22.325
		c-5.301-5.861-12.008-9.527-20.126-10.994c-5.977-1.126-17.985-1.692-36.024-1.692h-24.186V173.973z"/>
	<path style="fill:#8C5BA4;" d="M351.016,379.97H303.49V200.357h44.142v25.538c7.553-12.064,14.347-20.012,20.38-23.847
		c6.031-3.832,12.881-5.751,20.549-5.751c10.824,0,21.252,2.989,31.289,8.964l-14.714,41.437
		c-8.007-5.185-15.449-7.781-22.325-7.781c-6.655,0-12.291,1.835-16.913,5.497c-4.625,3.665-8.261,10.291-10.909,19.872
		c-2.651,9.585-3.974,29.655-3.974,60.209L351.016,379.97L351.016,379.97z"/>
</g>
<g>
</g>
<g>
</g>
<g>
</g>
<g>
</g>
<g>
</g>
<g>
</g>
<g>
</g>
<g>
</g>
<g>
</g>
<g>
</g>
<g>
</g>
<g>
</g>
<g>
</g>
<g>
</g>
<g>
</g>
</svg>
