<?xml version="1.0" encoding="iso-8859-1"?>
<!-- Generator: Adobe Illustrator 19.0.0, SVG Export Plug-In . SVG Version: 6.00 Build 0)  -->
<svg version="1.1" id="Capa_1" xmlns="http://www.w3.org/2000/svg" xmlns:xlink="http://www.w3.org/1999/xlink" x="0px" y="0px"
	 viewBox="0 0 512 512" style="enable-background:new 0 0 512 512;" xml:space="preserve">
<circle style="fill:#941F91;" cx="256" cy="256" r="256"/>
<path style="fill:#541252;" d="M437.075,190.492L222.7,66.347c-11.268-6.526-25.692-2.681-32.217,8.587L66.338,289.308
	c-5.23,9.031-3.794,20.086,2.782,27.48c0.62,0.697,1.281,1.364,1.992,1.992l193.077,193.077
	c134.889-4.24,243.453-112.819,247.67-247.714l-69.331-69.331l-0.013,0.013C440.964,193.159,439.147,191.692,437.075,190.492z"/>
<g>
	<path style="fill:#FFFFFF;" d="M445.662,222.709c6.526-11.268,2.681-25.692-8.587-32.217L222.7,66.347
		c-11.268-6.526-25.692-2.681-32.217,8.587L66.338,289.309c-6.526,11.268-2.681,25.692,8.587,32.217L289.3,445.671
		c11.268,6.526,25.692,2.681,32.217-8.587L445.662,222.709z M256.452,368.067c-62.358,0-112.91-50.552-112.91-112.91
		s50.552-112.91,112.91-112.91s112.91,50.552,112.91,112.91S318.81,368.067,256.452,368.067z"/>
	<path style="fill:#FFFFFF;" d="M229.153,298.158c-1.509,0.793-3.324,0.738-4.784-0.144c-1.46-0.882-2.351-2.463-2.351-4.168
		v-75.674c0-1.705,0.892-3.286,2.351-4.168c1.46-0.882,3.274-0.937,4.784-0.144l72.062,37.837c1.602,0.841,2.606,2.503,2.606,4.312
		s-1.004,3.471-2.606,4.312L229.153,298.158z"/>
	<path style="fill:#FFFFFF;" d="M256,354.674c-54.404,0-98.665-44.26-98.665-98.665s44.261-98.665,98.665-98.665
		s98.665,44.26,98.665,98.665S310.404,354.674,256,354.674z M256,184.666c-39.338,0-71.343,32.004-71.343,71.343
		s32.004,71.343,71.343,71.343s71.343-32.004,71.343-71.343S295.338,184.666,256,184.666z"/>
</g>
<g>
</g>
<g>
</g>
<g>
</g>
<g>
</g>
<g>
</g>
<g>
</g>
<g>
</g>
<g>
</g>
<g>
</g>
<g>
</g>
<g>
</g>
<g>
</g>
<g>
</g>
<g>
</g>
<g>
</g>
</svg>
