<?xml version="1.0" encoding="iso-8859-1"?>
<!-- Generator: Adobe Illustrator 19.0.0, SVG Export Plug-In . SVG Version: 6.00 Build 0)  -->
<svg version="1.1" id="Capa_1" xmlns="http://www.w3.org/2000/svg" xmlns:xlink="http://www.w3.org/1999/xlink" x="0px" y="0px"
	 viewBox="0 0 512 512" style="enable-background:new 0 0 512 512;" xml:space="preserve">
<circle style="fill:#4F3F0B;" cx="256" cy="256" r="256"/>
<path style="fill:#362B07;" d="M310.583,222.328l-88.035-88.035l-0.168,0.168c-4.711-3.621-10.517-5.635-16.56-5.635h-91.533
	c-7.427,0-14.216,4.368-17.296,11.128c-3.079,6.76-1.92,14.748,2.955,20.352l4.466,5.134V279.21c0,2.906,1.178,5.536,3.082,7.44
	l216.269,216.267c86.881-23.789,155.309-92.194,179.13-179.062l-98.446-98.446c-1.905-1.905-4.535-3.082-7.441-3.082
	L310.583,222.328z"/>
<path style="fill:#FFD200;" d="M203.446,289.732h-88.511c-5.812,0-10.523-4.711-10.523-10.523v-130.6
	c0-5.812,4.711-10.523,10.523-10.523h88.511c5.812,0,10.523,4.711,10.523,10.523V279.21
	C213.969,285.021,209.258,289.732,203.446,289.732z M125.458,268.686h67.465V159.132h-67.465
	C125.458,159.132,125.458,268.686,125.458,268.686z"/>
<path style="fill:#FDF7D0;" d="M397.712,383.175h-91.533c-7.87,0-15.346-3.406-20.511-9.344L99.947,160.304
	c-4.875-5.604-6.034-13.594-2.955-20.352c3.08-6.76,9.869-11.127,17.296-11.127h91.533c7.87,0,15.346,3.406,20.511,9.344
	l185.721,213.527c4.875,5.604,6.034,13.594,2.955,20.353C411.93,378.808,405.14,383.175,397.712,383.175z M114.288,138.446
	c-3.668,0-7.021,2.157-8.541,5.495c-1.52,3.337-0.947,7.283,1.46,10.05l185.721,213.527c3.337,3.836,8.167,6.036,13.252,6.036
	h91.533c3.668,0,7.021-2.157,8.541-5.494c1.52-3.338,0.948-7.283-1.459-10.05L219.073,144.483
	c-3.337-3.837-8.167-6.037-13.252-6.037H114.288z"/>
<path style="fill:#FFD200;" d="M397.005,373.973h-88.511c-5.812,0-10.523-4.711-10.523-10.523v-130.6
	c0-5.812,4.711-10.523,10.523-10.523h88.511c5.812,0,10.523,4.711,10.523,10.523v130.601
	C407.527,369.262,402.816,373.973,397.005,373.973z M319.017,352.927h67.465V243.373h-67.465V352.927z"/>
<g>
</g>
<g>
</g>
<g>
</g>
<g>
</g>
<g>
</g>
<g>
</g>
<g>
</g>
<g>
</g>
<g>
</g>
<g>
</g>
<g>
</g>
<g>
</g>
<g>
</g>
<g>
</g>
<g>
</g>
</svg>
