<?xml version="1.0" encoding="iso-8859-1"?>
<!-- Generator: Adobe Illustrator 19.0.0, SVG Export Plug-In . SVG Version: 6.00 Build 0)  -->
<svg version="1.1" id="Capa_1" xmlns="http://www.w3.org/2000/svg" xmlns:xlink="http://www.w3.org/1999/xlink" x="0px" y="0px"
	 viewBox="0 0 512 512" style="enable-background:new 0 0 512 512;" xml:space="preserve">
<circle style="fill:#C0C0C7;" cx="256" cy="256" r="256"/>
<path style="fill:#8A8A91;" d="M337.721,198.878c-8.051,0-15.587,1.055-22.62,3.141l-62.611-62.611H95.208v229.429l142.506,142.506
	C243.755,511.77,249.85,512,256,512c116.213,0,214.323-77.445,245.58-183.534l-107.27-107.27l-0.034,0.034
	C380.175,206.342,361.333,198.878,337.721,198.878z"/>
<g>
	<path style="fill:#4C6BB3;" d="M95.207,368.837V139.408H252.49v38.812H141.532v54.305h95.778v38.813h-95.778v97.5H95.207z"/>
	<path style="fill:#4C6BB3;" d="M370.586,315.939l43.819,7.356c-5.634,16.068-14.53,28.302-26.683,36.699
		c-12.156,8.4-27.362,12.599-45.62,12.599c-28.9,0-50.29-9.441-64.164-28.326c-10.955-15.127-16.432-34.219-16.432-57.279
		c0-27.544,7.199-49.114,21.597-64.713c14.398-15.596,32.604-23.396,54.62-23.396c24.727,0,44.236,8.164,58.531,24.492
		c14.293,16.33,21.127,41.343,20.501,75.042H306.578c0.312,13.043,3.859,23.189,10.642,30.439
		c6.781,7.253,15.232,10.877,25.353,10.877c6.885,0,12.676-1.878,17.372-5.634C364.639,330.337,368.184,324.287,370.586,315.939z
		 M373.089,271.493c-0.313-12.728-3.6-22.404-9.86-29.03c-6.259-6.624-13.876-9.938-22.849-9.938
		c-9.601,0-17.528,3.497-23.788,10.485c-6.26,6.991-9.339,16.486-9.234,28.483H373.089z"/>
</g>
<g>
</g>
<g>
</g>
<g>
</g>
<g>
</g>
<g>
</g>
<g>
</g>
<g>
</g>
<g>
</g>
<g>
</g>
<g>
</g>
<g>
</g>
<g>
</g>
<g>
</g>
<g>
</g>
<g>
</g>
</svg>
