<svg enable-background="new 0 0 24 24" height="512" viewBox="0 0 24 24" width="512" xmlns="http://www.w3.org/2000/svg"><path d="m17.516 20.01c2.992-1.903 4.984-5.313 4.984-9.199 0-5.969-4.702-10.811-10.5-10.811-5.8 0-10.5 4.842-10.5 10.812 0 7.011 6.371 12.152 12.975 10.508.995 1.841 2.516 3.145 5.738 2.523v-1.835s-2.066-.528-2.697-1.998zm-1.559-3.114c-1.153-1.249-2.962-2.274-5.257-2.144v2.125s1.558.063 2.622 1.923c-3.518 1.054-6.605-2.391-6.605-6.56v-2.782c0-3.726 2.4-6.745 5.361-6.745 2.962 0 5.364 3.02 5.364 6.745-.149 1.65.577 4.724-1.485 7.438z" fill="#f44336"/></svg>