<?xml version="1.0" encoding="iso-8859-1"?>
<!-- Generator: Adobe Illustrator 19.0.0, SVG Export Plug-In . SVG Version: 6.00 Build 0)  -->
<svg version="1.1" id="Capa_1" xmlns="http://www.w3.org/2000/svg" xmlns:xlink="http://www.w3.org/1999/xlink" x="0px" y="0px"
	 viewBox="0 0 512 512" style="enable-background:new 0 0 512 512;" xml:space="preserve">
<circle style="fill:#636269;" cx="256" cy="256" r="256"/>
<path style="fill:#3C3C40;" d="M414.348,211.455c-12.595-9.181-29.561-13.776-50.897-13.776c-25.057,0-45.121,7.468-60.217,22.355
	l-63.156-63.156L240,156.957c-1.931-2.135-3.998-4.187-6.241-6.132c-15.343-13.306-38.193-19.962-68.55-19.962
	c-18.589,0-34.455,2.804-47.597,8.413c-13.144,5.609-23.208,13.777-30.191,24.5c-6.985,10.724-10.476,22.246-10.476,34.563
	c0,19.138,7.424,35.363,22.273,48.67l90.293,90.293c-5.998,1.725-12.995,2.592-21.001,2.592c-2.317,0-4.55-0.102-6.718-0.284
	l-46.075-46.075l-47.514,4.619c2.7,22.916,10.155,41.18,22.326,54.826l-0.106,0.106l158.826,158.827
	c2.244,0.058,4.493,0.089,6.751,0.089c125.109,0,229.239-89.751,251.56-208.376l-87.388-87.388l-0.036,0.036
	C418.295,214.546,416.373,212.932,414.348,211.455z"/>
<g>
	<path style="fill:#ACACB2;" d="M68.202,298.153l47.514-4.62c2.858,15.949,8.661,27.662,17.405,35.141
		c8.744,7.48,20.54,11.219,35.388,11.219c15.728,0,27.578-3.325,35.553-9.981c7.974-6.654,11.961-14.436,11.961-23.345
		c0-5.718-1.678-10.584-5.032-14.601c-3.357-4.014-9.213-7.507-17.57-10.476c-5.72-1.98-18.753-5.499-39.101-10.558
		c-26.177-6.488-44.545-14.462-55.103-23.922c-14.849-13.307-22.273-29.532-22.273-48.67c0-12.317,3.49-23.84,10.476-34.563
		c6.983-10.723,17.047-18.891,30.191-24.5c13.142-5.609,29.008-8.413,47.597-8.413c30.357,0,53.206,6.656,68.55,19.962
		c15.343,13.31,23.399,31.074,24.17,53.29l-48.835,2.145c-2.091-12.427-6.573-21.366-13.446-26.81
		c-6.874-5.444-17.187-8.166-30.934-8.166c-14.189,0-25.299,2.916-33.326,8.744c-5.171,3.741-7.754,8.744-7.754,15.013
		c0,5.72,2.418,10.616,7.259,14.683c6.158,5.171,21.118,10.558,44.875,16.169c23.758,5.609,41.328,11.411,52.711,17.405
		c11.384,5.997,20.292,14.189,26.727,24.582c6.435,10.394,9.651,23.237,9.651,38.524c0,13.859-3.851,26.838-11.549,38.936
		c-7.7,12.1-18.589,21.092-32.666,26.975c-14.08,5.882-31.622,8.826-52.629,8.826c-30.578,0-54.059-7.065-70.446-21.201
		C81.179,345.807,71.39,325.21,68.202,298.153z"/>
	<path style="fill:#ACACB2;" d="M441.487,253.443l-45.699,8.249c-1.541-9.128-5.032-16.003-10.476-20.622
		c-5.444-4.62-12.512-6.929-21.201-6.929c-11.549,0-20.762,3.987-27.634,11.961c-6.874,7.976-10.311,21.311-10.311,40.008
		c0,20.787,3.49,35.471,10.476,44.05c6.983,8.579,16.358,12.868,28.129,12.868c8.798,0,16.003-2.501,21.613-7.507
		c5.609-5.003,9.569-13.611,11.879-25.819l45.535,7.754c-4.731,20.898-13.804,36.682-27.222,47.35
		c-13.421,10.669-31.403,16.003-53.949,16.003c-25.629,0-46.058-8.084-61.291-24.252c-15.235-16.169-22.849-38.549-22.849-67.147
		c0-28.926,7.643-51.446,22.932-67.56c15.287-16.111,35.966-24.17,62.033-24.17c21.336,0,38.301,4.594,50.897,13.776
		C426.941,220.64,435.987,234.635,441.487,253.443z"/>
</g>
<g>
</g>
<g>
</g>
<g>
</g>
<g>
</g>
<g>
</g>
<g>
</g>
<g>
</g>
<g>
</g>
<g>
</g>
<g>
</g>
<g>
</g>
<g>
</g>
<g>
</g>
<g>
</g>
<g>
</g>
</svg>
