<svg enable-background="new 0 0 24 24" height="512" viewBox="0 0 24 24" width="512" xmlns="http://www.w3.org/2000/svg"><path d="m2.714 13.242v-9.857c0-1.632.416-2.144 1.91-2.144h14.892c1.415 0 1.915.608 1.915 2.144v9.548l1.151-.795v-9.807c0-1.289-.97-2.331-2.163-2.331h-16.826c-1.193 0-2.162 1.042-2.162 2.331v10.109z" fill="#b1b3b5"/><path d="m12.316 15.055c0-.837.386-1.397 1.584-1.337 1.729.054 5.127.446 8.958-2.29.717-.5 1.187.181.747.831-.855 1.048-2.482 2.35-4.976 3.374 2.645 8.988-6.44 10.416-6.301 5.808 0 .132-.012-6.386-.012-6.386z" fill="#008ed3"/><path d="m11.69 9.91c0 1.494-1.295 2.705-2.891 2.705s-2.892-1.211-2.892-2.705 1.295-2.705 2.891-2.705c1.597 0 2.892 1.211 2.892 2.705z" fill="#f6921e"/><path d="m12.636 9.91c0 1.494 1.295 2.705 2.892 2.705 1.596 0 2.891-1.211 2.891-2.705s-1.295-2.705-2.891-2.705c-1.597 0-2.892 1.211-2.892 2.705z" fill="#008ed3"/><path d="m16.003 14.422c-1.253 1.723-2.747 1.403-4.5-.223-.042-.04-.083-.075-.122-.108-.243-.264-.649-.405-1.282-.374-1.729.054-5.126.446-8.958-2.29-.717-.5-1.187.181-.747.831.856 1.048 2.482 2.35 4.976 3.374-2.638 8.987 6.438 10.416 6.302 5.809 0-.043.005-2.662.009-4.533 1.057.249 1.5.478 2.955.146 1.391-.325 2.072-1.313 2.361-2.018.482-1.174-.349-1.505-.994-.614z" fill="#f6921e"/></svg>