<svg enable-background="new 0 0 24 24" height="512" viewBox="0 0 24 24" width="512" xmlns="http://www.w3.org/2000/svg"><path d="m20.413 19.514c.981-.157 3.029-.528 3.086-1.517.016-.278-.178-.525-.45-.569v-.001c-3.027-.508-4.933-3.993-4.639-4.69.212-.504 1.158-.699 1.575-.863 1.996-.8 1.136-2.169-.043-2.169-.531 0-1.161.576-1.742.305.18-3.065.5-5.224-1.668-7.312-2.814-2.706-8.524-2.391-10.472 2.055-.579 1.319-.357 3.73-.264 5.257-.41.183-.996-.014-1.401-.208-1.021-.486-2.767 1.111-.381 2.071 1.034.413 2.012.531 1.466 1.661-.059.108-.391.932-1.17 1.854-2.246 2.661-4.292 1.573-3.754 2.848v.002c.341.811 2.153 1.136 3.029 1.276.241.459.066 1.513.887 1.513.441 0 1.281-.365 2.597-.14 1.774.302 3.789 4.054 8.248.852l.001-.002c.961-.69 1.636-1.201 3.68-.791 1.482.292 1.07-.749 1.415-1.432z" fill="#ffeb3b"/><path d="m11.945 23.494c.017.003-.033.006-.085.006-1.584 0-2.629-.752-3.469-1.357-3.069-2.21-4.45 1.145-5.19-2.186-4.242-.753-3.409-2.845-2.33-3.024 1.243-.21 2.258-.919 3.059-1.867.525-.621 1.293-1.915 1.199-2.137-.1-.24-1.006-.473-1.299-.591-3.017-1.216-.87-3.769.779-2.988.289.139.505.198.66.221-.092-1.501-.25-3.689.334-5.019 2.369-5.414 10.414-5.447 12.794.001.586 1.334.425 3.517.333 4.997.489-.122 1.035-.57 1.905-.21 1.36.495 1.698 2.331-.834 3.126-.23.075-.848.274-.928.465-.117.28 1.447 3.532 4.261 4.004.524.087.897.556.866 1.092-.072 1.27-1.934 1.705-3.198 1.93-.185.837-.322 1.555-1.246 1.555-1.58-.093-2.081-.708-3.944.634-1.102.788-2.186 1.441-3.667 1.348zm2.985-2.092c2.263-1.627 2.814-1.022 4.624-.891.217 0 .062-.373.528-1.45.396-.079 2.635-.394 2.899-1.017h-.001l-.014-.122c-3.368-.566-4.835-4.022-4.896-4.169-.999-2.056 1.757-2.039 2.471-2.784.29-.304.082-.57-.27-.698-.598-.248-.798.266-1.731.309-.477-.021-.587-.151-.86-.261.222-3.117.528-5.312-1.495-7.261-2.554-2.456-7.857-2.241-9.666 1.895-.545 1.24-.301 3.75-.201 5.373-.193.037-.734.603-2.139-.074-.385-.183-1.732.449.022 1.157.472.189 1.54.391 1.85 1.135.476 1.146-1.839 4.841-5.017 5.375v.001l-.017.124c.282.672 2.794.984 2.894 1.015.464 1.117.164.474.424 1.37.106.36.993-.353 2.82-.035 1.909.325 3.778 3.871 7.775 1.008z" fill="#212121"/></svg>