<?xml version="1.0" encoding="iso-8859-1"?>
<!-- Generator: Adobe Illustrator 19.0.0, SVG Export Plug-In . SVG Version: 6.00 Build 0)  -->
<svg version="1.1" id="Capa_1" xmlns="http://www.w3.org/2000/svg" xmlns:xlink="http://www.w3.org/1999/xlink" x="0px" y="0px"
	 viewBox="0 0 512.001 512.001" style="enable-background:new 0 0 512.001 512.001;" xml:space="preserve">
<circle style="fill:#452F00;" cx="255.997" cy="256" r="255.997"/>
<path style="fill:#241900;" d="M511.969,253.655l-126.81-126.81h-20.827l-53.521-53.522l-0.083-0.145
	c-0.974-1.693-2.58-2.93-4.467-3.44c-1.886-0.508-3.897-0.249-5.59,0.726l-44.41,25.537L211.93,70.32
	c-3.519-2.039-8.027-0.838-10.067,2.683l-31.191,53.842h-37.937v40.185l-59.56,34.247c-1.692,0.974-2.93,2.58-3.44,4.467
	c-0.509,1.886-0.248,3.897,0.726,5.591l25.537,44.41l-25.68,44.33c-2.038,3.52-0.839,8.027,2.682,10.067l59.735,59.735v9.394
	l132.548,132.548c137.083-4.888,246.718-117.539,246.718-255.815C512,255.219,511.977,254.439,511.969,253.655z"/>
<path style="fill:#FFE000;" d="M385.159,379.27H132.734V126.845h252.425L385.159,379.27L385.159,379.27z M176.933,335.071H340.96
	V171.044H176.933V335.071z"/>
<g>
	<path style="fill:#FFFFFF;" d="M201.272,438.829L70.461,211.335c-2.026-3.524-0.812-8.03,2.714-10.059L300.669,70.465
		c3.528-2.031,8.033-0.806,10.059,2.714l130.811,227.495c2.029,3.527,0.813,8.03-2.714,10.059l-227.494,130.81
		C207.81,443.567,203.304,442.362,201.272,438.829z M86.905,210.376l123.467,214.722l214.722-123.466L301.628,86.909L86.905,210.376
		z"/>
	<path style="fill:#FFFFFF;" d="M300.07,441.687L72.999,310.141c-3.52-2.039-4.721-6.546-2.683-10.067L201.863,73.003
		c2.039-3.52,6.547-4.722,10.067-2.683l227.071,131.546c3.52,2.039,4.721,6.546,2.683,10.067L310.137,439.005
		C308.096,442.526,303.588,443.725,300.07,441.687z M86.758,301.085l214.323,124.16l124.16-214.323L210.919,86.762L86.758,301.085z"
		/>
</g>
<g>
</g>
<g>
</g>
<g>
</g>
<g>
</g>
<g>
</g>
<g>
</g>
<g>
</g>
<g>
</g>
<g>
</g>
<g>
</g>
<g>
</g>
<g>
</g>
<g>
</g>
<g>
</g>
<g>
</g>
</svg>
