<?xml version="1.0" encoding="iso-8859-1"?>
<!-- Generator: Adobe Illustrator 19.0.0, SVG Export Plug-In . SVG Version: 6.00 Build 0)  -->
<svg version="1.1" id="Capa_1" xmlns="http://www.w3.org/2000/svg" xmlns:xlink="http://www.w3.org/1999/xlink" x="0px" y="0px"
	 viewBox="0 0 511.998 511.998" style="enable-background:new 0 0 511.998 511.998;" xml:space="preserve">
<circle style="fill:#4F3F0B;" cx="255.999" cy="255.999" r="255.999"/>
<path style="fill:#332907;" d="M368.256,173.625c-10.731,0-20.498,2.531-29.305,7.592c-3.633,2.089-6.939,4.449-9.952,7.054
	l-11.003-11.003h-39.782v2.432l-44.054-44.054l-0.005,0.005c-1.651-1.789-3.413-3.51-5.305-5.15
	c-14.122-12.247-35.151-18.373-63.09-18.373c-17.108,0-31.711,2.581-43.807,7.744c-12.097,5.163-21.36,12.679-27.787,22.549
	c-6.429,9.87-9.642,20.475-9.642,31.811c0,17.613,6.833,32.546,20.499,44.794l83.103,83.103c-5.52,1.587-11.959,2.385-19.328,2.385
	c-2.132,0-4.188-0.093-6.183-0.261l-42.406-42.406l-43.73,4.251c2.434,20.652,9.06,37.202,19.85,49.672l-0.142,0.142L290.02,509.746
	c114.391-15.192,204.922-105.909,219.819-220.394l-97.67-97.67l-0.019,0.019C399.841,179.666,385.214,173.625,368.256,173.625z"/>
<g>
	<path style="fill:#E8BC1E;" d="M76.477,266.097l43.73-4.251c2.631,14.679,7.972,25.46,16.019,32.342
		c8.047,6.885,18.905,10.325,32.57,10.325c14.475,0,25.382-3.06,32.722-9.186c7.338-6.124,11.008-13.287,11.008-21.486
		c0-5.262-1.544-9.742-4.631-13.438c-3.09-3.694-8.479-6.909-16.171-9.643c-5.265-1.822-17.26-5.061-35.987-9.718
		c-24.093-5.971-40.997-13.31-50.715-22.017c-13.666-12.248-20.499-27.18-20.499-44.794c0-11.336,3.212-21.941,9.642-31.811
		c6.427-9.869,15.689-17.386,27.787-22.549c12.096-5.163,26.698-7.744,43.807-7.744c27.939,0,48.969,6.126,63.09,18.373
		c14.121,12.25,21.535,28.598,22.244,49.045l-44.945,1.974c-1.924-11.438-6.05-19.664-12.375-24.675
		c-6.327-5.011-15.818-7.516-28.471-7.516c-13.058,0-23.284,2.683-30.672,8.047c-4.76,3.443-7.137,8.047-7.137,13.817
		c0,5.265,2.225,9.77,6.682,13.514c5.668,4.76,19.435,9.718,41.301,14.881c21.866,5.163,38.037,10.503,48.513,16.019
		c10.478,5.519,18.676,13.058,24.599,22.624c5.922,9.566,8.882,21.386,8.882,35.455c0,12.755-3.545,24.7-10.629,35.834
		c-7.087,11.137-17.108,19.412-30.065,24.827c-12.959,5.414-29.104,8.123-48.438,8.123c-28.143,0-49.754-6.503-64.837-19.512
		C88.42,309.956,79.412,290.999,76.477,266.097z"/>
	<path style="fill:#E8BC1E;" d="M278.214,177.269h39.783v23.688c5.163-8.097,12.148-14.677,20.954-19.74
		c8.807-5.061,18.575-7.592,29.305-7.592c18.727,0,34.621,7.341,47.678,22.017c13.058,14.679,19.587,35.128,19.587,61.344
		c0,26.928-6.581,47.857-19.74,62.787c-13.16,14.933-29.104,22.396-47.83,22.396c-8.909,0-16.983-1.773-24.218-5.315
		c-7.239-3.542-14.857-9.616-22.853-18.221v81.235h-42.668L278.214,177.269L278.214,177.269z M320.427,255.165
		c0,18.121,3.592,31.507,10.781,40.162c7.187,8.655,15.944,12.982,26.269,12.982c9.919,0,18.169-3.972,24.75-11.92
		c6.579-7.945,9.869-20.978,9.869-39.099c0-16.904-3.393-29.458-10.173-37.657c-6.784-8.199-15.184-12.3-25.206-12.3
		c-10.428,0-19.082,4.024-25.965,12.071C323.866,227.453,320.427,239.373,320.427,255.165z"/>
</g>
<g>
</g>
<g>
</g>
<g>
</g>
<g>
</g>
<g>
</g>
<g>
</g>
<g>
</g>
<g>
</g>
<g>
</g>
<g>
</g>
<g>
</g>
<g>
</g>
<g>
</g>
<g>
</g>
<g>
</g>
</svg>
