<?xml version="1.0" encoding="iso-8859-1"?>
<!-- Generator: Adobe Illustrator 19.0.0, SVG Export Plug-In . SVG Version: 6.00 Build 0)  -->
<svg version="1.1" id="Capa_1" xmlns="http://www.w3.org/2000/svg" xmlns:xlink="http://www.w3.org/1999/xlink" x="0px" y="0px"
	 viewBox="0 0 511.998 511.998" style="enable-background:new 0 0 511.998 511.998;" xml:space="preserve">
<circle style="fill:#452F00;" cx="255.999" cy="255.999" r="255.999"/>
<path style="fill:#241900;" d="M291.424,101.472l-2.408,12.513l0,0l42.819,42.819c-14.144-10.088-30.233-17.04-47.155-20.296
	l-0.422,2.192l-38.163-38.163c-1.951,0-3.856,0-5.72,0c-20.639,0-38.874,10.227-49.954,25.88l-25.88-25.88c-1.951,0-3.856,0-5.721,0
	c-33.795,0-61.179,27.391-61.178,61.187c0,40.429,0,87.131,0,96.824l38.414,38.414c5.78,16.277,15.09,31.191,27.23,43.71
	l-0.022,0.022l56.665,56.665c-5.53-1.189-10.956-2.678-16.243-4.487l-89.819-89.819l-12.058,4.12
	c7.776,22.757,20.879,43.528,38.15,60.614l-0.004,0.004l142.82,142.82c119.838-12.456,215.102-107.58,227.78-227.352
	L380.022,152.725c-4.764-5.46-9.909-10.623-15.424-15.424C343.616,119.035,318.313,106.646,291.424,101.472z"/>
<g>
	<path style="fill:#FFFFFF;" d="M330.848,235.674c-7.387-25.786-29.163-45.719-55.478-50.78l2.407-12.513
		c30.983,5.958,56.624,29.425,65.32,59.785L330.848,235.674z"/>
	<path style="fill:#FFFFFF;" d="M364.701,221.492c-12.136-36.725-44.491-65.171-82.428-72.469l2.408-12.513
		c20.976,4.035,40.678,13.745,56.975,28.076c16.288,14.324,28.44,32.619,35.145,52.909L364.701,221.492z"/>
	<path style="fill:#FFFFFF;" d="M398.133,208.948c-16.688-48.835-58.499-85.223-109.116-94.963l2.408-12.513
		c26.889,5.174,52.192,17.562,73.174,35.829c20.97,18.255,36.736,41.605,45.594,67.527L398.133,208.948z"/>
</g>
<g>
	<path style="fill:#FFDF00;" d="M246.096,131.758v-31.22c-1.951,0-3.856,0-5.721,0c-33.795,0-61.179,27.391-61.179,61.186
		c0,40.429,0,87.131,0,96.824h66.899v-70.723H216.15v-26.123C216.151,145.166,229.558,131.758,246.096,131.758z"/>
	<path style="fill:#FFDF00;" d="M164.543,131.758v-31.22c-1.951,0-3.856,0-5.721,0c-33.795,0-61.179,27.391-61.179,61.186
		c0,40.429,0,87.131,0,96.824h66.899v-70.723h-29.945v-26.123C134.598,145.166,148.004,131.758,164.543,131.758z"/>
</g>
<g>
	<path style="fill:#FFFFFF;" d="M234.222,339.619c-30.983-5.958-56.624-29.425-65.32-59.785l12.25-3.509
		c7.387,25.786,29.163,45.719,55.478,50.78L234.222,339.619z"/>
	<path style="fill:#FFFFFF;" d="M227.318,375.49c-20.976-4.035-40.678-13.745-56.975-28.076
		c-16.288-14.324-28.44-32.619-35.145-52.909l12.099-3.997c12.136,36.725,44.491,65.171,82.429,72.469L227.318,375.49z"/>
	<path style="fill:#FFFFFF;" d="M220.576,410.528c-26.889-5.174-52.192-17.562-73.174-35.829
		c-20.97-18.255-36.736-41.605-45.594-67.527l12.058-4.12c16.688,48.835,58.499,85.223,109.116,94.963L220.576,410.528z"/>
</g>
<g>
	<path style="fill:#FFDF00;" d="M265.904,380.242v31.22c1.951,0,3.856,0,5.721,0c33.795,0,61.179-27.391,61.179-61.186
		c0-40.429,0-87.131,0-96.824h-66.899v70.723h29.945v26.123C295.849,366.834,282.442,380.242,265.904,380.242z"/>
	<path style="fill:#FFDF00;" d="M347.457,380.242v31.22c1.952,0,3.856,0,5.721,0c33.795,0,61.179-27.391,61.179-61.186
		c0-40.429,0-87.131,0-96.824h-66.899v70.723h29.945v26.123C377.402,366.834,363.995,380.242,347.457,380.242z"/>
</g>
<g>
</g>
<g>
</g>
<g>
</g>
<g>
</g>
<g>
</g>
<g>
</g>
<g>
</g>
<g>
</g>
<g>
</g>
<g>
</g>
<g>
</g>
<g>
</g>
<g>
</g>
<g>
</g>
<g>
</g>
</svg>
