<?xml version="1.0" encoding="iso-8859-1"?>
<!-- Generator: Adobe Illustrator 19.0.0, SVG Export Plug-In . SVG Version: 6.00 Build 0)  -->
<svg version="1.1" id="Capa_1" xmlns="http://www.w3.org/2000/svg" xmlns:xlink="http://www.w3.org/1999/xlink" x="0px" y="0px"
	 viewBox="0 0 511.993 511.993" style="enable-background:new 0 0 511.993 511.993;" xml:space="preserve">
<circle style="fill:#452F00;" cx="255.997" cy="255.997" r="255.997"/>
<path style="fill:#241900;" d="M145.811,325.077l0.048-0.048l41.112,41.112l-0.048,0.048l86.526,86.526l0.048-0.048l50.253,50.253
	c86.947-23.803,155.413-92.288,179.19-179.246l-50.225-50.225l-86.526-86.526l-41.112-41.112l-86.526-86.526L59.284,238.551
	L145.811,325.077z"/>
<g>
	<rect x="189.266" y="186.926" style="fill:#FFFFFF;" width="176.925" height="9.364"/>
	<rect x="145.664" y="315.647" style="fill:#FFFFFF;" width="176.915" height="9.194"/>
	<rect x="189.266" y="283.058" style="fill:#FFFFFF;" width="133.323" height="10.039"/>
	<rect x="189.266" y="250.903" style="fill:#FFFFFF;" width="133.323" height="10.039"/>
	<rect x="189.266" y="218.747" style="fill:#FFFFFF;" width="133.323" height="10.039"/>
</g>
<g>
	<path style="fill:#FFE000;" d="M59.285,238.551l86.526,86.526l9.322-9.322l-44.696-44.696c-6.997-6.997-6.997-18.341,0-25.336
		l135.286-135.286c6.997-6.997,18.34-6.997,25.337,0l44.696,44.696l9.322-9.322l-86.526-86.526L59.285,238.551z"/>
	<path style="fill:#FFE000;" d="M273.448,452.715l-86.526-86.526l9.322-9.322l44.696,44.696c6.997,6.997,18.341,6.997,25.336,0
		l135.286-135.286c6.997-6.997,6.997-18.34,0-25.337l-44.696-44.696l9.322-9.322l86.526,86.526L273.448,452.715z"/>
</g>
<g>
</g>
<g>
</g>
<g>
</g>
<g>
</g>
<g>
</g>
<g>
</g>
<g>
</g>
<g>
</g>
<g>
</g>
<g>
</g>
<g>
</g>
<g>
</g>
<g>
</g>
<g>
</g>
<g>
</g>
</svg>
