<?xml version="1.0" encoding="iso-8859-1"?>
<!-- Generator: Adobe Illustrator 19.0.0, SVG Export Plug-In . SVG Version: 6.00 Build 0)  -->
<svg version="1.1" id="Capa_1" xmlns="http://www.w3.org/2000/svg" xmlns:xlink="http://www.w3.org/1999/xlink" x="0px" y="0px"
	 viewBox="0 0 511.993 511.993" style="enable-background:new 0 0 511.993 511.993;" xml:space="preserve">
<circle style="fill:#1E484D;" cx="255.997" cy="255.997" r="255.997"/>
<path style="fill:#132D30;" d="M386.309,200.035c-12.471-16.852-28.299-25.279-47.489-25.279c-17.688,0-32.617,6.219-44.801,18.629
	l-53.833-53.833c-1.921-2.206-4.008-4.311-6.294-6.294c-13.589-11.786-33.827-17.68-60.712-17.68
	c-16.464,0-30.516,2.484-42.156,7.452c-11.641,4.968-20.555,12.201-26.74,21.698c-6.186,9.498-9.278,19.703-9.278,30.612
	c0,15.372,5.426,28.613,16.243,39.738l-0.013,0.013l0.903,0.903c0.102,0.101,0.199,0.201,0.302,0.302l82.152,82.152
	c-5.287,1.506-11.449,2.262-18.491,2.262c-2.052,0-4.03-0.09-5.951-0.252l-40.808-40.808l-42.082,4.092
	c2.337,19.833,8.691,35.734,19.036,47.726l-0.141,0.141l196.192,196.192c116.286-21.268,205.109-121.099,209.464-242.466
	l-87.074-87.074h-38.43V200.035z"/>
<g>
	<path style="fill:#4AB6BF;" d="M87.262,263.744l42.082-4.092c2.532,14.126,7.671,24.5,15.415,31.124
		c7.744,6.625,18.192,9.936,31.343,9.936c13.93,0,24.425-2.945,31.489-8.84c7.062-5.893,10.593-12.786,10.593-20.676
		c0-5.064-1.486-9.374-4.456-12.932c-2.972-3.555-8.16-6.648-15.561-9.279c-5.066-1.753-16.61-4.87-34.63-9.351
		c-23.185-5.746-39.452-12.808-48.804-21.187c-13.151-11.786-19.726-26.155-19.726-43.106c0-10.909,3.092-21.114,9.278-30.612
		c6.184-9.497,15.098-16.731,26.74-21.698c11.639-4.968,25.692-7.452,42.156-7.452c26.886,0,47.123,5.895,60.712,17.68
		c13.589,11.788,20.723,27.521,21.406,47.196l-43.252,1.899c-1.852-11.007-5.822-18.923-11.909-23.745
		c-6.089-4.822-15.222-7.233-27.397-7.233c-12.566,0-22.406,2.582-29.517,7.744c-4.58,3.313-6.868,7.744-6.868,13.297
		c0,5.066,2.142,9.402,6.429,13.005c5.454,4.58,18.703,9.351,39.744,14.32s36.603,10.107,46.685,15.415
		c10.083,5.311,17.973,12.566,23.672,21.772c5.698,9.206,8.548,20.58,8.548,34.119c0,12.274-3.411,23.77-10.228,34.484
		c-6.819,10.717-16.464,18.681-28.932,23.891c-12.471,5.21-28.006,7.817-46.612,7.817c-27.082,0-47.879-6.258-62.393-18.776
		C98.754,305.95,90.085,287.708,87.262,263.744z"/>
	<path style="fill:#4AB6BF;" d="M278.765,343.671l46.905,5.699c0.778,5.455,2.579,9.206,5.407,11.251
		c3.894,2.922,10.032,4.384,18.411,4.384c10.714,0,18.751-1.607,24.109-4.822c3.602-2.144,6.332-5.603,8.182-10.375
		c1.265-3.411,1.899-9.694,1.899-18.85V308.31c-12.274,16.756-27.763,25.133-46.467,25.133c-20.848,0-37.358-8.815-49.534-26.448
		c-9.548-13.93-14.32-31.27-14.32-52.019c0-26.009,6.258-45.882,18.776-59.617c12.516-13.735,28.078-20.603,46.686-20.603
		c19.189,0,35.018,8.427,47.489,25.279v-21.771h38.43v139.253c0,18.313-1.511,32-4.53,41.059
		c-3.021,9.06-7.258,16.169-12.712,21.333c-5.457,5.162-12.737,9.206-21.846,12.128c-9.109,2.922-20.628,4.384-34.557,4.384
		c-26.302,0-44.957-4.506-55.964-13.516c-11.01-9.012-16.512-20.434-16.512-34.265C278.619,347.274,278.667,345.619,278.765,343.671
		z M315.441,252.638c0,16.464,3.189,28.519,9.571,36.165c6.379,7.648,14.246,11.471,23.598,11.471
		c10.032,0,18.507-3.92,25.425-11.763c6.915-7.84,10.374-19.457,10.374-34.849c0-16.074-3.313-28.005-9.936-35.8
		c-6.626-7.793-15.003-11.69-25.133-11.69c-9.841,0-17.949,3.824-24.328,11.471C318.631,225.292,315.441,236.956,315.441,252.638z"
		/>
</g>
<g>
</g>
<g>
</g>
<g>
</g>
<g>
</g>
<g>
</g>
<g>
</g>
<g>
</g>
<g>
</g>
<g>
</g>
<g>
</g>
<g>
</g>
<g>
</g>
<g>
</g>
<g>
</g>
<g>
</g>
</svg>
