<?xml version="1.0" encoding="iso-8859-1"?>
<!-- Generator: Adobe Illustrator 19.0.0, SVG Export Plug-In . SVG Version: 6.00 Build 0)  -->
<svg version="1.1" id="Capa_1" xmlns="http://www.w3.org/2000/svg" xmlns:xlink="http://www.w3.org/1999/xlink" x="0px" y="0px"
	 viewBox="0 0 512.007 512.007" style="enable-background:new 0 0 512.007 512.007;" xml:space="preserve">
<circle style="fill:#4F3030;" cx="256.003" cy="256.003" r="256.003"/>
<path style="fill:#241616;" d="M511.975,253.982L378.861,120.868l-50.13,29.153v37.508h-22.93v3.025l-45.25-45.25
	c-3.295-4.514-7.132-8.697-11.547-12.527c-16.532-14.338-41.152-21.509-73.861-21.509c-20.028,0-37.124,3.022-51.285,9.066
	c-14.163,6.044-25.007,14.842-32.531,26.398c-7.528,11.555-11.288,23.969-11.288,37.241c0,20.62,8,38.103,23.998,52.44
	l97.289,97.289c-6.463,1.858-14.001,2.792-22.628,2.792c-2.496,0-4.903-0.11-7.239-0.306l-49.646-49.646l-51.197,4.977
	c2.813,23.869,10.396,43.068,22.744,57.602l-0.193,0.193l162.682,162.682c0.05,0,0.101,0.002,0.151,0.002
	c141.385,0,256-114.615,256-256C512,255.326,511.98,254.656,511.975,253.982z"/>
<g>
	<path style="fill:#DF3A5C;" d="M70.617,291.522l51.197-4.977c3.081,17.185,9.333,29.807,18.755,37.864
		c9.422,8.061,22.131,12.088,38.13,12.088c16.945,0,29.715-3.584,38.308-10.754c8.592-7.169,12.888-15.555,12.888-25.154
		c0-6.161-1.808-11.404-5.423-15.732c-3.616-4.325-9.927-8.089-18.932-11.288c-6.163-2.133-20.207-5.924-42.13-11.376
		c-28.206-6.991-47.996-15.583-59.374-25.777c-15.998-14.338-23.998-31.821-23.998-52.44c0-13.272,3.761-25.687,11.288-37.241
		c7.525-11.556,18.368-20.354,32.531-26.398c14.16-6.044,31.255-9.066,51.285-9.066c32.709,0,57.33,7.171,73.861,21.509
		c16.533,14.341,25.211,33.481,26.042,57.418l-52.618,2.312c-2.253-13.391-7.082-23.02-14.487-28.887
		c-7.409-5.866-18.519-8.799-33.331-8.799c-15.288,0-27.259,3.141-35.909,9.422c-5.571,4.03-8.355,9.422-8.355,16.176
		c0,6.164,2.605,11.438,7.822,15.82c6.636,5.572,22.754,11.377,48.351,17.422c25.598,6.044,44.529,12.296,56.795,18.755
		c12.265,6.461,21.864,15.288,28.798,26.486c6.933,11.199,10.4,25.037,10.4,41.509c0,14.931-4.15,28.917-12.444,41.952
		c-8.297,13.038-20.028,22.726-35.196,29.064c-15.171,6.338-34.072,9.511-56.706,9.511c-32.948,0-58.249-7.615-75.905-22.844
		C84.6,342.867,74.054,320.675,70.617,291.522z"/>
	<path style="fill:#DF3A5C;" d="M412.991,187.53v39.819h-34.13v76.083c0,15.408,0.326,24.384,0.978,26.931
		c0.649,2.549,2.134,4.653,4.445,6.311c2.311,1.661,5.125,2.489,8.444,2.489c4.622,0,11.316-1.599,20.087-4.8l4.267,38.753
		c-11.616,4.977-24.77,7.466-39.463,7.466c-9.008,0-17.127-1.511-24.353-4.534c-7.231-3.022-12.533-6.933-15.91-11.732
		c-3.378-4.799-5.718-11.288-7.021-19.465c-1.067-5.805-1.6-17.537-1.6-35.196v-82.305h-22.93v-39.819h22.93v-37.508l50.13-29.153
		v66.662h34.128V187.53z"/>
</g>
<g>
</g>
<g>
</g>
<g>
</g>
<g>
</g>
<g>
</g>
<g>
</g>
<g>
</g>
<g>
</g>
<g>
</g>
<g>
</g>
<g>
</g>
<g>
</g>
<g>
</g>
<g>
</g>
<g>
</g>
</svg>
