<?xml version="1.0" encoding="iso-8859-1"?>
<!-- Generator: Adobe Illustrator 19.0.0, SVG Export Plug-In . SVG Version: 6.00 Build 0)  -->
<svg version="1.1" id="Capa_1" xmlns="http://www.w3.org/2000/svg" xmlns:xlink="http://www.w3.org/1999/xlink" x="0px" y="0px"
	 viewBox="0 0 512 512" style="enable-background:new 0 0 512 512;" xml:space="preserve">
<circle style="fill:#807429;" cx="256" cy="256" r="256"/>
<path style="fill:#594F1C;" d="M433.319,173.813h-44.955L369.17,232.17l-58.357-58.357h-29.276l-43.663-43.663l-0.019,0.019
	c-1.319-1.351-2.688-2.672-4.147-3.937c-14.367-12.46-35.763-18.692-64.189-18.692c-17.406,0-32.263,2.626-44.569,7.879
	c-12.308,5.252-21.732,12.9-28.272,22.941c-6.541,10.042-9.81,20.832-9.81,32.365c0,17.92,6.953,33.113,20.856,45.574l84.549,84.549
	c-5.616,1.615-12.167,2.427-19.665,2.427c-2.17,0-4.261-0.096-6.291-0.266l-43.144-43.144l-44.492,4.325
	c2.804,23.797,11.063,42.256,24.774,55.375l-0.001,0.001L293.19,509.302C416.947,491.288,512,384.751,512,256
	c0-1.187-0.029-2.367-0.044-3.551L433.319,173.813z"/>
<g>
	<path style="fill:#F7DC4D;" d="M78.681,264.188l44.492-4.325c2.677,14.934,8.111,25.902,16.298,32.905
		c8.188,7.005,19.234,10.505,33.138,10.505c14.726,0,25.823-3.113,33.292-9.346c7.466-6.23,11.2-13.518,11.2-21.86
		c0-5.354-1.572-9.911-4.712-13.672c-3.142-3.759-8.627-7.03-16.452-9.81c-5.357-1.853-17.56-5.149-36.614-9.887
		c-24.512-6.076-41.71-13.541-51.598-22.4c-13.903-12.46-20.856-27.653-20.856-45.574c0-11.533,3.269-22.322,9.81-32.365
		c6.539-10.041,15.963-17.689,28.272-22.941c12.306-5.252,27.163-7.879,44.569-7.879c28.426,0,49.822,6.233,64.189,18.693
		c14.367,12.463,21.911,29.097,22.633,49.899l-45.728,2.008c-1.957-11.638-6.155-20.007-12.59-25.105
		c-6.438-5.098-16.093-7.646-28.967-7.646c-13.285,0-23.689,2.73-31.205,8.188c-4.842,3.503-7.261,8.188-7.261,14.058
		c0,5.356,2.263,9.941,6.797,13.749c5.766,4.842,19.774,9.887,42.021,15.14s38.698,10.686,49.358,16.298
		c10.66,5.615,19.002,13.285,25.028,23.018c6.024,9.733,9.037,21.758,9.037,36.072c0,12.977-3.606,25.13-10.813,36.459
		c-7.211,11.33-17.407,19.75-30.589,25.259c-13.185,5.508-29.61,8.264-49.281,8.264c-28.633,0-50.621-6.615-65.966-19.851
		C90.833,308.81,81.667,289.523,78.681,264.188z"/>
	<path style="fill:#F7DC4D;" d="M264.62,173.813h46.192l39.239,116.483l38.312-116.483h44.955l-57.932,157.885l-10.349,28.58
		c-3.812,9.579-7.443,16.89-10.891,21.937c-3.452,5.045-7.416,9.139-11.896,12.281c-4.48,3.14-9.991,5.586-16.53,7.338
		c-6.541,1.75-13.93,2.626-22.168,2.626c-8.342,0-16.53-0.877-24.563-2.626l-3.862-33.987c6.797,1.337,12.924,2.008,18.384,2.008
		c10.092,0,17.557-2.962,22.399-8.883c4.84-5.924,8.548-13.467,11.123-22.632L264.62,173.813z"/>
</g>
<g>
</g>
<g>
</g>
<g>
</g>
<g>
</g>
<g>
</g>
<g>
</g>
<g>
</g>
<g>
</g>
<g>
</g>
<g>
</g>
<g>
</g>
<g>
</g>
<g>
</g>
<g>
</g>
<g>
</g>
</svg>
