<?xml version="1.0" encoding="iso-8859-1"?>
<!-- Generator: Adobe Illustrator 19.0.0, SVG Export Plug-In . SVG Version: 6.00 Build 0)  -->
<svg version="1.1" id="Capa_1" xmlns="http://www.w3.org/2000/svg" xmlns:xlink="http://www.w3.org/1999/xlink" x="0px" y="0px"
	 viewBox="0 0 512 512" style="enable-background:new 0 0 512 512;" xml:space="preserve">
<circle style="fill:#364D21;" cx="256" cy="256" r="256"/>
<path style="fill:#253814;" d="M322.331,150.761h-40.344v25.7l-25.7-25.7H89.024v35.606l62.454,62.454v112.418l147.2,147.2
	c107.391-18.025,192.094-102.899,209.863-210.377l-89.298-89.298h-38.909L322.331,150.761z M151.478,186.424l-0.057-0.057h0.057
	V186.424z"/>
<g>
	<path style="fill:#8DC652;" d="M151.478,361.239V186.367H89.024v-35.606h167.263v35.606h-62.311v174.872H151.478z"/>
	<path style="fill:#8DC652;" d="M281.986,361.239V150.761h40.344v111.7l47.235-53.697h49.677l-52.117,55.706l55.851,96.768h-43.503
		l-38.334-68.484l-18.808,19.671v48.815h-40.345V361.239z"/>
</g>
<g>
</g>
<g>
</g>
<g>
</g>
<g>
</g>
<g>
</g>
<g>
</g>
<g>
</g>
<g>
</g>
<g>
</g>
<g>
</g>
<g>
</g>
<g>
</g>
<g>
</g>
<g>
</g>
<g>
</g>
</svg>
