<svg enable-background="new 0 0 24 24" height="512" viewBox="0 0 24 24" width="512" xmlns="http://www.w3.org/2000/svg"><path id="path4931_3_" d="m12.197 1.902c-1.875.253-3.717 1.033-5.189 2.195-1.637 1.293-2.692 2.947-3.05 4.784-.108.555-.154 1.161-.203 1.803-.189 2.503-.451 4.023-2.497 4.023-.238 0-.456.135-.563.348-.106.214-.083.469.061.659 2.784 3.694 7.282 4.089 11.917 4.092 1.555 0 3.195-.075 4.659-.621 2.599-.969 4.789-3.148 5.579-5.551.892-2.712.477-5.456-1.166-7.728-1.829-2.527-4.969-4.097-8.195-4.097-.452.002-.907.032-1.353.093z" fill="#cfd8dc"/><path id="path4943_3_" d="m13.549 1.182c-4.583 0-9.326 3.05-10.21 7.579-.268 1.376-.17 3.475-.679 4.556-.63 1.338-1.896.189-2.529 1.458-.213.427-.166.938.121 1.319 2.937 3.897 7.599 4.343 12.419 4.343 3.316 0 5.879-.457 8.45-2.925 6.375-6.117 1.489-16.33-7.572-16.33zm0 1.258c5.67 0 10.716 5.062 8.764 10.998-.786 2.391-2.977 4.328-5.202 5.158-1.451.541-3.145.581-4.439.581-4.199 0-8.681-.215-11.415-3.842 3.559 0 2.856-3.977 3.317-6.335.763-3.907 4.974-6.56 8.975-6.56z" fill="#424242"/><path id="path4955_6_" d="m9.943 20.077c.119 1.39-.91 2.613-2.3 2.732s-2.613-.91-2.732-2.3c-.12-1.39.91-2.613 2.3-2.732 1.389-.12 2.612.91 2.732 2.3z" fill="#424242"/><path id="path4955_1_" d="m8.423 20.207c.047.55-.36 1.035-.911 1.082-.55.047-1.035-.36-1.082-.911-.047-.55.36-1.035.911-1.082.55-.047 1.035.361 1.082.911z" fill="#cfd8dc"/><path id="path4979_6_" d="m18.603 20.077c.12 1.39-.91 2.613-2.3 2.732-3.326.286-3.765-4.746-.432-5.032 1.389-.12 2.612.91 2.732 2.3z" fill="#424242"/><path id="path4979_1_" d="m17.083 20.207c.047.55-.36 1.035-.911 1.082-.55.047-1.035-.36-1.082-.911-.047-.55.36-1.035.911-1.082.55-.047 1.035.361 1.082.911z" fill="#cfd8dc"/><g fill="#424242"><path id="path5003_3_" d="m11.428 8.708c0 .668-.541 1.208-1.208 1.208s-1.209-.54-1.209-1.208c0-.667.541-1.208 1.208-1.208s1.209.541 1.209 1.208z"/><path id="path5015_3_" d="m17.198 8.519c0 .668-.541 1.208-1.208 1.208s-1.208-.541-1.208-1.208.541-1.208 1.208-1.208c.668 0 1.208.541 1.208 1.208z"/><path id="path5027_3_" d="m13.122 15.187c-2.287 0-4.066-1.613-4.261-3.315-.095-.829 1.156-.968 1.25-.144.154 1.34 1.756 2.235 3.103 2.199 1.717-.045 2.852-1.072 3.085-2.063.191-.81 1.415-.523 1.225.288-.375 1.597-2.088 3.035-4.402 3.035z"/></g></svg>