<svg enable-background="new 0 0 24 24" height="512" viewBox="0 0 24 24" width="512" xmlns="http://www.w3.org/2000/svg"><g fill="#4527a0"><ellipse cx="17.724" cy="20.999" rx="1.508" ry="1.5"/><path d="m22.547 1.932c-.274-.279-.645-.432-1.042-.432-.762 0-1.407.566-1.498 1.341l-2.275 14.292c-.145.935 1.23 1.219 1.473.311 3.149-13.139 4.564-14.264 3.341-15.51z"/><path d="m14.074.162c-.917.033-1.603-.5-1.94.3l-4.199 10.062-4.221-10.062c-.332-.784-.99-.293-1.936-.301-.554-.023-.935.548-.715 1.049l5.355 12.258v9.783c0 .414.338.75.754.75h1.508c.416 0 .754-.336.754-.75l.009-9.804 5.345-12.237c.203-.472-.103-1.027-.714-1.048z"/></g></svg>