<?xml version="1.0" encoding="utf-8"?>
<!-- Generator: Adobe Illustrator 17.0.0, SVG Export Plug-In . SVG Version: 6.00 Build 0)  -->
<!DOCTYPE svg PUBLIC "-//W3C//DTD SVG 1.1//EN" "http://www.w3.org/Graphics/SVG/1.1/DTD/svg11.dtd">
<svg version="1.1" id="Capa_1" xmlns="http://www.w3.org/2000/svg" xmlns:xlink="http://www.w3.org/1999/xlink" x="0px" y="0px"
	 width="64px" height="64px" viewBox="0 0 64 64" style="enable-background:new 0 0 64 64;" xml:space="preserve">
<style type="text/css">
	.st0{fill:#FFC764;}
	.st1{fill:#424242;}
	.st2{fill:#FF66FF;}
	.st3{fill:#FFFFFF;}
	.st4{opacity:0.2;fill:#424242;}
	.st5{fill:#5FBBFF;}
	.st6{opacity:0.8;fill:none;stroke:#FFFFFF;stroke-width:2;stroke-linecap:round;stroke-miterlimit:10;}
	.st7{fill:none;stroke:#424242;stroke-width:2;stroke-miterlimit:10;}
	.st8{fill:none;stroke:#424242;stroke-width:2;stroke-linecap:round;stroke-linejoin:round;stroke-miterlimit:10;}
</style>
<g id="color">
	<circle class="st0" cx="32" cy="33.5" r="26"/>
	<path class="st1" d="M18,38.5h29c0,0,0,13-15,13C18,51.5,18,38.5,18,38.5z"/>
	<path class="st2" d="M32.004,51.497c-2.907,0-5.442-0.576-7.537-1.712l-1.042-0.565l0.733-0.932
		c1.895-2.409,4.754-3.791,7.846-3.791c3.125,0,6.112,1.495,7.99,4l0.74,0.986l-1.118,0.521
		C37.485,50.994,34.924,51.497,32.004,51.497z"/>
	<polygon class="st3" points="47,37.5 18,37.5 19,42.5 46,42.5 	"/>
	<path class="st4" d="M52.27,49.77C47.51,55.7,40.2,59.5,32,59.5c-14.36,0-26-11.64-26-26c0-8.2,3.8-15.51,9.73-20.27
		C12.14,17.68,10,23.34,10,29.5c0,14.36,11.64,26,26,26C42.16,55.5,47.82,53.36,52.27,49.77z"/>
	<path class="st5" d="M51,20.5c0,0,6,0,6-6s-6-10-6-10s-6,4-6,10S51,20.5,51,20.5z"/>
</g>
<path id="light_1_" class="st6" d="M45.111,15.832C41.45,13.11,36.913,11.5,32,11.5"/>
<g id="stroke">
	<path class="st7" d="M45.566,11.315C41.616,8.895,36.971,7.5,32,7.5c-14.359,0-26,11.641-26,26s11.641,26,26,26s26-11.641,26-26
		c0-5.061-1.446-9.784-3.947-13.779"/>
	<path class="st8" d="M40,32.5c0,0,0-6,6-6s6,6,6,6"/>
	<path class="st8" d="M12,32.5c0,0,0-6,6-6s6,6,6,6"/>
	<path class="st1" d="M41.164,50.336c0,0.01,0,0.01-0.01,0.01c-0.02,0.01-0.04,0.02-0.06,0.02
		C41.114,50.356,41.134,50.346,41.164,50.336z"/>
	<line class="st8" x1="19" y1="42.5" x2="46" y2="42.5"/>
	<path class="st8" d="M51,20.5c0,0,6,0,6-6s-6-10-6-10s-6,4-6,10S51,20.5,51,20.5z"/>
	<path class="st8" d="M18,38.5h29c0,0,0,13-15,13C18,51.5,18,38.5,18,38.5z"/>
	<path class="st8" d="M40.652,49.483C38.921,46.503,35.694,44.5,32,44.5c-3.581,0-6.722,1.882-8.489,4.711"/>
</g>
<g>
</g>
<g>
</g>
<g>
</g>
<g>
</g>
<g>
</g>
<g>
</g>
</svg>
