<?xml version="1.0" encoding="utf-8"?>
<!-- Generator: Adobe Illustrator 17.0.0, SVG Export Plug-In . SVG Version: 6.00 Build 0)  -->
<!DOCTYPE svg PUBLIC "-//W3C//DTD SVG 1.1//EN" "http://www.w3.org/Graphics/SVG/1.1/DTD/svg11.dtd">
<svg version="1.1" id="Capa_1" xmlns="http://www.w3.org/2000/svg" xmlns:xlink="http://www.w3.org/1999/xlink" x="0px" y="0px"
	 width="64px" height="64px" viewBox="0 0 64 64" style="enable-background:new 0 0 64 64;" xml:space="preserve">
<style type="text/css">
	.st0{fill:#FFC764;}
	.st1{opacity:0.2;fill:#424242;}
	.st2{opacity:0.8;fill:none;stroke:#FFFFFF;stroke-width:2;stroke-linecap:round;stroke-miterlimit:10;}
	.st3{fill:none;stroke:#424242;stroke-width:2;stroke-miterlimit:10;}
	.st4{fill:none;stroke:#424242;stroke-width:2;stroke-linecap:round;stroke-linejoin:round;stroke-miterlimit:10;}
	.st5{fill:#FFFFFF;}
</style>
<g id="color">
	<circle class="st0" cx="32" cy="32" r="26"/>
	<path class="st1" d="M52.27,48.27C47.51,54.2,40.2,58,32,58C17.64,58,6,46.36,6,32c0-8.2,3.8-15.51,9.73-20.27
		C12.14,16.18,10,21.84,10,28c0,14.36,11.64,26,26,26C42.16,54,47.82,51.86,52.27,48.27z"/>
</g>
<path id="light" class="st2" d="M47.558,16.445C43.576,12.463,38.076,10,32,10"/>
<g id="stroke">
	<circle class="st3" cx="32" cy="32" r="26"/>
	<path class="st4" d="M19.5,37c0,0,2,5,13,5c10,0,12-5,12-5"/>
</g>
<g id="glasses">
	<polygon points="2,22 2,26 4,26 4,28 6,28 6,30 8,30 8,32 10,32 10,34 23,34 23,32 25,32 25,30 27,30 27,28 29,28 29,26 31,26 
		31,24 33,24 33,26 35,26 35,28 37,28 37,30 39,30 39,32 41,32 41,34 54,34 54,32 56,32 56,30 58,30 58,28 60,28 60,26 62,26 62,22 
			"/>
	<path class="st5" d="M12,26h-2v-2h2V26z M12,32h2v-2h-2V32z M6,24v2h2v-2H6z M8,26v2h2v-2H8z M16,30v2h2v-2H16z M14,28v2h2v-2H14z
		 M10,28v2h2v-2H10z M14,28v-2h-2v2H14z"/>
	<path class="st5" d="M43,26v2h-2v-2H43z M45,24h-2v2h2V24z M45,32h2v-2h-2V32z M39,24v2h2v-2H39z M47,28v2h2v-2H47z M49,30v2h2v-2
		H49z M43,28v2h2v-2H43z M47,28v-2h-2v2H47z"/>
</g>
<g>
</g>
<g>
</g>
<g>
</g>
<g>
</g>
<g>
</g>
<g>
</g>
</svg>
