<?xml version="1.0" encoding="utf-8"?>
<!-- Generator: Adobe Illustrator 17.0.0, SVG Export Plug-In . SVG Version: 6.00 Build 0)  -->
<!DOCTYPE svg PUBLIC "-//W3C//DTD SVG 1.1//EN" "http://www.w3.org/Graphics/SVG/1.1/DTD/svg11.dtd">
<svg version="1.1" id="Capa_1" xmlns="http://www.w3.org/2000/svg" xmlns:xlink="http://www.w3.org/1999/xlink" x="0px" y="0px"
	 width="64px" height="64px" viewBox="0 0 64 64" style="enable-background:new 0 0 64 64;" xml:space="preserve">
<style type="text/css">
	.st0{fill:#FF7866;}
	.st1{opacity:0.2;fill:#424242;}
	.st2{fill:#FFFFFF;}
	.st3{opacity:0.4;fill:#424242;}
	.st4{fill:#424242;}
	.st5{opacity:0.8;fill:none;stroke:#FFFFFF;stroke-width:2;stroke-linecap:round;stroke-miterlimit:10;}
	.st6{fill:none;stroke:#424242;stroke-width:2;stroke-linecap:round;stroke-linejoin:round;stroke-miterlimit:10;}
	.st7{fill:none;stroke:#424242;stroke-width:2;stroke-miterlimit:10;}
</style>
<g id="color">
	<circle class="st0" cx="32" cy="32.5" r="26"/>
	<path class="st1" d="M52.27,48.77C47.51,54.7,40.2,58.5,32,58.5c-14.36,0-26-11.64-26-26c0-8.2,3.8-15.51,9.73-20.27
		C12.14,16.68,10,22.34,10,28.5c0,14.36,11.64,26,26,26C42.16,54.5,47.82,52.36,52.27,48.77z"/>
	<path class="st2" d="M38.996,37.509l4.435,2.202l-1.666,0.924c-0.685,0.379-1.402,0.688-2.196,0.946l-1.708,0.555L38.996,37.509z"
		/>
	<path class="st2" d="M25.406,41.423c-0.707-0.226-1.368-0.503-2.022-0.848l-1.722-0.908l4.336-2.169l1.117,4.47L25.406,41.423z"/>
	<g>
		<path class="st0" d="M53.384,17.734c-0.921-1.349-1.994-2.619-3.189-3.775l-0.687-0.664l0.632-0.716
			c1.308-1.483,2.06-3.167,2.235-5.004l0.201-2.113l1.501,1.501c1.718,1.718,2.716,3.586,2.888,5.403
			c0.188,1.854-0.484,3.692-1.996,5.455l-0.849,0.991L53.384,17.734z"/>
		<path class="st3" d="M53.384,17.734c-0.921-1.349-1.994-2.619-3.189-3.775l-0.687-0.664l0.632-0.716
			c1.308-1.483,2.06-3.167,2.235-5.004l0.201-2.113l1.501,1.501c1.718,1.718,2.716,3.586,2.888,5.403
			c0.188,1.854-0.484,3.692-1.996,5.455l-0.849,0.991L53.384,17.734z"/>
	</g>
	<g>
		<path class="st0" d="M9.178,17.585c-1.38-1.676-1.99-3.434-1.813-5.224c0.221-2.299,1.699-4.201,2.901-5.392l1.498-1.484
			l0.201,2.1c0.168,1.756,0.872,3.386,2.091,4.843l0.605,0.723l-0.685,0.646c-1.19,1.123-2.269,2.376-3.205,3.724l-0.754,1.084
			L9.178,17.585z"/>
		<path class="st3" d="M9.178,17.585c-1.38-1.676-1.99-3.434-1.813-5.224c0.221-2.299,1.699-4.201,2.901-5.392l1.498-1.484
			l0.201,2.1c0.168,1.756,0.872,3.386,2.091,4.843l0.605,0.723l-0.685,0.646c-1.19,1.123-2.269,2.376-3.205,3.724l-0.754,1.084
			L9.178,17.585z"/>
	</g>
</g>
<g id="eyes_x5F_color">
	<path class="st4" d="M16.918,26.201C15.796,26.635,15,27.725,15,29c0,1.657,1.343,3,3,3s3-1.343,3-3
		c0-0.372-0.068-0.728-0.192-1.057"/>
	<path class="st4" d="M43.192,27.941C43.068,28.27,43,28.627,43,29c0,1.657,1.343,3,3,3s3-1.343,3-3
		c0-1.275-0.795-2.364-1.917-2.799"/>
</g>
<path id="light" class="st5" d="M47.558,16.945C43.576,12.963,38.076,10.5,32,10.5"/>
<g id="eyes_x5F_light">
	<path class="st2" d="M19.88,28.67C19.61,29.44,18.86,30,18,30c-1.1,0-2-0.9-2-2c0-0.36,0.1-0.71,0.27-1
		C17.33,27.57,18.53,28.14,19.88,28.67z"/>
	<path class="st2" d="M48,28c0,1.1-0.9,2-2,2c-0.86,0-1.61-0.56-1.88-1.33c1.35-0.53,2.56-1.1,3.61-1.67C47.9,27.29,48,27.64,48,28z
		"/>
</g>
<g id="stroke">
	<line class="st6" x1="32" y1="46.5" x2="32" y2="58.5"/>
	<line class="st6" x1="28" y1="48.5" x2="28" y2="58.194"/>
	<line class="st6" x1="36" y1="48.5" x2="36" y2="58.194"/>
	<path class="st7" d="M16.918,26.201C15.796,26.635,15,27.725,15,29c0,1.657,1.343,3,3,3s3-1.343,3-3
		c0-0.372-0.068-0.728-0.192-1.057"/>
	<path class="st7" d="M43.192,27.941C43.068,28.27,43,28.627,43,29c0,1.657,1.343,3,3,3s3-1.343,3-3
		c0-1.275-0.795-2.364-1.917-2.799"/>
	<path class="st6" d="M52,23c0,0-8,7-20,7s-20-7-20-7"/>
	<path class="st6" d="M20,37.5c0,0,2,5,13,5c10,0,12-5,12-5"/>
	<polyline class="st6" points="37.883,42.025 39,37.5 43.235,39.63 	"/>
	<polyline class="st6" points="27.088,41.907 26,37.5 21.812,39.594 	"/>
	<circle class="st7" cx="32" cy="32.5" r="26"/>
	<path class="st6" d="M20,16.5c0,0-9-3-8-11c0,0-9,6-2,13"/>
	<path class="st6" d="M44.334,16.5c0,0,9-3,8-11c0,0,9,6,2,13"/>
</g>
<g>
</g>
<g>
</g>
<g>
</g>
<g>
</g>
<g>
</g>
<g>
</g>
</svg>
