<?xml version="1.0" encoding="utf-8"?>
<!-- Generator: Adobe Illustrator 17.0.0, SVG Export Plug-In . SVG Version: 6.00 Build 0)  -->
<!DOCTYPE svg PUBLIC "-//W3C//DTD SVG 1.1//EN" "http://www.w3.org/Graphics/SVG/1.1/DTD/svg11.dtd">
<svg version="1.1" id="Capa_1" xmlns="http://www.w3.org/2000/svg" xmlns:xlink="http://www.w3.org/1999/xlink" x="0px" y="0px"
	 width="64px" height="64px" viewBox="0 0 64 64" style="enable-background:new 0 0 64 64;" xml:space="preserve">
<style type="text/css">
	.st0{fill:#FFC764;}
	.st1{fill:#424242;}
	.st2{fill:#D25AFF;}
	.st3{opacity:0.2;fill:#424242;}
	.st4{fill:#5FBBFF;}
	.st5{opacity:0.8;fill:none;stroke:#FFFFFF;stroke-width:2;stroke-linecap:round;stroke-miterlimit:10;}
	.st6{fill:none;stroke:#424242;stroke-width:2;stroke-linecap:round;stroke-linejoin:round;stroke-miterlimit:10;}
	.st7{fill:none;stroke:#424242;stroke-width:2;stroke-miterlimit:10;}
</style>
<g>
	<g id="color">
		<circle class="st0" cx="32" cy="32" r="26"/>
		<circle class="st1" cx="32" cy="47" r="7"/>
		<path class="st2" d="M37.19,50c-1.03,1.79-2.97,3-5.19,3s-4.16-1.21-5.19-3c1.06-1.84,3.05-3,5.19-3S36.13,48.16,37.19,50z"/>
		<path class="st3" d="M52.27,48.27C47.51,54.2,40.2,58,32,58C17.64,58,6,46.36,6,32c0-8.2,3.8-15.51,9.73-20.27
			C12.14,16.18,10,21.84,10,28c0,14.36,11.64,26,26,26C42.16,54,47.82,51.86,52.27,48.27z"/>
		<path class="st4" d="M42,33.83l8,3.333v13.581l-0.318,0.297c-1.875,1.749-3.977,3.195-6.244,4.299L42,56.039V33.83z"/>
		<path class="st4" d="M20.563,55.34c-2.268-1.104-4.369-2.55-6.245-4.299L14,50.744V37.163l8-3.333v22.209L20.563,55.34z"/>
	</g>
	<path id="light" class="st5" d="M47.558,16.445C43.576,12.463,38.076,10,32,10"/>
	<g id="stroke">
		<circle class="st6" cx="32" cy="47" r="7"/>
		<path class="st6" d="M38.323,49.994C37.199,47.632,34.79,46,32,46c-2.792,0-5.202,1.635-6.326,3.999"/>
		<circle class="st7" cx="32" cy="32" r="26"/>
		<line class="st6" x1="22" y1="33.833" x2="22" y2="56.007"/>
		<line class="st6" x1="14" y1="37.167" x2="14" y2="50.758"/>
		<line class="st6" x1="41.996" y1="33.832" x2="41.996" y2="56.007"/>
		<line class="st6" x1="50" y1="37.167" x2="50" y2="50.762"/>
		<polyline class="st6" points="12,38 24,33 12,28 		"/>
		<polyline class="st6" points="52,38 40,33 52,28 		"/>
	</g>
</g>
<g>
</g>
<g>
</g>
<g>
</g>
<g>
</g>
<g>
</g>
<g>
</g>
</svg>
