<?xml version="1.0" encoding="utf-8"?>
<!-- Generator: Adobe Illustrator 17.0.0, SVG Export Plug-In . SVG Version: 6.00 Build 0)  -->
<!DOCTYPE svg PUBLIC "-//W3C//DTD SVG 1.1//EN" "http://www.w3.org/Graphics/SVG/1.1/DTD/svg11.dtd">
<svg version="1.1" id="Capa_1" xmlns="http://www.w3.org/2000/svg" xmlns:xlink="http://www.w3.org/1999/xlink" x="0px" y="0px"
	 width="64px" height="64px" viewBox="0 0 64 64" style="enable-background:new 0 0 64 64;" xml:space="preserve">
<style type="text/css">
	.st0{fill:#FFC764;}
	.st1{opacity:0.2;fill:#424242;}
	.st2{fill:#F4F4F4;}
	.st3{fill:#D25AFF;}
	.st4{opacity:0.8;fill:none;stroke:#FFFFFF;stroke-width:2;stroke-linecap:round;stroke-miterlimit:10;}
	.st5{fill:none;stroke:#424242;stroke-width:2;stroke-miterlimit:10;}
	.st6{fill:none;stroke:#424242;stroke-width:2;stroke-linecap:round;stroke-linejoin:round;stroke-miterlimit:10;}
</style>
<g id="color">
	<circle class="st0" cx="32" cy="32" r="26"/>
	<path class="st1" d="M52.27,48.27C47.51,54.2,40.2,58,32,58C17.64,58,6,46.36,6,32c0-8.2,3.8-15.51,9.73-20.27
		C12.14,16.18,10,21.84,10,28c0,14.36,11.64,26,26,26C42.16,54,47.82,51.86,52.27,48.27z"/>
	<path class="st2" d="M32,47c-14.298,0-17.406-6.745-17.714-7.515c-0.819-2.047,0.18-4.38,2.228-5.2C16.993,34.096,17.492,34,18,34
		c1.543,0,6.218,5,14,5c8.017,0,12.498-4.99,14.003-4.99c0.532,0,1.051,0.104,1.541,0.311c1.998,0.84,2.972,3.156,2.171,5.164
		C49.408,40.253,46.306,47,32,47z"/>
	<circle class="st3" cx="32" cy="33" r="6"/>
</g>
<path id="light" class="st4" d="M47.558,16.445C43.576,12.463,38.076,10,32,10"/>
<g id="stroke">
	<circle class="st5" cx="32" cy="32" r="26"/>
	<path class="st6" d="M40,31c0,0,0-6,6-6s6,6,6,6"/>
	<path class="st6" d="M12,31c0,0,0-6,6-6s6,6,6,6"/>
	<circle class="st6" cx="32" cy="33" r="6"/>
	<path class="st6" d="M46,38c0,0-2,5-14,5s-14-5-14-5"/>
	<path class="st5" d="M32,47c-14.298,0-17.406-6.745-17.714-7.515c-0.819-2.047,0.18-4.38,2.228-5.2C16.993,34.096,17.492,34,18,34
		c1.543,0,6.218,5,14,5c8.017,0,12.498-4.99,14.003-4.99c0.532,0,1.051,0.104,1.541,0.311c1.998,0.84,2.972,3.156,2.171,5.164
		C49.408,40.253,46.306,47,32,47z"/>
</g>
<g>
</g>
<g>
</g>
<g>
</g>
<g>
</g>
<g>
</g>
<g>
</g>
</svg>
