<?xml version="1.0" encoding="utf-8"?>
<!-- Generator: Adobe Illustrator 17.0.0, SVG Export Plug-In . SVG Version: 6.00 Build 0)  -->
<!DOCTYPE svg PUBLIC "-//W3C//DTD SVG 1.1//EN" "http://www.w3.org/Graphics/SVG/1.1/DTD/svg11.dtd">
<svg version="1.1" id="Capa_1" xmlns="http://www.w3.org/2000/svg" xmlns:xlink="http://www.w3.org/1999/xlink" x="0px" y="0px"
	 width="64px" height="64px" viewBox="0 0 64 64" style="enable-background:new 0 0 64 64;" xml:space="preserve">
<style type="text/css">
	.st0{fill:#FFC764;}
	.st1{fill:#424242;}
	.st2{fill:#D25AFF;}
	.st3{opacity:0.2;fill:#424242;}
	.st4{opacity:0.8;fill:none;stroke:#FFFFFF;stroke-width:2;stroke-linecap:round;stroke-miterlimit:10;}
	.st5{fill:none;stroke:#424242;stroke-width:2;stroke-miterlimit:10;}
	.st6{fill:none;stroke:#424242;stroke-width:2;stroke-linecap:round;stroke-linejoin:round;stroke-miterlimit:10;}
</style>
<g>
	<g id="color">
		<circle class="st0" cx="32" cy="32" r="26"/>
		<path class="st1" d="M18,37h29c0,0,0,13-15,13C18,50,18,37,18,37z"/>
		<path class="st2" d="M32,50c-3.407,0-6.282-0.785-8.545-2.335l-0.731-0.501l0.409-0.786C24.859,43.061,28.257,41,32,41
			c3.822,0,7.367,2.236,9.031,5.696l0.404,0.842l-0.812,0.461C38.289,49.327,35.388,50,32,50z"/>
		<path class="st3" d="M52.27,48.27C47.51,54.2,40.2,58,32,58C17.64,58,6,46.36,6,32c0-8.2,3.8-15.51,9.73-20.27
			C12.14,16.18,10,21.84,10,28c0,14.36,11.64,26,26,26C42.16,54,47.82,51.86,52.27,48.27z"/>
	</g>
	<path id="light" class="st4" d="M47.558,16.445C43.576,12.463,38.076,10,32,10"/>
	<g id="stroke">
		<circle class="st5" cx="32" cy="32" r="26"/>
		<path class="st6" d="M40,31c0,0,0-6,6-6s6,6,6,6"/>
		<path class="st6" d="M12,31c0,0,0-6,6-6s6,6,6,6"/>
		<path class="st6" d="M18,37h29c0,0,0,13-15,13C18,50,18,37,18,37z"/>
		<path class="st6" d="M41.383,47.533C39.973,43.719,36.304,41,32,41c-4.142,0-7.696,2.518-9.214,6.108"/>
	</g>
</g>
<g>
</g>
<g>
</g>
<g>
</g>
<g>
</g>
<g>
</g>
<g>
</g>
</svg>
