<?xml version="1.0" encoding="utf-8"?>
<!-- Generator: Adobe Illustrator 17.0.0, SVG Export Plug-In . SVG Version: 6.00 Build 0)  -->
<!DOCTYPE svg PUBLIC "-//W3C//DTD SVG 1.1//EN" "http://www.w3.org/Graphics/SVG/1.1/DTD/svg11.dtd">
<svg version="1.1" id="Capa_1" xmlns="http://www.w3.org/2000/svg" xmlns:xlink="http://www.w3.org/1999/xlink" x="0px" y="0px"
	 width="64px" height="64px" viewBox="0 0 64 64" style="enable-background:new 0 0 64 64;" xml:space="preserve">
<style type="text/css">
	.st0{fill:#FFC764;}
	.st1{fill:#424242;}
	.st2{opacity:0.2;fill:#424242;}
	.st3{fill:#D25AFF;}
	.st4{opacity:0.8;fill:none;stroke:#FFFFFF;stroke-width:2;stroke-linecap:round;stroke-miterlimit:10;}
	.st5{fill:none;stroke:#424242;stroke-width:2;stroke-miterlimit:10;}
	.st6{fill:none;stroke:#424242;stroke-width:2;stroke-linecap:round;stroke-linejoin:round;stroke-miterlimit:10;}
</style>
<g>
	<g id="color">
		<circle class="st0" cx="32" cy="31.5" r="26"/>
		<path class="st1" d="M18,36.5h29c0,0,0,13-15,13C18,49.5,18,36.5,18,36.5z"/>
		<path class="st2" d="M52.27,47.77C47.51,53.7,40.2,57.5,32,57.5c-14.36,0-26-11.64-26-26c0-8.2,3.8-15.51,9.73-20.27
			C12.14,15.68,10,21.34,10,27.5c0,14.36,11.64,26,26,26C42.16,53.5,47.82,51.36,52.27,47.77z"/>
		<path class="st3" d="M23,46.5c0-6,9-6,9-6s9,0,9,6v7c0,0,0,7-9,7s-9-7-9-7V46.5z"/>
	</g>
	<path id="light" class="st4" d="M47.558,15.945C43.576,11.963,38.076,9.5,32,9.5"/>
	<g id="stroke">
		<path class="st5" d="M40.351,56.13C50.614,52.651,58,42.938,58,31.5c0-14.359-11.641-26-26-26S6,17.141,6,31.5
			c0,11.437,7.385,21.15,17.647,24.629"/>
		<path class="st6" d="M40,30.5c0,0,0-6,6-6s6,6,6,6"/>
		<path class="st6" d="M12,30.5c0,0,0-6,6-6s6,6,6,6"/>
		<path class="st6" d="M22.997,46.844C18,43.041,18,36.5,18,36.5h29c0,0,0,7.057-5.999,10.772"/>
		<path class="st6" d="M41.383,47.033"/>
		<line class="st6" x1="32" y1="40.5" x2="32" y2="49.5"/>
		<path class="st6" d="M23,46.5c0-6,9-6,9-6s9,0,9,6v7c0,0,0,7-9,7s-9-7-9-7V46.5z"/>
	</g>
</g>
<g>
</g>
<g>
</g>
<g>
</g>
<g>
</g>
<g>
</g>
<g>
</g>
</svg>
