<?xml version="1.0" encoding="utf-8"?>
<!-- Generator: Adobe Illustrator 17.0.0, SVG Export Plug-In . SVG Version: 6.00 Build 0)  -->
<!DOCTYPE svg PUBLIC "-//W3C//DTD SVG 1.1//EN" "http://www.w3.org/Graphics/SVG/1.1/DTD/svg11.dtd">
<svg version="1.1" id="Capa_1" xmlns="http://www.w3.org/2000/svg" xmlns:xlink="http://www.w3.org/1999/xlink" x="0px" y="0px"
	 width="64px" height="64px" viewBox="0 0 64 64" style="enable-background:new 0 0 64 64;" xml:space="preserve">
<style type="text/css">
	.st0{fill:#FFC764;}
	.st1{fill:#424242;}
	.st2{fill:#D25AFF;}
	.st3{opacity:0.2;fill:#424242;}
	.st4{opacity:0.8;fill:none;stroke:#FFFFFF;stroke-width:2;stroke-linecap:round;stroke-miterlimit:10;}
	.st5{fill:none;stroke:#424242;stroke-width:2;stroke-miterlimit:10;}
	.st6{fill:none;stroke:#424242;stroke-width:2;stroke-linecap:round;stroke-linejoin:round;stroke-miterlimit:10;}
	.st7{fill:none;stroke:#5FBBFF;stroke-width:2;stroke-linecap:round;stroke-linejoin:round;stroke-miterlimit:10;}
</style>
<g id="color">
	<circle class="st0" cx="32" cy="32" r="26"/>
	<circle class="st1" cx="32" cy="47" r="7"/>
	<path class="st2" d="M37.19,50c-1.03,1.79-2.97,3-5.19,3s-4.16-1.21-5.19-3c1.06-1.84,3.05-3,5.19-3S36.13,48.16,37.19,50z"/>
	<path class="st3" d="M52.27,48.27C47.51,54.2,40.2,58,32,58C17.64,58,6,46.36,6,32c0-8.2,3.8-15.51,9.73-20.27
		C12.14,16.18,10,21.84,10,28c0,14.36,11.64,26,26,26C42.16,54,47.82,51.86,52.27,48.27z"/>
</g>
<path id="light" class="st4" d="M47.558,16.445C43.576,12.463,38.076,10,32,10"/>
<g id="stroke">
	<circle class="st5" cx="32" cy="32" r="26"/>
	<path class="st6" d="M40,33c0,0,2,4,6,4s6-4,6-4"/>
	<path class="st6" d="M12,33c0,0,2,4,6,4s6-4,6-4"/>
	<circle class="st6" cx="32" cy="47" r="7"/>
	<path class="st6" d="M38.323,49.994C37.199,47.632,34.79,46,32,46c-2.792,0-5.202,1.635-6.326,3.999"/>
</g>
<g id="zzz">
	<polyline class="st7" points="31,25 35,25 31,29 35,29 	"/>
	<polyline class="st7" points="39,17 47,17 39,25 47,25 	"/>
	<polyline class="st7" points="51,7 61,7 51,17 61,17 	"/>
</g>
<g>
</g>
<g>
</g>
<g>
</g>
<g>
</g>
<g>
</g>
<g>
</g>
</svg>
